<svg xmlns="http://www.w3.org/2000/svg" viewBox="0 0 77.6 77.6" enable-background="new 0 0 77.6 77.6"><g><path fill="#f03" d="M38.8 77.6C17.4 77.6 0 60.2 0 38.8S17.4 0 38.8 0s38.8 17.4 38.8 38.8-17.4 38.8-38.8 38.8zm0-76.6C18 1 1 18 1 38.8s17 37.8 37.8 37.8c20.8 0 37.8-17 37.8-37.8S59.7 1 38.8 1zM39.4 32.8h4.5c.8 0 .9.1.8.9-.2 1.5-.4 3-.5 4.5 0 .5-.2.6-.7.6h-4.2v16.9c0 .6-.2.8-.8.8h-7.1V39.8c0-.9 0-.9-.9-.9h-1.7c-.4 0-.5-.2-.5-.5v-5c0-.4.2-.5.5-.5h1.8c.6 0 .9-.2.8-.8V28c.1-2.1.6-4 2.3-5.4 1.2-.9 2.6-1.4 4-1.4 2.3-.1 4.6-.1 6.9-.1.4 0 .6.2.6.6v4.8c0 .6-.4.6-.8.6H41c-1.1 0-1.7.6-1.7 1.7.1 1.3.1 2.6.1 4z"/></g></svg>