<svg xmlns="http://www.w3.org/2000/svg" viewBox="0 0 45.2 45.2" enable-background="new 0 0 45.2 45.2"><path fill="#f03" d="M22.6 0C10.1 0 0 10.1 0 22.6 0 35 10.1 45.2 22.6 45.2 35 45.2 45.2 35 45.2 22.6 45.2 10.1 35 0 22.6 0zm0 1C10.7 1 1 10.7 1 22.6c0 11.9 9.7 21.6 21.6 21.6 11.9 0 21.6-9.7 21.6-21.6C44.2 10.7 34.5 1 22.6 1zm0-1C10.1 0 0 10.1 0 22.6 0 35 10.1 45.2 22.6 45.2 35 45.2 45.2 35 45.2 22.6 45.2 10.1 35 0 22.6 0z"/><path fill="#fff" d="M23.9 17.8v1.8c.5-.5 1-1 1.6-1.4 2.8-1.8 6.7-.4 7.7 2.9.3.8.4 1.8.4 2.6.1 2.7 0 5.3 0 8v.3h-4.7v-7.3c0-.6-.1-1.2-.2-1.8-.2-1-.9-1.6-1.9-1.7-1.1-.1-1.9.3-2.4 1.2-.2.4-.4 1-.4 1.5V32h-4.7V17.8h4.6zM16.5 17.8V32h-4.7V17.8h4.7zM14.1 15.8c-1 0-1.9-.4-2.3-1.4-.4-.9-.3-1.8.4-2.6.8-1 2.7-1.1 3.7-.3 1 .7 1.3 2.2.6 3.2-.5.8-1.4 1.1-2.4 1.1z"/></svg>