<svg xmlns="http://www.w3.org/2000/svg" viewBox="0 0 77.6 77.6" enable-background="new 0 0 77.6 77.6"><g><circle fill="#f03" cx="38.8" cy="38.8" r="37.9"/><path fill="#fff" d="M18.9 45c.4.3.9.6 1.3.9.7.4 1.4.8 2.2 1.1.6.2 1.2.3 1.7.5.4.1.8.1 1.2.1h.7c.9 0 1.7-.2 2.5-.4.6-.2 1.3-.4 1.9-.7.8-.4 1.5-.9 2.2-1.4.3-.2.5-.4.8-.7-.7 0-1.4-.1-2-.4-.4-.2-.7-.5-.8-.9-.2-.5-.1-.9.2-1.3.3-.4.6-.6 1-.8h.1c-1 0-2-.1-2.9-.6-.8-.4-1.4-1-1.8-1.8-.1-.1 0-.2 0-.3.5-.5 1.1-.7 1.8-.9.2 0 .5-.1.7-.1l-.9-.3c-.7-.3-1.4-.6-1.9-1.1-.7-.6-1.2-1.3-1.4-2.2 0-.2-.1-.3-.1-.5.7-.2 1.5-.2 2.2-.3-.1-.1-.2-.2-.3-.2l-1.2-.9c-.6-.5-1-1.1-1.3-1.8-.2-.4-.3-.8-.3-1.2v-.9c.3.1.5.2.7.3.7.3 1.4.5 2 .8.5.2 1.1.5 1.6.7l2.1.9c.4.2.7.3 1 .5.6.3 1.2.6 1.9.9.5.3 1 .5 1.4.8.4.2.7.5 1.1.8.4.3.7.7 1.1 1l.3.3c.1-.3.2-.5.3-.8.3-.6.5-1.3.8-1.9.2-.5.5-1.1.8-1.6.5-.9 1-1.8 1.6-2.6l1.2-1.5c.4-.5 1-.9 1.5-1.3h.2c0 .1-.1.3-.1.4 0 .2 0 .4-.1.6.9-.6 1.8-1.1 2.9-1.3 0 .3-.1.5-.3.7-.2.2-.4.3-.6.5.2-.1.4-.1.6-.2.5-.2 1.1-.3 1.7-.3.1 0 .3 0 .4.1.2.1.2.4 0 .6-.2.3-.5.4-.9.5-.7.3-1.5.5-2.2.7.1 0 .4 0 .6.1l1.5.3c.5.1 1.1.3 1.6.6s1 .6 1.4 1c.2.2.5.4.7.6.5.5.9 1.1 1.3 1.7.4.7.8 1.5 1.1 2.3.1.4.2.7.3 1.1l.1.1c.4.1.8.2 1.2.2.4 0 .8.1 1.2.1.7 0 1.4-.1 2.1-.4-.1.2-.2.4-.3.5-.4.6-1 .9-1.6 1.2-.5.2-1.1.3-1.6.4-.2 0-.4 0-.7.1.2.1.5.2.7.2.2.1.5.1.7.2.2 0 .5.1.7.1h1.4c.2 0 .5 0 .8-.1-.6.7-1.3 1.2-2.2 1.4-.8.3-1.7.4-2.6.3-.1.4-.3.9-.4 1.3-.3.8-.6 1.6-1 2.4-.4.8-.9 1.6-1.5 2.3-.2.3-.5.6-.7.9-.3.3-.6.7-.9.9-.5.5-1.1.9-1.6 1.4-.7.6-1.6 1-2.4 1.5-.8.4-1.7.8-2.6 1.1-.9.3-1.9.6-2.8.8-.7.1-1.3.3-2 .4-.5.1-1.1.2-1.6.2-.3 0-.7.1-1 .1H34c-.4 0-.9 0-1.3-.1-1.2-.1-2.4-.3-3.5-.6-.7-.2-1.4-.5-2.1-.7-.6-.2-1.1-.5-1.7-.8l-1.5-.9c-.6-.4-1.2-.8-1.8-1.3-.7-.6-1.4-1.2-2-1.8-.4-.6-.8-1.1-1.2-1.6z"/><path fill="#f03" d="M38.8 77.6C17.4 77.6 0 60.2 0 38.8S17.4 0 38.8 0s38.8 17.4 38.8 38.8-17.4 38.8-38.8 38.8zm0-76.6C18 1 1 18 1 38.8c0 20.8 17 37.8 37.8 37.8 20.8 0 37.8-17 37.8-37.8C76.6 18 59.7 1 38.8 1z"/></g></svg>