<svg xmlns="http://www.w3.org/2000/svg" viewBox="0 0 77.6 77.6" enable-background="new 0 0 77.6 77.6"><g><path fill="#E62127" d="M20.1 32.6c1.1-1.1 2.2-2.3 3.5-3.3 2-1.6 3.9-3.2 6.1-4.4 2.8-1.5 4.8-.7 5.7 2.3.9 2.8 1.3 5.8 2 8.6.6 2.4 1.2 4.8 2 7.1.7 1.9 1.6 2.1 2.7.5 1.5-2.1 2.8-4.4 4.2-6.6.2-.3.2-.7.3-1.1.3-1.3.2-2.5-.9-3.4-1-.8-2.1-.6-3.2-.2-.2.1-.5.2-.9.3.1-.4.1-.7.2-1 1.1-4.1 5.1-7.3 9.4-7.6 4.1-.3 6.9 2.6 6.2 6.7-.5 2.7-1.2 5.4-2.4 7.8-3.3 6.9-8.4 12.4-14.5 16.9-2.2 1.6-4.4 1.6-6.3-.4-1.2-1.3-2.2-2.9-2.8-4.6-1.6-4.4-2.9-8.9-4.3-13.3-.3-.9-.7-1.8-1-2.7-.4-1.1-1.2-1.4-2.2-1-.8.3-1.6.8-2.3 1.2-.6-.5-1.1-1-1.6-1.5.1.1.1-.1.1-.3z"/><circle fill="none" stroke="#f03" stroke-miterlimit="10" cx="38.8" cy="38.8" r="38.3"/></g></svg>