<?xml version="1.0" encoding="utf-8"?>
<!-- Generator: Adobe Illustrator 17.1.0, SVG Export Plug-In . SVG Version: 6.00 Build 0)  -->
<!DOCTYPE svg PUBLIC "-//W3C//DTD SVG 1.1//EN" "http://www.w3.org/Graphics/SVG/1.1/DTD/svg11.dtd">
<svg version="1.1" id="Layer_1" xmlns="http://www.w3.org/2000/svg" xmlns:xlink="http://www.w3.org/1999/xlink" x="0px" y="0px"
	 viewBox="0 0 159.8 156" enable-background="new 0 0 159.8 156" xml:space="preserve">
<path fill="#FFFFFF" d="M153.1,141L104,92c6.5-9,10.3-20,10.3-31.9c0-30.2-24.5-54.7-54.7-54.7C29.3,5.3,4.8,29.8,4.8,60
	c0,30.2,24.5,54.7,54.7,54.7c12.4,0,23.9-4.1,33.1-11.1l48.9,48.9c2.4,2.4,6.4,2.4,8.8,0l2.7-2.7C155.5,147.4,155.5,143.5,153.1,141
	z M93.1,81.1c-2.9,4.6-6.8,8.6-11.3,11.7c-6.3,4.3-14,6.8-22.3,6.8C37.7,99.7,20,81.9,20,60c0-21.9,17.7-39.6,39.6-39.6
	c21.9,0,39.6,17.7,39.6,39.6C99.2,67.8,97,75,93.1,81.1z"/>
</svg>
