<?xml version="1.0" encoding="utf-8"?>
<!-- Generator: Adobe Illustrator 17.1.0, SVG Export Plug-In . SVG Version: 6.00 Build 0)  -->
<!DOCTYPE svg PUBLIC "-//W3C//DTD SVG 1.1//EN" "http://www.w3.org/Graphics/SVG/1.1/DTD/svg11.dtd">
<svg version="1.1" id="Layer_1" xmlns="http://www.w3.org/2000/svg" xmlns:xlink="http://www.w3.org/1999/xlink" x="0px" y="0px"
	 viewBox="0 0 159.8 99.5" enable-background="new 0 0 159.8 99.5" xml:space="preserve">
<g>
	<path fill="#FFFFFF" d="M106.4,86.2c-1.9,5.3-6.3,7-12.4,4.7c-0.4-0.2-0.9,0-1.1,0.4c-1.4,2.8-3.5,4.8-6.8,5.2
		c-3.2,0.4-6-0.4-8.2-2.6c-0.3-0.3-0.9-0.4-1.2,0c-4.5,3.9-10.9,3.6-15.6-1c-7-6.9-13.8-14-20.7-21c-0.1-0.1-0.2-0.2-0.3-0.3
		c-3.1-3.3-3.7-3.7-7.7-4.1c-0.5,0-0.8-0.4-0.8-0.9V29.7c0-0.5,0.4-0.9,1-0.9c3.7,0.2,6.3-2.4,9.2-4.1c4.5-2.7,8.9-5.5,13.4-8.2
		c1.5-0.9,3.2-1.5,4.8-2.1c0,0,0,0,0,0c0.9-0.3,1.6,0.9,0.8,1.5c-0.9,0.8-1.8,1.6-2.7,2.4c-4.2,4-8.4,8.1-12.7,12.1
		c-2.3,2.2-2.6,4.7-1,7.2c1.4,2.2,3,4.4,4.8,6.3c1.8,1.9,4.2,2.2,6.6,0.8c4-2.3,8-4.6,12-6.9c3.4-2,6.9-4,10.3-6
		c1-0.6,1.6-0.4,2.3,0.4c5.5,6,11.1,12,16.6,18c5.9,6.3,11.9,12.4,17.6,18.7c2.9,3.2,4.2,7.3,3.6,11.6c-0.7,5.1-5.2,7.4-10,5.3
		c-0.3-0.1-0.6-0.3-0.8-0.4C107.2,85.4,106.6,85.7,106.4,86.2z"/>
	<path fill="#FFFFFF" d="M128.3,30v36.3c0,0.6-0.5,1.2-1.1,1.2c0,0,0,0,0,0c-2.4,0-4.8-0.2-7.1,0.1c-2.4,0.2-4.1-0.6-5.7-2.4
		c-5.5-6.1-11.1-12.1-16.7-18.1c-5-5.4-9.9-10.8-14.9-16.1c-2.6-2.7-2.8-2.7-6-0.9c-6,3.5-12,7-18,10.5c-1.3,0.8-2.7,1.4-4,2.1
		c-1.3,0.7-2.4,0.5-3.5-0.4c-2.3-1.8-4-4.1-4.9-6.9c-0.2-0.7,0.1-1.7,0.4-2.5c0.4-0.8,1.2-1.5,1.9-2.2c8.7-8.8,18.1-16.8,27.9-24.4
		c2.5-1.9,4.6-2.2,7.2-0.6c7.9,4.7,15.9,9.3,23.9,13.9c4,2.3,7.9,4.7,11.8,7.1c2.2,1.3,4.4,2.3,7,2c0.3,0,0.5,0,0.8,0
		C127.8,28.9,128.3,29.4,128.3,30z"/>
	<path fill="#FFFFFF" d="M21.8,91.7H7.1c-2.6,0-4.7-2.1-4.7-4.7V19c0-2.6,2.1-4.7,4.7-4.7h14.7c2.6,0,4.7,2.1,4.7,4.7v68
		C26.5,89.6,24.4,91.7,21.8,91.7z"/>
	<path fill="#FFFFFF" d="M152.6,91.7H138c-2.6,0-4.7-2.1-4.7-4.7V19c0-2.6,2.1-4.7,4.7-4.7h14.7c2.6,0,4.7,2.1,4.7,4.7v68
		C157.4,89.6,155.3,91.7,152.6,91.7z"/>
</g>
</svg>
