<?xml version="1.0" encoding="utf-8"?>
<!-- Generator: Adobe Illustrator 17.1.0, SVG Export Plug-In . SVG Version: 6.00 Build 0)  -->
<!DOCTYPE svg PUBLIC "-//W3C//DTD SVG 1.1//EN" "http://www.w3.org/Graphics/SVG/1.1/DTD/svg11.dtd">
<svg version="1.1" id="Layer_1" xmlns="http://www.w3.org/2000/svg" xmlns:xlink="http://www.w3.org/1999/xlink" x="0px" y="0px"
	 viewBox="0 0 159.8 189" enable-background="new 0 0 159.8 189" xml:space="preserve">
<g>
	<g>
		<g>
			<circle fill="#FFFFFF" cx="79.7" cy="31.4" r="29.9"/>
			<path fill="#FFFFFF" d="M109.7,96c0,16.5-13.4,91.2-29.9,91.2S49.8,112.5,49.8,96s13.4-29.9,29.9-29.9S109.7,79.5,109.7,96z"/>
		</g>
		<path fill="#FFFFFF" d="M79.7,17.1c-42.2,0-76.5,34.2-76.5,76.5c0,42.2,34.2,76.5,76.5,76.5c42.2,0,76.5-34.2,76.5-76.5
			C156.2,51.4,122,17.1,79.7,17.1z M79.7,163.4c-38.5,0-69.7-31.2-69.7-69.7c0-38.5,31.2-69.7,69.7-69.7c38.5,0,69.7,31.2,69.7,69.7
			C149.5,132.1,118.2,163.4,79.7,163.4z"/>
	</g>
</g>
</svg>
