<?xml version="1.0" encoding="utf-8"?>
<!-- Generator: Adobe Illustrator 17.1.0, SVG Export Plug-In . SVG Version: 6.00 Build 0)  -->
<!DOCTYPE svg PUBLIC "-//W3C//DTD SVG 1.1//EN" "http://www.w3.org/Graphics/SVG/1.1/DTD/svg11.dtd">
<svg version="1.1" id="Layer_1" xmlns="http://www.w3.org/2000/svg" xmlns:xlink="http://www.w3.org/1999/xlink" x="0px" y="0px"
	 viewBox="0 0 464.2 297.6" enable-background="new 0 0 464.2 297.6" xml:space="preserve">
<g>
	<g>
		<rect x="0" y="0" fill="#FFFFFF" width="464.2" height="297.6"/>
	</g>
	<g>
		<g>
			<path fill="#262729" d="M286.6,99.3h9.8v36.7h21.6v8.3h-31.4V99.3z"/>
			<path fill="#262729" d="M322.6,129.1v-14c0-10.8,8.5-16.6,18.4-16.6c8.6,0,17.7,4.6,17.7,14.8v1.8h-9.3v-0.9
				c0-5.2-4.6-7.4-8.4-7.4c-4.1,0-8.7,2.2-8.7,7.9v14c0,5,4,7.9,8.9,7.9c3.8,0,8.1-2.1,8.1-7.4v-0.8h9.3v1.8
				c0,10.2-8.8,14.8-17.4,14.8C331.4,144.9,322.6,139.7,322.6,129.1z"/>
			<path fill="#262729" d="M365.7,99.3h9.8v44.9h-9.8V99.3z"/>
		</g>
		<path fill="#262729" d="M286.9,170.9h12c5.4,0,8.9,2.6,8.9,7.8c0,3.3-1.9,6.1-5.4,7.1v0c4.2,0.7,6.4,3.9,6.4,7.6
			c0,5.9-4.6,8.7-9.5,8.7h-12.4V170.9z M298,184.7c3.5,0,6.4-1.8,6.4-5.5c0-3.7-2.7-5.3-6.2-5.3h-7.7v10.7H298z M298.6,199.2
			c3.8,0,6.7-1.9,6.7-5.9c0-3.9-2.9-5.7-6.7-5.7h-8v11.5H298.6z"/>
		<path fill="#262729" d="M312.9,194.3v-5.7c0-5.8,4.2-8.8,9.2-8.8c5.4,0,9.2,3.2,9.2,8.8v5.4c0,5.7-4.1,8.9-9.1,8.9
			C316.8,202.8,312.9,199.8,312.9,194.3z M328,194.1v-5.8c0-3.3-2-5.7-5.9-5.7c-3.6,0-5.9,2.1-5.9,5.9v5.8c0,3.5,2.1,5.8,6,5.8
			C325.8,200,328,198,328,194.1z"/>
		<path fill="#262729" d="M335.9,207l3-1.3c1.3,1.9,3.1,2.8,5.3,2.8c3.8,0,6.2-2.5,6.2-6.4V198c-1.5,2.8-4.2,4-6.8,4c-5,0-8-3-8-7.8
			v-6c0-5.7,4-8.5,8.1-8.5c2.5,0,5.6,1.3,6.7,4.1v-3.6h3.2v21.5c0,5.1-3.2,9.4-9.6,9.4C340.6,211.2,337.4,209.8,335.9,207z
			 M350.3,192.9v-4.4c0-3.8-3-6-6-6c-2.7,0-5.5,1.6-5.5,5.4v6.2c0,2.9,2.1,5.1,5.6,5.1C347.3,199.3,350.3,197.4,350.3,192.9z"/>
		<path fill="#262729" d="M358.6,194.3v-5.7c0-5.8,4.2-8.8,9.2-8.8c5.4,0,9.2,3.2,9.2,8.8v5.4c0,5.7-4.1,8.9-9.1,8.9
			C362.5,202.8,358.6,199.8,358.6,194.3z M373.7,194.1v-5.8c0-3.3-2-5.7-5.9-5.7c-3.6,0-5.9,2.1-5.9,5.9v5.8c0,3.5,2.1,5.8,6,5.8
			C371.5,200,373.7,198,373.7,194.1z"/>
		<path fill="#262729" d="M383.7,197.6v-14.7h-3.8v-2.6h3.8v-6.9h3.2v6.9h6.1v2.6h-6.1v13.9c0,2.2,1.1,2.8,3.1,2.8
			c1.1,0,2.1-0.2,3.2-0.4v2.8c-1.4,0.4-3.2,0.6-4.1,0.6C386.3,202.6,383.7,201.4,383.7,197.6z"/>
		<path fill="#262729" d="M396.1,196.3c0-4.8,4.3-6.6,8.2-6.6h6.3v-3.1c0-3.2-2.1-4.3-5.3-4.3c-2.6,0-5.2,0.9-5.2,3.4v0.7h-3v-0.7
			c0-4.5,4.2-6.1,8.3-6.1c4.4,0,8.4,1.5,8.4,6.5v10.6c0,1.2,0.2,4.5,0.3,5.3h-3.2c-0.1-0.7-0.2-2.5-0.2-3.1h-0.1
			c-1.8,3-4.5,3.6-7.2,3.6C399.3,202.7,396.1,200.4,396.1,196.3z M406.6,176.7h-2.7l4.2-7h3.8L406.6,176.7z M410.5,194.2v-2.1h-5.7
			c-2.8,0-5.5,0.7-5.5,4c0,2.7,2.3,4,5,4C408.6,200.1,410.5,197.7,410.5,194.2z"/>
		<g>
			<path fill="#F7323F" d="M143,125.1c0,16,12,30,28,30.1h27.9v24.6c0,10.7-8.3,16.8-18.8,19.6c-10.5,2.8-30.8,8.3-30.8,8.3
				s-20.8-5.5-31.3-8.3c-10.5-2.8-18.8-8.9-18.8-19.6V99.1H143C143,99.1,143,123.3,143,125.1z"/>
			<path fill="#00567D" d="M198.9,144.4l0-25.7c0-10.7-8.2-19.3-18.8-19.6l-26.2,0l0,25.7c0,10.7,8.2,19.3,18.8,19.6L198.9,144.4z"
				/>
			<path fill="#00567D" d="M149.4,62.2c-47.8,0-86.6,38.9-86.6,86.6c0,47.8,38.9,86.6,86.6,86.6s86.6-38.9,86.6-86.6
				C236,101,197.2,62.2,149.4,62.2 M149.4,247.5c-54.4,0-98.7-44.3-98.7-98.7c0-54.4,44.3-98.7,98.7-98.7
				c54.4,0,98.7,44.3,98.7,98.7C248.1,203.2,203.8,247.5,149.4,247.5"/>
		</g>
	</g>
</g>
</svg>
