<?xml version="1.0" encoding="utf-8"?>
<!-- Generator: Adobe Illustrator 17.1.0, SVG Export Plug-In . SVG Version: 6.00 Build 0)  -->
<!DOCTYPE svg PUBLIC "-//W3C//DTD SVG 1.1//EN" "http://www.w3.org/Graphics/SVG/1.1/DTD/svg11.dtd">
<svg version="1.1" xmlns="http://www.w3.org/2000/svg" xmlns:xlink="http://www.w3.org/1999/xlink" x="0px" y="0px"
	 viewBox="0 0 600 168.2" enable-background="new 0 0 600 168.2" xml:space="preserve">
<g id="Layer_1">
</g>
<g id="Layer_2">
</g>
<g id="Layer_3">
	<g>
		<g>
			<circle  class="bolaa" fill="#E04C0B" cx="238.1" cy="42.8" r="29.2"/>
			<animate attributeName="opacity" from="1" to="0" dur=".8" repeatCount="indefinite"/>
		</g>
	</g>
	<g>
		<g>
			<path fill="#F4A545" d="M116.5,84.3c-6.6-6.3-16.4-9.8-25-9.8c-21,0-33.8,16-33.8,36.2c0,16.1,9.4,32.8,33.8,32.8
				c7.7,0,14.4-1.7,22.2-7.9v-17.4H88.6v-16.6h42.1v41.4c-9.7,11.1-21.9,17.7-39.1,17.7c-36.9,0-51.9-24.3-51.9-50.1
				c0-27.6,17.3-53.2,51.9-53.2c13.2,0,26.4,5,36.5,15L116.5,84.3z"/>
			<path fill="#F4A545" d="M160.4,89.3l1.3,8c5.3-8.6,12.5-9.8,19.5-9.8c7.2,0,14,2.8,17.8,6.6l-7.7,14.9c-3.5-2.9-6.7-4.5-12.3-4.5
				c-9,0-17.3,4.8-17.3,17.5v36.5h-17.1V89.3H160.4z"/>
			<path fill="#F4A545" d="M260.3,89.3h16.4v69.1h-16.1l-0.8-10.1c-3.9,8.1-14.7,12.1-22.4,12.2c-20.5,0.1-35.6-12.5-35.6-36.7
				c0-23.8,15.8-36.3,36-36.2c9.3,0,18.1,4.3,22,11.2L260.3,89.3z M218.8,123.8c0,13.2,9.1,21,20.5,21c26.9,0,26.9-41.9,0-41.9
				C227.9,102.9,218.8,110.7,218.8,123.8z"/>
			<path fill="#F4A545" d="M306.9,60.4v38.3c4.1-7.2,15.4-11.1,22.7-11.1c20.2,0,35.2,12.3,35.2,36.2c0,22.7-15.3,36.2-35.6,36.2
				c-8.4,0-17-2.8-22.3-11.1l-1.1,9.5h-16v-98H306.9z M308,123.8c0,12.5,9.3,20.3,20.1,20.3c10.9,0,19.6-8.3,19.6-20.3
				c0-12.5-8.7-20.2-19.6-20.2C317.2,103.6,308,111.8,308,123.8z"/>
			<path fill="#F4A545" d="M432.2,89.3h16.4v69.1h-16.1l-0.8-10.1c-3.9,8.1-14.7,12.1-22.4,12.2c-20.5,0.1-35.6-12.5-35.6-36.7
				c0-23.8,15.8-36.3,36-36.2c9.3,0,18.1,4.3,22,11.2L432.2,89.3z M390.7,123.8c0,13.2,9.1,21,20.5,21c26.9,0,26.9-41.9,0-41.9
				C399.8,102.9,390.7,110.7,390.7,123.8z"/>
			<path fill="#F4A545" d="M480.1,60.4v98h-17v-98H480.1z"/>
			<path fill="#F4A545" d="M549.9,89.3h16.4v69.1h-16.1l-0.8-10.1c-3.9,8.1-14.7,12.1-22.4,12.2c-20.5,0.1-35.6-12.5-35.6-36.7
				c0-23.8,15.8-36.3,36-36.2c9.3,0,18.1,4.3,22,11.2L549.9,89.3z M508.4,123.8c0,13.2,9.1,21,20.5,21c26.9,0,26.9-41.9,0-41.9
				C517.5,102.9,508.4,110.7,508.4,123.8z"/>
		</g>
	</g>
</g>
</svg>
