<?xml version="1.0" encoding="utf-8"?>
<!-- Generator: Adobe Illustrator 17.1.0, SVG Export Plug-In . SVG Version: 6.00 Build 0)  -->
<!DOCTYPE svg PUBLIC "-//W3C//DTD SVG 1.1//EN" "http://www.w3.org/Graphics/SVG/1.1/DTD/svg11.dtd">
<svg version="1.1" xmlns="http://www.w3.org/2000/svg" xmlns:xlink="http://www.w3.org/1999/xlink" x="0px" y="0px"
	 viewBox="0 0 77.6 77.6" enable-background="new 0 0 77.6 77.6" xml:space="preserve">
<g id="Capa_1">
</g>
<g id="Capa_2">
</g>
<g id="Capa_3">
	<g>
		<circle fill="#FF0033" cx="38.8" cy="38.8" r="37.9"/>
		<g>
			<path fill="#FF0033" d="M38.8,77.6C17.4,77.6,0,60.2,0,38.8C0,17.4,17.4,0,38.8,0s38.8,17.4,38.8,38.8
				C77.6,60.2,60.2,77.6,38.8,77.6z M38.8,1C18,1,1,18,1,38.8c0,20.8,17,37.8,37.8,37.8c20.8,0,37.8-17,37.8-37.8
				C76.6,18,59.7,1,38.8,1z"/>
		</g>
	</g>
	<g>
		<g>
			<path fill="#FFFFFF" d="M19,51c0-8.1,0-16.1,0-24.2c0.7,0,1.4,0,2.1,0c2.9,0,5.7,0,8.6,0c1.4,0,2.7-0.1,4.1,0
				c2.7,0.2,4.8,2.3,4.9,5c0.1,0.8,0,1.6-0.1,2.4c-0.3,1.6-1.3,2.8-2.8,3.5c-0.1,0-0.2,0.1-0.3,0.2c2.1,0.1,3.2,1.3,3.8,3
				c0.6,1.6,0.8,3.3,0.4,5c-0.6,2.6-2.3,4-4.8,4.7c-0.7,0.2-1.4,0.3-2.1,0.3c-4.4,0-8.8,0-13.2,0C19.3,51,19.2,51,19,51z M24.5,46.8
				c0.1,0,0.2,0,0.3,0c2.1,0,4.3,0,6.4,0.1c1.8,0,2.9-0.9,3.2-2.7c0.3-2.2-1-3.7-3.2-3.7c-2.1,0-4.2,0-6.2,0c-0.1,0-0.3,0-0.4,0
				C24.5,42.6,24.5,44.7,24.5,46.8z M24.4,36.8c0.1,0,0.2,0,0.3,0c1.2,0,2.5,0,3.7,0.1c0.6,0,1.3,0,1.9,0c1.3,0.1,2.7-0.7,2.9-2.5
				c0.2-2.2-1-3.5-3-3.5c-1.8,0-3.6,0-5.3,0c-0.2,0-0.3,0-0.5,0C24.4,32.9,24.4,34.9,24.4,36.8z"/>
		</g>
		<g>
			<path fill="#FFFFFF" d="M45.9,43.5c-0.1,2.7,2.3,4.7,5,4.4c1.1-0.1,2.2-0.5,2.8-1.5c0.3-0.5,0.7-0.6,1.2-0.6c1.1,0,2.2,0,3.3,0
				c0.1,0,0.3,0,0.5,0c0,1.1-0.2,2.1-0.8,3c-0.6,0.9-1.4,1.6-2.4,2c-2,0.9-4.1,1.1-6.2,1c-1.2-0.1-2.4-0.3-3.6-0.9
				c-2.3-1-3.7-2.8-4.4-5.2c-0.7-2.6-0.7-5.2,0.3-7.7c1.1-2.8,3.3-4.4,6.2-5c1.6-0.3,3.1-0.3,4.7,0.1c2.3,0.6,4,1.9,5,4.1
				c0.9,2,1.2,4.1,1,6.3C54.4,43.5,50.1,43.5,45.9,43.5z M46.1,40.2c2.7,0,5.3,0,7.9,0c-0.3-1.6-1.6-3.5-3.8-3.6
				C48.1,36.6,46.3,38.1,46.1,40.2z"/>
		</g>
		<g>
			<path fill="#FFFFFF" d="M55,28.5c0,0.8,0,1.6,0,2.4c-3.3,0-6.7,0-10,0c0-0.8,0-1.6,0-2.4C48.3,28.5,51.6,28.5,55,28.5z"/>
		</g>
	</g>
</g>
<g id="Capa_4">
</g>
</svg>
