<?xml version="1.0" encoding="utf-8"?>
<!-- Generator: Adobe Illustrator 17.1.0, SVG Export Plug-In . SVG Version: 6.00 Build 0)  -->
<!DOCTYPE svg PUBLIC "-//W3C//DTD SVG 1.1//EN" "http://www.w3.org/Graphics/SVG/1.1/DTD/svg11.dtd">
<svg version="1.1" xmlns="http://www.w3.org/2000/svg" xmlns:xlink="http://www.w3.org/1999/xlink" x="0px" y="0px"
	 viewBox="0 0 77.6 77.6" enable-background="new 0 0 77.6 77.6" xml:space="preserve">
<g id="Capa_1">
</g>
<g id="Capa_2">
</g>
<g id="Capa_3">
	<g>
		<g>
			<path fill="#FF0033" d="M38.8,77.6C17.4,77.6,0,60.2,0,38.8S17.4,0,38.8,0s38.8,17.4,38.8,38.8S60.2,77.6,38.8,77.6z M38.8,1
				C18,1,1,18,1,38.8s17,37.8,37.8,37.8c20.8,0,37.8-17,37.8-37.8S59.7,1,38.8,1z"/>
		</g>
		<g>
			<path fill="#FF0033" d="M39.4,32.8c1.6,0,3.1,0,4.5,0c0.8,0,0.9,0.1,0.8,0.9c-0.2,1.5-0.4,3-0.5,4.5c0,0.5-0.2,0.6-0.7,0.6
				c-1.4,0-2.7,0-4.2,0c0,0.3,0,0.6,0,0.9c0,5.3,0,10.7,0,16c0,0.6-0.2,0.8-0.8,0.8c-2.2,0-4.4,0-6.5,0c-0.2,0-0.4,0-0.6,0
				c0-0.3,0-0.6,0-0.8c0-5.3,0-10.6,0-15.9c0-0.9,0-0.9-0.9-0.9c-0.6,0-1.1,0-1.7,0c-0.4,0-0.5-0.2-0.5-0.5c0-1.7,0-3.3,0-5
				c0-0.4,0.2-0.5,0.5-0.5c0.6,0,1.2,0,1.8,0c0.6,0,0.9-0.2,0.8-0.8c0-1.3,0-2.7,0-4.1c0.1-2.1,0.6-4,2.3-5.4c1.2-0.9,2.6-1.4,4-1.4
				c2.3-0.1,4.6-0.1,6.9-0.1c0.4,0,0.6,0.2,0.6,0.6c0,1.6,0,3.2,0,4.8c0,0.6-0.4,0.6-0.8,0.6c-1.1,0-2.3,0-3.4,0
				c-1.1,0-1.7,0.6-1.7,1.7C39.4,30.1,39.4,31.4,39.4,32.8z"/>
		</g>
	</g>
</g>
<g id="Capa_4">
</g>
</svg>
