<?xml version="1.0" encoding="utf-8"?>
<!-- Generator: Adobe Illustrator 17.1.0, SVG Export Plug-In . SVG Version: 6.00 Build 0)  -->
<!DOCTYPE svg PUBLIC "-//W3C//DTD SVG 1.1//EN" "http://www.w3.org/Graphics/SVG/1.1/DTD/svg11.dtd">
<svg version="1.1" xmlns="http://www.w3.org/2000/svg" xmlns:xlink="http://www.w3.org/1999/xlink" x="0px" y="0px"
	 viewBox="0 0 77.6 77.6" enable-background="new 0 0 77.6 77.6" xml:space="preserve">
<g id="Capa_1">
</g>
<g id="Capa_2">
</g>
<g id="Capa_3">
	<g>
		<circle fill="#FF0033" cx="38.8" cy="38.8" r="37.9"/>
		<g>
			<path fill="#FF0033" d="M38.8,77.6C17.4,77.6,0,60.2,0,38.8C0,17.4,17.4,0,38.8,0s38.8,17.4,38.8,38.8
				C77.6,60.2,60.2,77.6,38.8,77.6z M38.8,1C18,1,1,18,1,38.8c0,20.8,17,37.8,37.8,37.8c20.8,0,37.8-17,37.8-37.8
				C76.6,18,59.7,1,38.8,1z"/>
		</g>
	</g>
	<g>
		<g>
			<circle fill="#FFFFFF" cx="29.4" cy="37.9" r="8.5"/>
		</g>
		<g>
			<circle fill="#FFFFFF" cx="48.5" cy="37.9" r="8.5"/>
		</g>
	</g>
</g>
<g id="Capa_4">
</g>
</svg>
