<?xml version="1.0" encoding="utf-8"?>
<!-- Generator: Adobe Illustrator 17.1.0, SVG Export Plug-In . SVG Version: 6.00 Build 0)  -->
<!DOCTYPE svg PUBLIC "-//W3C//DTD SVG 1.1//EN" "http://www.w3.org/Graphics/SVG/1.1/DTD/svg11.dtd">
<svg version="1.1" xmlns="http://www.w3.org/2000/svg" xmlns:xlink="http://www.w3.org/1999/xlink" x="0px" y="0px"
	 viewBox="0 0 605.8 636" enable-background="new 0 0 605.8 636" xml:space="preserve">
<g id="Capa_3">
</g>
<g id="Capa_2">
	<path fill="#FFFFFF" d="M192.1,571.8c-7.9,2.1-39.4,13.8-49.9,17.8c-7.8,3-65.5,20.9-51.2,22.3c15.7,1.5,206.6-1.3,246.1-2.3
		c39.6-1,195.9-3.1,201.6-6.5c5.7-3.5-55.5-34.8-64.3-37.1c-7.8-2-191.3,5-209.9,5.1C245.8,571.2,192.1,571.8,192.1,571.8z"/>
	
		<linearGradient id="SVGID_1_" gradientUnits="userSpaceOnUse" x1="136.0685" y1="587.2424" x2="491.8909" y2="587.2424" gradientTransform="matrix(0.999 4.462723e-02 -4.462723e-02 0.999 26.8826 -13.4206)">
		<stop  offset="0" style="stop-color:#231F20"/>
		<stop  offset="0.1483" style="stop-color:#272324"/>
		<stop  offset="0.2836" style="stop-color:#312E2F"/>
		<stop  offset="0.4139" style="stop-color:#444041"/>
		<stop  offset="0.5411" style="stop-color:#5D5A5B"/>
		<stop  offset="0.6661" style="stop-color:#7E7C7D"/>
		<stop  offset="0.7894" style="stop-color:#A7A5A6"/>
		<stop  offset="0.909" style="stop-color:#D6D5D5"/>
		<stop  offset="1" style="stop-color:#FFFFFF"/>
	</linearGradient>
	<polygon fill="url(#SVGID_1_)" points="135.5,604.4 207.1,574.1 450.5,568.2 492,597.1 	"/>
	<path fill="#939598" d="M88,611.9c0.1-1.3,1.3,9.4,22.7,11.1c21.3,1.7,398.6-7,408.5-9.4c9.9-2.3,22.4-10.6,18.1-10.1
		C529.4,604.5,88,611.9,88,611.9z"/>
	<path fill="#231F20" d="M467.1,612.1c-0.2-3.2-8.9-1.1-19.6-1.1c-10,0-19.6-2.1-19.2,2.3c0.3,4.1,9.2,0.4,19.5,0.8
		C458.1,614.6,467.3,615.7,467.1,612.1z"/>
	
		<ellipse transform="matrix(0.999 4.462723e-02 -4.462723e-02 0.999 27.798 -21.0663)" fill="#231F20" cx="485.7" cy="612.1" rx="3.6" ry="2.2"/>
</g>
<g id="Capa_6">
	<linearGradient id="SVGID_2_" gradientUnits="userSpaceOnUse" x1="299.5364" y1="-3.7935" x2="319.9799" y2="589.0679">
		<stop  offset="0" style="stop-color:#231F20"/>
		<stop  offset="0.2407" style="stop-color:#252223;stop-opacity:0.9576"/>
		<stop  offset="0.3854" style="stop-color:#2E2A2B;stop-opacity:0.9321"/>
		<stop  offset="0.5048" style="stop-color:#3C3839;stop-opacity:0.911"/>
		<stop  offset="0.6103" style="stop-color:#504D4D;stop-opacity:0.8924"/>
		<stop  offset="0.7069" style="stop-color:#696767;stop-opacity:0.8754"/>
		<stop  offset="0.7967" style="stop-color:#898788;stop-opacity:0.8595"/>
		<stop  offset="0.8815" style="stop-color:#AFAEAE;stop-opacity:0.8446"/>
		<stop  offset="0.9601" style="stop-color:#D9D9D9;stop-opacity:0.8307"/>
		<stop  offset="1" style="stop-color:#F2F2F2;stop-opacity:0.8237"/>
	</linearGradient>
	<path opacity="0.8" fill="url(#SVGID_2_)" d="M313.3,570.4L6.5,74.6c0,0,85.5-64.4,247.2-66s344,57.8,344,57.8L313.3,570.4z"/>
</g>
<g id="Capa_5">
	<g>
		
			<image overflow="visible" width="475" height="941" xlink:href="620945D5EB2D8013.png"  transform="matrix(0.24 0 0 0.24 337.4261 -27.8979)">
		</image>
	</g>
	<g>
		
			<image overflow="visible" width="343" height="327" xlink:href="620945D5EB2D8011.png"  transform="matrix(0.24 0 0 0.24 367.0995 134.1923)">
		</image>
	</g>
	<g>
		
			<image overflow="visible" width="343" height="327" xlink:href="620945D5EB2D801E.png"  transform="matrix(0.24 0 0 0.24 367.0783 134.1923)">
		</image>
	</g>
	<g>
		
			<image overflow="visible" width="343" height="327" xlink:href="620945D5EB2D8010.png"  transform="matrix(0.24 0 0 0.24 367.1454 145.9471)">
		</image>
	</g>
	<g>
		
			<image overflow="visible" width="343" height="327" xlink:href="620945D5EB2D800A.png"  transform="matrix(0.24 0 0 0.24 367.3869 188.9424)">
		</image>
	</g>
	<g>
		
			<image overflow="visible" width="343" height="327" xlink:href="620945D5EB2D800B.png"  transform="matrix(0.24 0 0 0.24 367.454 200.7062)">
		</image>
	</g>
	<g>
		
			<image overflow="visible" width="343" height="327" xlink:href="620945D5EB2D800C.png"  transform="matrix(0.24 0 0 0.24 354.9068 179.9354)">
		</image>
	</g>
	<g>
		
			<image overflow="visible" width="343" height="327" xlink:href="620945D5EB2D800D.png"  transform="matrix(0.24 0 0 0.24 354.9735 191.691)">
		</image>
	</g>
	<g>
		
			<image overflow="visible" width="343" height="327" xlink:href="620945D5EB2D800E.png"  transform="matrix(0.24 0 0 0.24 355.0943 213.1904)">
		</image>
	</g>
	<g>
		
			<image overflow="visible" width="343" height="327" xlink:href="2B5717EAFD938355.png"  transform="matrix(0.24 0 0 0.24 354.6523 134.5757)">
		</image>
	</g>
	<g>
		
			<image overflow="visible" width="343" height="327" xlink:href="2B5717EAFD938352.png"  transform="matrix(0.24 0 0 0.24 354.7839 158.0948)">
		</image>
	</g>
	<g>
		
			<image overflow="visible" width="343" height="327" xlink:href="2B5717EAFD93836E.png"  transform="matrix(0.24 0 0 0.24 354.8398 167.8351)">
		</image>
	</g>
	<g>
		
			<image overflow="visible" width="343" height="327" xlink:href="2B5717EAFD938371.png"  transform="matrix(0.24 0 0 0.24 355.1508 222.9308)">
		</image>
	</g>
	<g>
		
			<image overflow="visible" width="343" height="327" xlink:href="2B5717EAFD938370.png"  transform="matrix(0.24 0 0 0.24 339.1832 191.5523)">
		</image>
	</g>
	<g>
		
			<image overflow="visible" width="343" height="327" xlink:href="2B5717EAFD938376.png"  transform="matrix(0.24 0 0 0.24 339.25 203.3079)">
		</image>
	</g>
	<g>
		
			<image overflow="visible" width="343" height="327" xlink:href="2B5717EAFD93837C.png"  transform="matrix(0.24 0 0 0.24 339.3064 213.0526)">
		</image>
	</g>
	<g>
		
			<image overflow="visible" width="511" height="515" xlink:href="2B5717EAFD93837D.png"  transform="matrix(0.24 0 0 0.24 49.9523 81.7374)">
		</image>
	</g>
	<g>
		
			<image overflow="visible" width="514" height="515" xlink:href="2B5717EAFD93837E.png"  transform="matrix(0.24 0 0 0.24 107.8336 81.4245)">
		</image>
	</g>
	<g>
		
			<image overflow="visible" width="483" height="511" xlink:href="2B5717EAFD93837F.png"  transform="matrix(0.24 0 0 0.24 167.9133 81.0772)">
		</image>
	</g>
	<g>
		
			<image overflow="visible" width="511" height="515" xlink:href="2B5717EAFD93839B.png"  transform="matrix(0.24 0 0 0.24 219.9644 80.7789)">
		</image>
	</g>
	<g>
		
			<image overflow="visible" width="515" height="515" xlink:href="2B5717EAFD93839C.png"  transform="matrix(0.24 0 0 0.24 277.8521 80.4665)">
		</image>
	</g>
	<g>
		
			<image overflow="visible" width="512" height="690" xlink:href="2B5717EAFD93839D.png"  transform="matrix(0.24 0 0 0.24 337.9439 80.115)">
		</image>
	</g>
	<g>
		
			<image overflow="visible" width="411" height="579" xlink:href="2B5717EAFD93839A.png"  transform="matrix(0.24 0 0 0.24 393.5153 63.3523)">
		</image>
	</g>
	<g>
		
			<image overflow="visible" width="512" height="759" xlink:href="2B5717EAFD938399.png"  transform="matrix(0.24 0 0 0.24 328.5442 -27.7935)">
		</image>
	</g>
	<g>
		
			<image overflow="visible" width="612" height="511" xlink:href="2B5717EAFD9383A8.png"  transform="matrix(0.24 0 0 0.24 187.7341 30.9597)">
		</image>
	</g>
	<g>
		
			<image overflow="visible" width="514" height="515" xlink:href="2B5717EAFD9383A9.png"  transform="matrix(0.24 0 0 0.24 270.7812 30.6747)">
		</image>
	</g>
	<g>
		
			<image overflow="visible" width="368" height="587" xlink:href="2B5717EAFD9383AA.png"  transform="matrix(0.24 0 0 0.24 387.981 11.6159)">
		</image>
	</g>
	<g>
		
			<image overflow="visible" width="513" height="515" xlink:href="2B5717EAFD9383AB.png"  transform="matrix(0.24 0 0 0.24 410.5439 29.9024)">
		</image>
	</g>
	<g>
		
			<image overflow="visible" width="486" height="514" xlink:href="2B5717EAFD9383AD.png"  transform="matrix(0.24 0 0 0.24 421.5184 79.9104)">
		</image>
	</g>
	<g>
		<g>
			<path fill="none" stroke="#FFFFFF" d="M406.8,13.9l9.3-0.1l0,5.4l-9.3,0.1L406.8,13.9z M406.9,25.9l9.3-0.1l0,5.4l-9.3,0.1
				L406.9,25.9z M406.9,37.8l9.3-0.1l0,5.4l-9.3,0.1L406.9,37.8z M406.9,49.8l9.3-0.1l0,5.4l-9.3,0.1L406.9,49.8z M407,66.7l0-5
				l0-0.4l9.3-0.1l0,0.4l0,5l0,0.4l-9.3,0.1L407,66.7z M407,73.3l9.3-0.1l0,5.4l-9.3,0.1L407,73.3z M407,85.3l9.3-0.1l0,5.4
				l-9.3,0.1L407,85.3z M407.1,97.2l9.3-0.1l0,5.4l-9.3,0.1L407.1,97.2z M407.1,114.2l0-5l0-0.4l9.3-0.1l0,0.4l0,5l0,0.4l-9.3,0
				L407.1,114.2z M378.1,14l9.3-0.1l0,5.4l-9.3,0.1L378.1,14z M378.1,26l9.3-0.1l0,5.4l-9.3,0.1L378.1,26z M378.2,38l9.3-0.1l0,5.4
				l-9.3,0.1L378.2,38z M378.2,50l9.3-0.1l0,5.4l-9.3,0.1L378.2,50z M378.3,66.9l0-5l0-0.4l9.3-0.1l0,0.4l0,5l0,0.4l-9.3,0.1
				L378.3,66.9z M418,123.8L418,123.8l0-4.7L417.6,9.9V9.7L376.5,10l0.2,64.2 M376.8,115.5l0.2,49.3h0.2l12.2-0.1h0.4c0,0,0,0,0,0"
				/>
		</g>
	</g>
	<g>
		<g>
			<polygon fill="none" stroke="#FFFFFF" points="415.9,179.7 406.6,179.7 406.6,174.3 415.9,174.3 			"/>
		</g>
	</g>
	<g>
		<g>
			
				<rect x="406.6" y="174.3" transform="matrix(-1 5.698324e-03 -5.698324e-03 -1 823.5223 351.6689)" fill="none" stroke="#FFFFFF" width="9.3" height="5.4"/>
		</g>
	</g>
	<g>
		<g>
			
				<rect x="406.7" y="186.2" transform="matrix(-1 5.698563e-03 -5.698563e-03 -1 823.7261 375.5326)" fill="none" stroke="#FFFFFF" width="9.3" height="5.4"/>
		</g>
	</g>
	<g>
		<g>
			
				<rect x="406.9" y="229.9" transform="matrix(-1 5.699039e-03 -5.699039e-03 -1 824.4659 462.8236)" fill="none" stroke="#FFFFFF" width="9.3" height="5.4"/>
		</g>
	</g>
	<g>
		<g>
			
				<rect x="407" y="241.8" transform="matrix(-1 5.693317e-03 -5.693317e-03 -1 824.6681 486.6986)" fill="none" stroke="#FFFFFF" width="9.3" height="5.4"/>
		</g>
	</g>
	<g>
		<g>
			
				<rect x="394.3" y="220.7" transform="matrix(-1 5.605104e-03 -5.605104e-03 -1 799.05 444.6401)" fill="none" stroke="#FFFFFF" width="9.3" height="5.4"/>
		</g>
	</g>
	<g>
		<g>
			
				<rect x="394.3" y="232.7" transform="matrix(-1 5.702854e-03 -5.702854e-03 -1 799.2754 468.4702)" fill="none" stroke="#FFFFFF" width="9.3" height="5.4"/>
		</g>
	</g>
	<g>
		<g>
			
				<rect x="394.5" y="254.5" transform="matrix(-1 5.644204e-03 -5.644204e-03 -1 799.6305 512.1344)" fill="none" stroke="#FFFFFF" width="9.3" height="5.4"/>
		</g>
	</g>
	<g>
		<g>
			
				<rect x="394" y="174.7" transform="matrix(-1 5.572441e-03 -5.572441e-03 -1 798.2691 352.5786)" fill="none" stroke="#FFFFFF" width="9.3" height="5.4"/>
		</g>
	</g>
	<g>
		<g>
			
				<rect x="394.1" y="198.6" transform="matrix(-1 5.637528e-03 -5.637528e-03 -1 798.6827 400.2894)" fill="none" stroke="#FFFFFF" width="9.3" height="5.4"/>
		</g>
	</g>
	<g>
		<g>
			
				<rect x="394.2" y="208.5" transform="matrix(-1 5.637290e-03 -5.637290e-03 -1 798.8524 420.0714)" fill="none" stroke="#FFFFFF" width="9.3" height="5.4"/>
		</g>
	</g>
	<g>
		<g>
			
				<rect x="394.5" y="264.4" transform="matrix(-1 5.637528e-03 -5.637528e-03 -1 799.7937 531.9191)" fill="none" stroke="#FFFFFF" width="9.3" height="5.4"/>
		</g>
	</g>
	<g>
		<g>
			
				<rect x="378.3" y="232.5" transform="matrix(-1 5.668761e-03 -5.668761e-03 -1 767.2132 468.2892)" fill="none" stroke="#FFFFFF" width="9.3" height="5.4"/>
		</g>
	</g>
	<g>
		<g>
			
				<rect x="378.4" y="244.5" transform="matrix(-1 5.609872e-03 -5.609872e-03 -1 767.4024 492.176)" fill="none" stroke="#FFFFFF" width="9.3" height="5.4"/>
		</g>
	</g>
	<g>
		<g>
			
				<rect x="378.4" y="254.4" transform="matrix(-1 5.675198e-03 -5.675198e-03 -1 767.5837 511.9328)" fill="none" stroke="#FFFFFF" width="9.3" height="5.4"/>
		</g>
	</g>
	<g>
		<g>
			<path fill="none" stroke="#FFFFFF" stroke-miterlimit="10" d="M134.6,132l-10.1,5.7c-1.9-2-3.8-3.4-5.7-4.2
				c-1.9-0.8-4.1-1.2-6.6-1.1c-4.6,0-8.3,1.4-11.1,4.2c-2.8,2.8-4.2,6.3-4.2,10.5c0,4.2,1.4,7.5,4.1,10.2c2.7,2.6,6.3,3.9,10.7,3.9
				c5.5,0,9.7-1.9,12.7-5.7l9.7,6.5c-5.2,6.8-12.5,10.2-22.1,10.3c-8.6,0-15.3-2.4-20.2-7.5c-4.9-5-7.3-11-7.4-17.8
				c0-4.7,1.1-9.1,3.5-13.1c2.3-4,5.6-7.1,9.8-9.4c4.2-2.3,8.9-3.5,14.1-3.5c4.8,0,9.2,0.9,13,2.8C129,125.8,132.2,128.5,134.6,132z
				"/>
		</g>
	</g>
	<g>
		<g>
			<path fill="none" stroke="#FFFFFF" stroke-miterlimit="10" d="M168.5,120.7c4.6,0,8.9,1.1,13,3.4c4.1,2.3,7.2,5.4,9.5,9.3
				c2.3,3.9,3.4,8.2,3.5,12.8c0,4.6-1.1,8.9-3.3,12.9c-2.3,4-5.4,7.2-9.3,9.4c-3.9,2.3-8.3,3.4-13,3.5c-7,0-13-2.4-17.9-7.4
				c-5-4.9-7.5-11-7.5-18.1c0-7.6,2.7-14,8.3-19.1C156.6,123,162.2,120.7,168.5,120.7z M168.8,132.2c-3.8,0-6.9,1.4-9.5,4
				c-2.5,2.7-3.7,6.1-3.7,10.2c0,4.2,1.3,7.7,3.8,10.3c2.5,2.6,5.7,3.9,9.5,3.9c3.8,0,7-1.4,9.5-4.1c2.5-2.7,3.8-6.1,3.7-10.3
				c0-4.2-1.3-7.6-3.8-10.2C175.9,133.5,172.7,132.2,168.8,132.2z"/>
		</g>
	</g>
	<g>
		<g>
			<path fill="none" stroke="#FFFFFF" stroke-miterlimit="10" d="M204.4,121.8l12.2-0.1l0,5c2.8-2.3,5.3-4,7.5-4.9
				c2.2-0.9,4.5-1.4,6.9-1.4c4.8,0,8.9,1.6,12.3,5c2.8,2.9,4.3,7.1,4.3,12.7l0.2,32.2l-12.2,0.1l-0.1-21.4c0-5.8-0.3-9.7-0.8-11.6
				c-0.5-1.9-1.4-3.4-2.7-4.4c-1.3-1-2.9-1.5-4.8-1.5c-2.5,0-4.6,0.9-6.3,2.5c-1.8,1.7-3,4-3.6,6.9c-0.3,1.5-0.5,4.8-0.5,9.9
				l0.1,19.6l-12.2,0.1L204.4,121.8z"/>
		</g>
	</g>
	<g>
		<g>
			<path fill="none" stroke="#FFFFFF" stroke-miterlimit="10" d="M307.2,131.1l-10.1,5.7c-1.9-2-3.8-3.4-5.7-4.2
				c-1.9-0.8-4.1-1.2-6.6-1.1c-4.6,0-8.3,1.4-11.1,4.2c-2.8,2.8-4.2,6.3-4.2,10.5c0,4.1,1.4,7.5,4.1,10.2c2.7,2.6,6.3,3.9,10.7,3.9
				c5.5,0,9.7-1.9,12.7-5.7l9.7,6.5c-5.2,6.8-12.5,10.2-22.1,10.3c-8.6,0-15.3-2.5-20.2-7.5c-4.9-5-7.3-11-7.4-17.8
				c0-4.7,1.1-9.1,3.5-13.1c2.3-4,5.6-7.1,9.8-9.4c4.2-2.3,8.9-3.5,14.1-3.5c4.8,0,9.2,0.9,13,2.8
				C301.6,124.8,304.7,127.5,307.2,131.1z"/>
		</g>
	</g>
	<g>
		<g>
			<path fill="none" stroke="#FFFFFF" stroke-miterlimit="10" d="M367.2,148.6l-39.3,0.2c0.6,3.5,2.1,6.3,4.6,8.3
				c2.5,2.1,5.6,3.1,9.4,3c4.6,0,8.5-1.7,11.7-4.9l10.3,4.8c-2.5,3.7-5.6,6.4-9.2,8.2c-3.6,1.8-7.8,2.7-12.7,2.7
				c-7.6,0-13.8-2.3-18.7-7.1c-4.8-4.8-7.2-10.8-7.3-18.1c0-7.4,2.3-13.6,7.1-18.6c4.8-4.9,10.8-7.4,18-7.5c7.7,0,13.9,2.4,18.8,7.2
				c4.8,4.9,7.3,11.3,7.3,19.3L367.2,148.6z M354.9,139.2c-0.8-2.7-2.4-4.9-4.8-6.5c-2.4-1.7-5.2-2.5-8.3-2.5c-3.4,0-6.4,1-9,2.9
				c-1.6,1.2-3.1,3.3-4.5,6.3L354.9,139.2z"/>
		</g>
	</g>
	<g>
		<g>
			<path fill="none" stroke="#FFFFFF" stroke-miterlimit="10" d="M420.9,126.5c-4.5-4.8-9.9-7.2-16.2-7.1c-2.9,0-5.7,0.6-8.2,1.7
				c-2.6,1.1-5,2.8-7.2,5l0-5.3l-12.2,0.1l0.3,92.4l12.2-0.1l-0.1-48.8c2.4,2.3,4.8,3.9,7.2,4.9c2.4,1,5.1,1.5,7.9,1.5
				c6.3,0,11.8-2.5,16.3-7.4c4.6-4.9,6.9-11,6.8-18.2C427.6,137.5,425.4,131.3,420.9,126.5z M387.9,208.3l-9.3,0.1l0-5.4l9.3-0.1
				L387.9,208.3z M387.9,196.4l-9.3,0.1l0-5.4l9.3-0.1L387.9,196.4z M387.8,184.6l-9.3,0.1l0-5.4l9.3-0.1L387.8,184.6z M387.8,172.7
				l-9.3,0.1l0-5.4l9.3-0.1L387.8,172.7z M411.6,155.3c-2.5,2.8-5.7,4.1-9.4,4.2c-3.9,0-7.1-1.3-9.6-4c-2.5-2.7-3.8-6.2-3.8-10.5
				c0-4.3,1.2-7.7,3.8-10.4c2.5-2.7,5.7-4,9.6-4c3.8,0,7,1.3,9.5,4c2.5,2.7,3.8,6.1,3.8,10.3C415.5,149.1,414.2,152.6,411.6,155.3z"
				/>
		</g>
	</g>
	<g>
		<g>
			<path fill="none" stroke="#FFFFFF" stroke-miterlimit="10" d="M441.7,102.4l10.1-0.1l0.1,18l7.2,0l0.1,10.5l-7.2,0l0.2,38.2
				l-12.2,0.1l-0.2-38.2l-6.3,0l-0.1-10.5l6.3,0l0-1.9"/>
		</g>
	</g>
	<g>
		<g>
			<path fill="none" stroke="#FFFFFF" stroke-miterlimit="10" d="M405.6,9.9l0.2,65.9c-2.2-2.2-4.6-3.8-7.2-4.9
				c-2.6-1.1-5.3-1.6-8.3-1.6c-6.4,0-11.8,2.5-16.2,7.3c-4.5,4.8-6.7,11-6.6,18.5c0,7.3,2.3,13.3,7,18.2c4.6,4.9,10.1,7.3,16.4,7.2
				c2.8,0,5.4-0.5,7.8-1.5c2.4-1,4.8-2.7,7.2-4.9l0,5.1l12.2-0.1L417.8,9.9L405.6,9.9z M402.6,105.3c-2.5,2.7-5.7,4.1-9.6,4.1
				c-3.7,0-6.9-1.3-9.5-4c-2.6-2.7-3.8-6.2-3.9-10.4c0-4.2,1.2-7.7,3.7-10.4c2.5-2.7,5.7-4.1,9.4-4.1c3.9,0,7.1,1.3,9.7,3.9
				c2.5,2.6,3.8,6.1,3.8,10.3C406.4,99.1,405.1,102.6,402.6,105.3z M416.4,67.2l-9.3,0.1l0-5.4l9.3-0.1L416.4,67.2z M416.3,55.3
				l-9.3,0.1l0-5.4l9.3-0.1L416.3,55.3z M416.3,43.3l-9.3,0.1l0-5.4l9.3-0.1L416.3,43.3z M416.3,31.3l-9.3,0.1l0-5.4l9.3-0.1
				L416.3,31.3z M416.2,19.3l-9.3,0.1l0-5.4l9.3-0.1L416.2,19.3z"/>
		</g>
	</g>
	<g>
		<g>
			<path fill="none" stroke="#FFFFFF" stroke-miterlimit="10" d="M224.6,71.1l12.2-0.1l0,5.6c2.1-2.3,4.4-4,6.9-5.2
				c2.6-1.2,5.3-1.7,8.4-1.8c3.1,0,5.8,0.7,8.3,2.2c2.5,1.5,4.4,3.7,6,6.5c1.9-2.9,4.3-5.1,7.1-6.6c2.8-1.5,5.9-2.3,9.2-2.3
				c3.5,0,6.5,0.8,9.2,2.4c2.6,1.6,4.5,3.7,5.7,6.3c1.2,2.6,1.8,6.8,1.8,12.7l0.2,28.6l-12.2,0.1l-0.1-24.7c0-5.5-0.8-9.3-2.2-11.2
				c-1.4-1.9-3.5-2.9-6.3-2.9c-2.1,0-4,0.6-5.7,1.8c-1.7,1.2-2.9,2.9-3.7,5c-0.8,2.1-1.2,5.5-1.2,10.1l0.1,22l-12.2,0.1L256,96
				c0-4.3-0.4-7.5-1-9.5c-0.7-1.9-1.6-3.4-2.9-4.3c-1.3-1-2.9-1.4-4.7-1.4c-2.1,0-3.9,0.6-5.6,1.8c-1.7,1.2-2.9,2.9-3.7,5.1
				c-0.8,2.2-1.2,5.6-1.2,10.3l0.1,21.7l-12.2,0.1L224.6,71.1z"/>
		</g>
	</g>
	<g>
		<g>
			<path fill="none" stroke="#FFFFFF" stroke-miterlimit="10" d="M359.9,98l-39.2,0.2c0.6,3.5,2.1,6.3,4.6,8.3
				c2.5,2.1,5.6,3.1,9.4,3.1c4.6,0,8.5-1.7,11.7-4.9l10.3,4.8c-2.5,3.7-5.6,6.4-9.2,8.2c-3.6,1.8-7.8,2.7-12.7,2.7
				c-7.6,0-13.8-2.3-18.7-7.1c-4.8-4.8-7.3-10.8-7.3-18.1c0-7.4,2.3-13.6,7.1-18.6c4.8-4.9,10.8-7.4,18-7.5c7.7,0,13.9,2.4,18.8,7.2
				c4.8,4.9,7.3,11.3,7.3,19.3L359.9,98z M347.8,88.6c-0.8-2.7-2.4-4.8-4.8-6.5c-2.4-1.7-5.2-2.5-8.3-2.5c-3.4,0-6.4,1-9,2.9
				c-1.6,1.2-3.1,3.3-4.5,6.2L347.8,88.6z"/>
		</g>
	</g>
	<g>
		<g>
			<path fill="none" stroke="#FFFFFF" stroke-miterlimit="10" d="M435.5,49.9c2.1,0,3.9,0.8,5.5,2.3c1.5,1.6,2.3,3.4,2.3,5.6
				c0,2.2-0.7,4.1-2.2,5.6c-1.5,1.5-3.3,2.3-5.4,2.3c-2.2,0-4-0.8-5.5-2.3c-1.5-1.6-2.3-3.5-2.3-5.7c0-2.2,0.7-4,2.2-5.5
				C431.5,50.6,433.3,49.9,435.5,49.9z M429.4,69.9l12.2-0.1l0.3,48.7l-12.2,0.1L429.4,69.9z"/>
		</g>
	</g>
	<g>
		<g>
			<path fill="none" stroke="#FFFFFF" stroke-miterlimit="10" d="M488.9,69.6l12.2-0.1l0.3,48.7l-12.2,0.1l0-5.1
				c-2.4,2.3-4.8,3.9-7.2,4.9c-2.4,1-5,1.5-7.8,1.5c-6.3,0-11.8-2.4-16.4-7.2c-4.6-4.9-7-10.9-7-18.2c0-7.5,2.1-13.7,6.6-18.5
				c4.4-4.8,9.8-7.3,16.2-7.3c2.9,0,5.7,0.5,8.3,1.6c2.6,1.1,5,2.7,7.2,4.9L488.9,69.6z M476.1,79.5c-3.8,0-7,1.4-9.5,4.1
				c-2.5,2.7-3.7,6.2-3.7,10.4c0,4.2,1.3,7.7,3.9,10.4c2.6,2.7,5.7,4.1,9.5,4c3.9,0,7.1-1.4,9.6-4.1c2.5-2.7,3.8-6.3,3.8-10.6
				c0-4.3-1.3-7.7-3.9-10.4C483.2,80.8,480,79.5,476.1,79.5z"/>
		</g>
	</g>
	<g>
		<path fill="none" stroke="#FFFFFF" stroke-miterlimit="10" d="M484.3,170.3c-3.7,0-7-0.3-9.7-1c-2.7-0.6-5-1.6-6.8-2.9
			c-1.8-1.3-3.2-2.9-4.2-4.9c-1-2-1.5-4.3-1.7-6.9h13c0.1,2.5,0.9,4.4,2.4,5.7c1.5,1.3,3.8,2,7.1,2c2.7,0,4.8-0.5,6.3-1.5
			c1.5-1,2.2-2.5,2.2-4.4c0-1-0.2-1.8-0.7-2.4c-0.4-0.6-1.1-1.1-2-1.6c-0.9-0.5-2.1-0.9-3.5-1.3c-1.4-0.4-3.1-0.8-5.1-1.3
			c-2.4-0.6-4.7-1.2-6.9-1.9c-2.2-0.7-4.1-1.6-5.8-2.7c-1.7-1.1-3-2.6-4-4.3c-1-1.7-1.5-4-1.5-6.7c0-2.1,0.5-4.1,1.4-5.9
			c0.9-1.8,2.2-3.4,4-4.7c1.8-1.3,3.9-2.4,6.4-3.1c2.5-0.7,5.5-1.1,8.8-1.1c7,0,12.2,1.2,15.6,3.7c3.4,2.4,5.1,6,5.3,10.6h-12.4
			c-0.1-2-0.8-3.5-2.3-4.6c-1.5-1.1-3.5-1.6-6-1.6c-2.2,0-4,0.4-5.4,1.3c-1.4,0.9-2.1,2.2-2.1,3.9c0,0.9,0.1,1.6,0.4,2.2
			c0.3,0.6,0.8,1.1,1.6,1.5c0.8,0.5,1.9,0.9,3.3,1.3c1.4,0.4,3.3,0.9,5.6,1.4c3.1,0.7,5.8,1.5,8.1,2.2c2.3,0.8,4.3,1.7,5.8,2.9
			c1.6,1.1,2.7,2.6,3.5,4.2c0.8,1.7,1.2,3.8,1.2,6.3c0,2.3-0.4,4.4-1.3,6.3c-0.8,1.9-2.2,3.6-3.9,5c-1.8,1.4-4,2.5-6.8,3.3
			C491.3,169.9,488,170.3,484.3,170.3z"/>
	</g>
</g>
</svg>
