<?xml version="1.0" encoding="utf-8"?>
<!-- Generator: Adobe Illustrator 17.1.0, SVG Export Plug-In . SVG Version: 6.00 Build 0)  -->
<!DOCTYPE svg PUBLIC "-//W3C//DTD SVG 1.1//EN" "http://www.w3.org/Graphics/SVG/1.1/DTD/svg11.dtd">
<svg version="1.1" xmlns="http://www.w3.org/2000/svg" xmlns:xlink="http://www.w3.org/1999/xlink" x="0px" y="0px"
	 viewBox="0 0 77.6 77.6" enable-background="new 0 0 77.6 77.6" xml:space="preserve">
<g id="Capa_1">
</g>
<g id="Capa_2">
</g>
<g id="Capa_3">
	<g>
		<circle fill="#FF0033" cx="38.8" cy="38.8" r="37.9"/>
		<g>
			<path fill="#FF0033" d="M38.8,77.6C17.4,77.6,0,60.2,0,38.8C0,17.4,17.4,0,38.8,0s38.8,17.4,38.8,38.8
				C77.6,60.2,60.2,77.6,38.8,77.6z M38.8,1C18,1,1,18,1,38.8c0,20.8,17,37.8,37.8,37.8c20.8,0,37.8-17,37.8-37.8
				C76.6,18,59.7,1,38.8,1z"/>
		</g>
	</g>
	<g>
		<path fill="#FFFFFF" d="M54.6,29c0,8.8,0,17.6,0,26.4c-0.1,0.2-0.1,0.5-0.2,0.7c-0.3,0.7-0.8,1.2-1.5,1.6c-9.4,0-18.8,0-28.1,0
			c-0.5-0.3-1.1-0.7-1.3-1.3c-0.2-0.3-0.3-0.7-0.4-1c0-8.8,0-17.7,0-26.5c0,0,0,0,0,0c0.5-1.7,1.5-2.5,3.3-2.5c5.6,0,11.3,0,16.9,0
			c2.7,0,5.5,0,8.2,0c1.3,0,2.4,0.7,2.9,1.9C54.5,28.6,54.5,28.8,54.6,29z M48.2,39.9c0.5,1.9,0.4,3.8-0.3,5.7
			c-0.7,1.9-1.8,3.4-3.4,4.6c-1.6,1.2-3.4,1.8-5.3,1.9c-2.6,0.1-5-0.7-6.9-2.5c-2.9-2.6-3.8-5.9-3-9.6c-0.9,0-1.8,0-2.7,0
			c0,0.4,0,0.8,0,1.1c0,4,0,8,0,12c0,1,0.5,1.5,1.4,1.5c7.1,0,14.3,0,21.4,0c1,0,1.4-0.5,1.4-1.5c0-4.3,0-8.5,0-12.8
			c0-0.1,0-0.2,0-0.3C50,39.9,49.1,39.9,48.2,39.9z M38.8,48.3c3.1,0.1,5.9-2.6,6.1-5.8c0.1-3.4-2.5-6.2-5.8-6.3
			c-3.5-0.1-6.3,2.5-6.4,5.9C32.7,45.4,35.3,48.3,38.8,48.3z M44.9,33.2C44.9,33.2,44.9,33.2,44.9,33.2c0,0.5,0,1.1,0,1.6
			c0,0.9,0.5,1.4,1.4,1.4c1.1,0,2.2,0,3.4,0c0.8,0,1.3-0.5,1.3-1.3c0-1,0-2,0-3c0.1-1.2-0.5-1.8-1.7-1.7c-1,0-2,0-3.1,0
			c-0.9,0-1.3,0.5-1.3,1.3C44.9,32,44.9,32.6,44.9,33.2z"/>
	</g>
</g>
<g id="Capa_4">
</g>
</svg>
