<?xml version="1.0" encoding="utf-8"?>
<!-- Generator: Adobe Illustrator 17.1.0, SVG Export Plug-In . SVG Version: 6.00 Build 0)  -->
<!DOCTYPE svg PUBLIC "-//W3C//DTD SVG 1.1//EN" "http://www.w3.org/Graphics/SVG/1.1/DTD/svg11.dtd">
<svg version="1.1" xmlns="http://www.w3.org/2000/svg" xmlns:xlink="http://www.w3.org/1999/xlink" x="0px" y="0px"
	 viewBox="0 0 130.2 131" enable-background="new 0 0 130.2 131" xml:space="preserve">
<g id="Capa_1">
</g>
<g id="Capa_3">
</g>
<g id="Capa_2">
	<g>
		<g>
			<g>
				<circle fill="#FFFFFF" cx="64.8" cy="65.3" r="63.8"/>
				<path d="M64.8,130.1c-35.7,0-64.8-29.1-64.8-64.8S29.1,0.5,64.8,0.5s64.8,29.1,64.8,64.8S100.6,130.1,64.8,130.1z M64.8,2.5
					C30.2,2.5,2.1,30.7,2.1,65.3c0,34.6,28.2,62.8,62.8,62.8s62.8-28.2,62.8-62.8C127.6,30.7,99.5,2.5,64.8,2.5z"/>
			</g>
			<g>
				<circle fill="#F2F2F2" cx="65" cy="64.9" r="60.1"/>
				<path d="M65,126C31.3,126,3.9,98.6,3.9,64.9C3.9,31.2,31.3,3.8,65,3.8s61.1,27.4,61.1,61.1C126.1,98.6,98.7,126,65,126z M65,5.8
					C32.4,5.8,5.9,32.3,5.9,64.9S32.4,124,65,124c32.6,0,59.1-26.5,59.1-59.1S97.6,5.8,65,5.8z"/>
			</g>
			<g>
				<g>
					<path d="M123.7,52.4c-0.4-0.2-0.7-0.4-1-0.5c-11.8-7.6-24.6-11-38.6-10.4c-7.5,0.4-14.6,2.2-20.9,6.5c-1.3,0.9-2.4,1.9-3.9,3
						c0.3-0.7,0.4-1.1,0.6-1.5c3.5-8,9.3-14.2,16.4-19.1c8.2-5.8,17.3-9.3,27.4-10.2c1-0.1,1.7,0.2,2.4,0.9
						c8.9,8.5,14.8,18.7,17.5,30.7C123.7,51.9,123.7,52.1,123.7,52.4z"/>
				</g>
				<g>
					<path d="M59,78.9c-3.6,1.9-7.5,2.9-11.5,3.3c-15.5,1.3-29.2-3-41.3-12.7c-1-0.8-1.4-1.7-1.4-3c-0.2-11.8,2.7-22.8,8.8-32.9
						c0.3-0.5,0.6-0.9,1-1.5c0.8,2.9,1.3,5.6,2.2,8.2c4.6,13.8,12.5,25.2,25,33.1C47,76.7,52.8,78.6,59,78.9z"/>
				</g>
				<g>
					<path d="M32,115.1c14.2-2.7,26.1-8.9,35.8-19.3c5.3-5.8,9.1-12.4,10.5-20.3c0.3-1.5,0.4-3.1,0.6-5c0.3,0.5,0.5,0.9,0.7,1.3
						c2.5,5.8,3.3,11.9,3,18.1c-0.7,12.4-4.8,23.4-12.6,33.1c-1.1,1.4-2.3,1.8-4,1.8c-11.6,0.1-22.4-2.8-32.3-8.8
						C33.1,115.9,32.7,115.6,32,115.1z"/>
				</g>
				<g>
					<path d="M97.2,14.3c-0.8,0.2-1.5,0.3-2.2,0.5c-14.8,3.6-27.1,11.2-36.3,23.5c-4.4,5.8-7.2,12.3-7.5,19.7c0,0.1,0,0.3-0.1,0.4
						c0,0.1-0.1,0.1-0.2,0.2c-1.6-3.3-2.6-6.9-3-10.5c-1.6-15.7,2.6-29.7,12.5-42c0.8-0.9,1.6-1.3,2.8-1.3C75,4.5,86,7.3,96.1,13.4
						c0.3,0.2,0.6,0.4,0.9,0.6C97,14,97.1,14.1,97.2,14.3z"/>
				</g>
				<g>
					<path d="M79.4,59.2c1.7,0.9,3.6,1.6,5.2,2.6c8.5,5,14.5,12.3,19.1,20.9c3.3,6.2,5.4,12.7,6.2,19.7c0.2,1.5-0.1,2.6-1.2,3.8
						c-8.1,8.4-17.8,14.2-29.1,17c-0.5,0.1-0.9,0.2-1.6,0.4c0.3-0.5,0.4-0.7,0.6-1c7-10.7,10.6-22.5,10.6-35.3
						c0-8.6-1.8-16.7-6.8-23.9c-0.9-1.4-2-2.6-3.1-3.9C79.3,59.3,79.4,59.3,79.4,59.2z"/>
				</g>
				<g>
					<path d="M50.6,70.5c-1.7-0.8-3.4-1.6-5-2.5c-8.3-5-14.3-12.2-18.8-20.7c-3.5-6.7-5.7-13.9-6.2-21.5c-0.1-1.2,0.3-1.9,1.1-2.8
						c8-8.2,17.5-13.7,28.6-16.5c0.5-0.1,0.9-0.2,1.6-0.3c-0.3,0.5-0.5,0.9-0.8,1.2c-6.5,10.1-9.9,21.1-10.2,33.1
						c-0.2,7.7,0.9,15.2,4.5,22c1.2,2.3,2.9,4.4,4.4,6.7c0.2,0.3,0.5,0.6,0.8,1C50.7,70.3,50.6,70.4,50.6,70.5z"/>
				</g>
				<g>
					<path d="M6.4,78.2c3.3,1.8,6.5,3.7,9.8,5.2c10,4.6,20.6,6.6,31.6,5.4c8.2-0.8,15.7-3.4,21.9-8.9c0.1-0.1,0.3-0.2,0.6-0.1
						c-0.7,1.4-1.3,2.8-2.1,4.2c-4.5,7.8-11,13.6-18.7,18c-7.5,4.3-15.6,6.8-24.2,7.2c-0.5,0-1.2-0.2-1.6-0.6
						c-8.5-8.1-14.2-17.9-17.1-29.3C6.5,78.9,6.4,78.5,6.4,78.2z"/>
				</g>
				<g>
					<path d="M115.9,96.6c-1.1-3.5-2-7-3.3-10.4c-4.6-11.6-11.7-21.4-22.2-28.6c-6-4.1-11.7-6-18.8-6.7c1-0.4,1.9-0.8,2.9-1.1
						c10.2-3.1,20.4-2.2,30.4,0.8c7.1,2.2,13.5,5.6,19.1,10.4c0.7,0.6,0.9,1.2,1,2.1c0.2,11.4-2.5,22.1-8.2,31.9
						c-0.2,0.4-0.5,0.8-0.8,1.2C116.1,96.5,116,96.6,115.9,96.6z"/>
				</g>
			</g>
		</g>
		<g opacity="0.6">
			<circle fill="#FFFFFF" cx="65.1" cy="65.1" r="65.1"/>
		</g>
		<g>
			<g>
				<g>
					<g>
						<path fill="#EA2D2E" d="M92.5,72.6l-0.1-38.9l-10.5,0.1L82,72.6L92.5,72.6z M89.6,34.7l2.4,0l0,1.4l-2.4,0L89.6,34.7z
							 M89.6,37.7l2.4,0l0,1.4l-2.4,0L89.6,37.7z M89.6,40.8l2.4,0l0,1.4l-2.4,0L89.6,40.8z M89.7,43.8l2.4,0l0,1.4l-2.4,0
							L89.7,43.8z M89.7,48l0-1.2l0-0.1l2.4,0l0,0.1l0,1.2l0,0.1l-2.4,0L89.7,48z M89.7,49.7l2.4,0l0,1.4l-2.4,0L89.7,49.7z
							 M89.7,52.7l2.4,0l0,1.4l-2.4,0L89.7,52.7z M89.7,55.7l2.4,0l0,1.4l-2.4,0L89.7,55.7z M89.7,59.9l0-1.2l0-0.1l2.4,0l0,0.1
							l0,1.2l0,0.1l-2.4,0L89.7,59.9z M82.3,34.8l2.4,0l0,1.4l-2.4,0L82.3,34.8z M82.3,37.8l2.4,0l0,1.4l-2.4,0L82.3,37.8z
							 M82.3,40.8l2.4,0l0,1.4l-2.4,0L82.3,40.8z M82.3,43.8l2.4,0l0,1.4l-2.4,0L82.3,43.8z M82.3,48.1l0-1.2l0-0.1l2.4,0l0,0.1
							l0,1.2l0,0.1l-2.4,0L82.3,48.1z"/>
					</g>
				</g>
			</g>
			<g>
				<g>
					<g>
						<polygon fill="#EA2D2E" points="92,76.4 89.6,76.4 89.6,75 92,75 						"/>
					</g>
				</g>
			</g>
			<g>
				<g>
					<g>
						
							<rect x="89.6" y="75" transform="matrix(-1 5.579832e-03 -5.579832e-03 -1 181.9486 150.9178)" fill="#EA2D2E" width="2.4" height="1.4"/>
					</g>
				</g>
			</g>
			<g>
				<g>
					<g>
						
							<rect x="89.6" y="78" transform="matrix(-1 5.580070e-03 -5.580070e-03 -1 182.0002 156.9114)" fill="#EA2D2E" width="2.4" height="1.4"/>
					</g>
				</g>
			</g>
			<g>
				<g>
					<g>
						
							<rect x="89.7" y="89" transform="matrix(-1 5.580547e-03 -5.580547e-03 -1 182.1874 178.8356)" fill="#EA2D2E" width="2.4" height="1.4"/>
					</g>
				</g>
			</g>
			<g>
				<g>
					<g>
						
							<rect x="89.7" y="92" transform="matrix(-1 5.574825e-03 -5.574825e-03 -1 182.2384 184.8321)" fill="#EA2D2E" width="2.4" height="1.4"/>
					</g>
				</g>
			</g>
			<g>
				<g>
					<g>
						
							<rect x="86.4" y="86.7" transform="matrix(-1 5.488758e-03 -5.488758e-03 -1 175.6663 174.2673)" fill="#EA2D2E" width="2.4" height="1.4"/>
					</g>
				</g>
			</g>
			<g>
				<g>
					<g>
						
							<rect x="86.4" y="89.7" transform="matrix(-1 5.584362e-03 -5.584362e-03 -1 175.7261 180.2539)" fill="#EA2D2E" width="2.4" height="1.4"/>
					</g>
				</g>
			</g>
			<g>
				<g>
					<g>
						
							<rect x="86.5" y="95.2" transform="matrix(-1 5.526904e-03 -5.526904e-03 -1 175.8142 191.2199)" fill="#EA2D2E" width="2.4" height="1.4"/>
					</g>
				</g>
			</g>
			<g>
				<g>
					<g>
						
							<rect x="86.3" y="75.1" transform="matrix(-1 5.456810e-03 -5.456810e-03 -1 175.4678 151.1445)" fill="#EA2D2E" width="2.4" height="1.4"/>
					</g>
				</g>
			</g>
			<g>
				<g>
					<g>
						
							<rect x="86.4" y="81.1" transform="matrix(-1 5.520467e-03 -5.520467e-03 -1 175.5742 163.1285)" fill="#EA2D2E" width="2.4" height="1.4"/>
					</g>
				</g>
			</g>
			<g>
				<g>
					<g>
						
							<rect x="86.4" y="83.6" transform="matrix(-1 5.519990e-03 -5.519990e-03 -1 175.6172 168.097)" fill="#EA2D2E" width="2.4" height="1.4"/>
					</g>
				</g>
			</g>
			<g>
				<g>
					<g>
						
							<rect x="86.5" y="97.7" transform="matrix(-1 5.520228e-03 -5.520228e-03 -1 175.8552 196.1889)" fill="#EA2D2E" width="2.4" height="1.4"/>
					</g>
				</g>
			</g>
			<g>
				<g>
					<g>
						
							<rect x="82.3" y="89.7" transform="matrix(-1 5.550745e-03 -5.550745e-03 -1 167.5014 180.208)" fill="#EA2D2E" width="2.4" height="1.4"/>
					</g>
				</g>
			</g>
			<g>
				<g>
					<g>
						
							<rect x="82.3" y="92.7" transform="matrix(-1 5.493287e-03 -5.493287e-03 -1 167.5476 186.2066)" fill="#EA2D2E" width="2.4" height="1.4"/>
					</g>
				</g>
			</g>
			<g>
				<g>
					<g>
						
							<rect x="82.3" y="95.1" transform="matrix(-1 5.557183e-03 -5.557183e-03 -1 167.5953 191.1697)" fill="#EA2D2E" width="2.4" height="1.4"/>
					</g>
				</g>
			</g>
			<g>
				<g>
					<g>
						<path fill="#0B040C" d="M19.8,64.4l-2.6,1.4c-0.5-0.5-1-0.9-1.5-1c-0.5-0.2-1-0.3-1.7-0.3c-1.2,0-2.1,0.4-2.8,1
							c-0.7,0.7-1.1,1.6-1.1,2.6c0,1,0.4,1.9,1.1,2.6c0.7,0.7,1.6,1,2.8,1c1.4,0,2.5-0.5,3.3-1.4l2.5,1.6c-1.3,1.7-3.2,2.6-5.7,2.6
							c-2.2,0-3.9-0.6-5.2-1.9C7.6,71.4,7,69.9,7,68.2c0-1.2,0.3-2.3,0.9-3.3c0.6-1,1.4-1.8,2.5-2.4c1.1-0.6,2.3-0.9,3.6-0.9
							c1.2,0,2.4,0.2,3.3,0.7C18.4,62.8,19.2,63.5,19.8,64.4z"/>
					</g>
				</g>
			</g>
			<g>
				<g>
					<g>
						<path fill="#0B040C" d="M28.5,61.6c1.2,0,2.3,0.3,3.3,0.8c1,0.6,1.9,1.4,2.4,2.3c0.6,1,0.9,2.1,0.9,3.2c0,1.2-0.3,2.2-0.9,3.2
							c-0.6,1-1.4,1.8-2.4,2.4c-1,0.6-2.1,0.9-3.3,0.9c-1.8,0-3.3-0.6-4.6-1.8c-1.3-1.2-1.9-2.8-1.9-4.5c0-1.9,0.7-3.5,2.1-4.8
							C25.4,62.1,26.9,61.6,28.5,61.6z M28.6,64.5c-1,0-1.8,0.3-2.4,1c-0.6,0.7-1,1.5-1,2.6c0,1.1,0.3,1.9,1,2.6
							c0.6,0.7,1.5,1,2.4,1c1,0,1.8-0.3,2.4-1c0.6-0.7,1-1.5,1-2.6c0-1.1-0.3-1.9-1-2.6C30.4,64.8,29.6,64.5,28.6,64.5z"/>
					</g>
				</g>
			</g>
			<g>
				<g>
					<g>
						<path fill="#0B040C" d="M37.7,61.8l3.1,0l0,1.3c0.7-0.6,1.3-1,1.9-1.2c0.6-0.2,1.2-0.3,1.8-0.4c1.2,0,2.3,0.4,3.2,1.3
							c0.7,0.7,1.1,1.8,1.1,3.2l0,8.1l-3.1,0l0-5.4c0-1.5-0.1-2.4-0.2-2.9c-0.1-0.5-0.4-0.8-0.7-1.1c-0.3-0.2-0.7-0.4-1.2-0.4
							c-0.6,0-1.2,0.2-1.6,0.6c-0.4,0.4-0.8,1-0.9,1.7c-0.1,0.4-0.1,1.2-0.1,2.5l0,4.9l-3.1,0L37.7,61.8z"/>
					</g>
				</g>
			</g>
			<g>
				<g>
					<g>
						<path fill="#0B040C" d="M64.1,64.2l-2.6,1.4c-0.5-0.5-1-0.9-1.5-1c-0.5-0.2-1-0.3-1.7-0.3c-1.2,0-2.1,0.4-2.8,1
							c-0.7,0.7-1.1,1.6-1.1,2.6c0,1,0.4,1.9,1.1,2.6c0.7,0.7,1.6,1,2.8,1c1.4,0,2.5-0.5,3.3-1.4l2.5,1.6c-1.3,1.7-3.2,2.6-5.7,2.6
							c-2.2,0-3.9-0.6-5.2-1.9c-1.3-1.3-1.9-2.8-1.9-4.5c0-1.2,0.3-2.3,0.9-3.3c0.6-1,1.4-1.8,2.5-2.4c1.1-0.6,2.3-0.9,3.6-0.9
							c1.2,0,2.4,0.2,3.3,0.7C62.6,62.6,63.4,63.3,64.1,64.2z"/>
					</g>
				</g>
			</g>
			<g>
				<g>
					<g>
						<path fill="#0B040C" d="M79.5,68.6l-10.1,0.1c0.2,0.9,0.5,1.6,1.2,2.1c0.6,0.5,1.4,0.8,2.4,0.8c1.2,0,2.2-0.4,3-1.2l2.6,1.2
							c-0.7,0.9-1.4,1.6-2.3,2.1c-0.9,0.4-2,0.7-3.3,0.7c-2,0-3.6-0.6-4.8-1.8c-1.2-1.2-1.9-2.7-1.9-4.5c0-1.9,0.6-3.4,1.8-4.7
							c1.2-1.2,2.8-1.9,4.6-1.9c2,0,3.6,0.6,4.8,1.8c1.2,1.2,1.9,2.8,1.9,4.9L79.5,68.6z M76.3,66.2c-0.2-0.7-0.6-1.2-1.2-1.6
							c-0.6-0.4-1.3-0.6-2.1-0.6c-0.9,0-1.7,0.2-2.3,0.7c-0.4,0.3-0.8,0.8-1.1,1.6L76.3,66.2z"/>
					</g>
				</g>
			</g>
			<g>
				<g>
					<g>
						<path fill="#0B040C" d="M93.2,63c-1.1-1.2-2.5-1.8-4.2-1.8c-0.8,0-1.5,0.1-2.1,0.4c-0.7,0.3-1.3,0.7-1.8,1.2l0-1.3l-3.1,0
							l0.1,23.2l3.1,0l0-12.2c0.6,0.6,1.2,1,1.9,1.2c0.6,0.2,1.3,0.4,2,0.4c1.6,0,3-0.6,4.2-1.9c1.2-1.2,1.8-2.8,1.8-4.6
							C95,65.8,94.4,64.2,93.2,63z M84.8,83.6l-2.4,0l0-1.4l2.4,0L84.8,83.6z M84.8,80.6l-2.4,0l0-1.4l2.4,0L84.8,80.6z M84.8,77.6
							l-2.4,0l0-1.4l2.4,0L84.8,77.6z M84.7,74.6l-2.4,0l0-1.4l2.4,0L84.7,74.6z M90.9,70.3c-0.7,0.7-1.5,1-2.4,1
							c-1,0-1.8-0.3-2.5-1c-0.7-0.7-1-1.6-1-2.6c0-1.1,0.3-1.9,1-2.6c0.7-0.7,1.5-1,2.5-1c1,0,1.8,0.3,2.4,1c0.6,0.7,1,1.5,1,2.6
							C91.8,68.7,91.5,69.6,90.9,70.3z"/>
					</g>
				</g>
			</g>
			<g>
				<g>
					<g>
						<path fill="#0B040C" d="M98,57l3.1,0l0,4.5l1.9,0l0,2.6l-1.9,0l0.1,9.6l-3.1,0l-0.1-9.6l-1.6,0l0-2.6l1.6,0L98,57z"/>
					</g>
				</g>
			</g>
			<g>
				<g>
					<g>
						<path fill="#0B040C" d="M89.3,33.7l0.1,16.5c-0.6-0.5-1.2-1-1.8-1.2c-0.7-0.3-1.4-0.4-2.1-0.4c-1.6,0-3,0.6-4.2,1.8
							c-1.1,1.2-1.7,2.8-1.7,4.7c0,1.8,0.6,3.3,1.8,4.6c1.2,1.2,2.6,1.8,4.2,1.8c0.7,0,1.4-0.1,2-0.4c0.6-0.3,1.2-0.7,1.8-1.2l0,1.3
							l3.1,0l-0.1-27.5L89.3,33.7z M88.5,57.7c-0.6,0.7-1.5,1-2.5,1c-1,0-1.8-0.3-2.4-1c-0.7-0.7-1-1.6-1-2.6c0-1.1,0.3-1.9,1-2.6
							c0.6-0.7,1.4-1,2.4-1c1,0,1.8,0.3,2.5,1c0.7,0.7,1,1.5,1,2.6C89.5,56.1,89.2,57,88.5,57.7z M92.1,48.1l-2.4,0l0-1.4l2.4,0
							L92.1,48.1z M92.1,45.1l-2.4,0l0-1.4l2.4,0L92.1,45.1z M92.1,42.1l-2.4,0l0-1.4l2.4,0L92.1,42.1z M92,39.1l-2.4,0l0-1.4l2.4,0
							L92,39.1z M92,36.1l-2.4,0l0-1.4l2.4,0L92,36.1z"/>
					</g>
				</g>
			</g>
			<g>
				<g>
					<g>
						<path fill="#0B040C" d="M42.9,49.1l3.1,0l0,1.4c0.5-0.6,1.1-1,1.8-1.3c0.7-0.3,1.4-0.4,2.1-0.4c0.8,0,1.5,0.2,2.1,0.6
							c0.6,0.4,1.1,0.9,1.5,1.6c0.5-0.7,1.1-1.3,1.8-1.7c0.7-0.4,1.5-0.6,2.4-0.6c0.9,0,1.7,0.2,2.4,0.6c0.7,0.4,1.2,0.9,1.5,1.6
							c0.3,0.7,0.5,1.7,0.5,3.2l0,7.2l-3.1,0l0-6.2c0-1.4-0.2-2.3-0.6-2.8c-0.4-0.5-0.9-0.7-1.6-0.7c-0.5,0-1,0.2-1.5,0.5
							c-0.4,0.3-0.7,0.7-1,1.2c-0.2,0.5-0.3,1.4-0.3,2.5l0,5.5l-3.1,0l0-5.9c0-1.1-0.1-1.9-0.3-2.4c-0.2-0.5-0.4-0.9-0.8-1.1
							c-0.3-0.2-0.7-0.4-1.2-0.4c-0.5,0-1,0.2-1.4,0.5c-0.4,0.3-0.7,0.7-1,1.3c-0.2,0.6-0.3,1.4-0.3,2.6l0,5.4l-3.1,0L42.9,49.1z"/>
					</g>
				</g>
			</g>
			<g>
				<g>
					<g>
						<path fill="#0B040C" d="M77.6,55.9l-10.1,0.1c0.1,0.9,0.5,1.6,1.2,2.1c0.6,0.5,1.4,0.8,2.4,0.8c1.2,0,2.2-0.4,3-1.2l2.6,1.2
							c-0.7,0.9-1.4,1.6-2.3,2.1c-0.9,0.4-2,0.7-3.3,0.7c-2,0-3.6-0.6-4.8-1.8c-1.2-1.2-1.9-2.7-1.9-4.5c0-1.9,0.6-3.4,1.8-4.7
							c1.2-1.2,2.8-1.9,4.6-1.9c2,0,3.6,0.6,4.8,1.8c1.2,1.2,1.9,2.8,1.9,4.8L77.6,55.9z M74.5,53.5c-0.2-0.7-0.6-1.2-1.2-1.6
							c-0.6-0.4-1.3-0.6-2.1-0.6c-0.9,0-1.6,0.2-2.3,0.7c-0.4,0.3-0.8,0.8-1.1,1.6L74.5,53.5z"/>
					</g>
				</g>
			</g>
			<g>
				<g>
					<g>
						<path fill="#0B040C" d="M97,43.8c0.5,0,1,0.2,1.4,0.6c0.4,0.4,0.6,0.9,0.6,1.4c0,0.5-0.2,1-0.6,1.4c-0.4,0.4-0.8,0.6-1.4,0.6
							c-0.6,0-1-0.2-1.4-0.6c-0.4-0.4-0.6-0.9-0.6-1.4c0-0.5,0.2-1,0.6-1.4C96,44,96.4,43.8,97,43.8z M95.4,48.8l3.1,0L98.6,61
							l-3.1,0L95.4,48.8z"/>
					</g>
				</g>
			</g>
			<g>
				<g>
					<g>
						<path fill="#0B040C" d="M110.7,48.7l3.1,0l0.1,12.2l-3.1,0l0-1.3c-0.6,0.6-1.2,1-1.8,1.2c-0.6,0.3-1.3,0.4-2,0.4
							c-1.6,0-3-0.6-4.2-1.8c-1.2-1.2-1.8-2.7-1.8-4.6c0-1.9,0.6-3.4,1.7-4.7c1.1-1.2,2.5-1.8,4.2-1.8c0.8,0,1.5,0.1,2.1,0.4
							c0.7,0.3,1.3,0.7,1.8,1.2L110.7,48.7z M107.4,51.2c-1,0-1.8,0.3-2.4,1c-0.6,0.7-1,1.5-1,2.6c0,1.1,0.3,1.9,1,2.6
							c0.7,0.7,1.5,1,2.4,1c1,0,1.8-0.3,2.5-1c0.6-0.7,1-1.6,1-2.7c0-1.1-0.3-1.9-1-2.6C109.2,51.6,108.4,51.2,107.4,51.2z"/>
					</g>
				</g>
			</g>
			<g>
				<g>
					<path fill="#0B040C" d="M109.5,74c-1,0-1.8-0.1-2.5-0.2c-0.7-0.2-1.3-0.4-1.8-0.7c-0.5-0.3-0.8-0.7-1.1-1.2
						c-0.2-0.5-0.4-1.1-0.4-1.7h3.3c0,0.6,0.2,1.1,0.6,1.4c0.4,0.3,1,0.5,1.8,0.5c0.7,0,1.2-0.1,1.6-0.4c0.4-0.3,0.6-0.6,0.6-1.1
						c0-0.2-0.1-0.4-0.2-0.6c-0.1-0.2-0.3-0.3-0.5-0.4c-0.2-0.1-0.5-0.2-0.9-0.3c-0.4-0.1-0.8-0.2-1.3-0.3c-0.6-0.1-1.2-0.3-1.8-0.5
						c-0.6-0.2-1.1-0.4-1.5-0.7c-0.4-0.3-0.8-0.6-1-1.1c-0.3-0.4-0.4-1-0.4-1.7c0-0.5,0.1-1,0.3-1.5c0.2-0.5,0.6-0.9,1-1.2
						c0.4-0.3,1-0.6,1.7-0.8c0.7-0.2,1.4-0.3,2.3-0.3c1.8,0,3.1,0.3,4,0.9c0.9,0.6,1.3,1.5,1.3,2.7h-3.2c0-0.5-0.2-0.9-0.6-1.2
						c-0.4-0.3-0.9-0.4-1.5-0.4c-0.6,0-1,0.1-1.4,0.3c-0.4,0.2-0.5,0.5-0.5,1c0,0.2,0,0.4,0.1,0.5c0.1,0.1,0.2,0.3,0.4,0.4
						c0.2,0.1,0.5,0.2,0.8,0.3c0.4,0.1,0.8,0.2,1.4,0.4c0.8,0.2,1.5,0.4,2.1,0.6c0.6,0.2,1.1,0.4,1.5,0.7c0.4,0.3,0.7,0.6,0.9,1.1
						c0.2,0.4,0.3,0.9,0.3,1.6c0,0.6-0.1,1.1-0.3,1.6c-0.2,0.5-0.6,0.9-1,1.2c-0.5,0.4-1,0.6-1.7,0.8C111.3,73.9,110.5,74,109.5,74z
						"/>
				</g>
			</g>
		</g>
	</g>
</g>
</svg>
