<?xml version="1.0" encoding="utf-8"?>
<!-- Generator: Adobe Illustrator 17.1.0, SVG Export Plug-In . SVG Version: 6.00 Build 0)  -->
<!DOCTYPE svg PUBLIC "-//W3C//DTD SVG 1.1//EN" "http://www.w3.org/Graphics/SVG/1.1/DTD/svg11.dtd">
<svg version="1.1" id="Capa_1" xmlns="http://www.w3.org/2000/svg" xmlns:xlink="http://www.w3.org/1999/xlink" x="0px" y="0px"
	 viewBox="0 0 45.2 45.2" enable-background="new 0 0 45.2 45.2" xml:space="preserve">
<g>
	<path fill="#FF0033" d="M23.9,17.8c0,0.6,0,1.2,0,1.8c0.5-0.5,1-1,1.6-1.4c2.8-1.8,6.7-0.4,7.7,2.9c0.3,0.8,0.4,1.8,0.4,2.6
		c0.1,2.7,0,5.3,0,8c0,0.1,0,0.2,0,0.3c-1.6,0-3.1,0-4.7,0c0-0.2,0-0.4,0-0.5c0-2.3,0-4.5,0-6.8c0-0.6-0.1-1.2-0.2-1.8
		c-0.2-1-0.9-1.6-1.9-1.7c-1.1-0.1-1.9,0.3-2.4,1.2c-0.2,0.4-0.4,1-0.4,1.5c0,2.5,0,5.1,0,7.6c0,0.2,0,0.3,0,0.5c-1.6,0-3.1,0-4.7,0
		c0-4.7,0-9.4,0-14.2C20.8,17.8,22.3,17.8,23.9,17.8z"/>
</g>
<g>
	<path fill="#FF0033" d="M16.5,17.8c0,4.7,0,9.4,0,14.2c-1.6,0-3.1,0-4.7,0c0-4.7,0-9.4,0-14.2C13.4,17.8,14.9,17.8,16.5,17.8z"/>
</g>
<g>
	<path fill="#FF0033" d="M14.1,15.8c-1,0-1.9-0.4-2.3-1.4c-0.4-0.9-0.3-1.8,0.4-2.6c0.8-1,2.7-1.1,3.7-0.3c1,0.7,1.3,2.2,0.6,3.2
		C16,15.5,15.1,15.8,14.1,15.8z"/>
</g>
<g>
	<path fill="#FF0033" d="M22.6,45.2C10.1,45.2,0,35,0,22.6C0,10.1,10.1,0,22.6,0C35,0,45.2,10.1,45.2,22.6
		C45.2,35,35,45.2,22.6,45.2z M22.6,1C10.7,1,1,10.7,1,22.6c0,11.9,9.7,21.6,21.6,21.6c11.9,0,21.6-9.7,21.6-21.6
		C44.2,10.7,34.5,1,22.6,1z"/>
</g>
</svg>
