<?xml version="1.0" encoding="utf-8"?>
<!-- Generator: Adobe Illustrator 17.1.0, SVG Export Plug-In . SVG Version: 6.00 Build 0)  -->
<!DOCTYPE svg PUBLIC "-//W3C//DTD SVG 1.1//EN" "http://www.w3.org/Graphics/SVG/1.1/DTD/svg11.dtd">
<svg version="1.1" xmlns="http://www.w3.org/2000/svg" xmlns:xlink="http://www.w3.org/1999/xlink" x="0px" y="0px"
	 viewBox="0 0 77.6 77.6" enable-background="new 0 0 77.6 77.6" xml:space="preserve">
<g id="Capa_1">
</g>
<g id="Capa_2">
</g>
<g id="Capa_3">
	<g>
		<g>
			<path fill="#E62127" d="M18.9,45c0.4,0.3,0.9,0.6,1.3,0.9c0.7,0.4,1.4,0.8,2.2,1.1c0.6,0.2,1.2,0.3,1.7,0.5
				c0.4,0.1,0.8,0.1,1.2,0.1c0.2,0,0.5,0,0.7,0c0.9,0,1.7-0.2,2.5-0.4c0.6-0.2,1.3-0.4,1.9-0.7c0.8-0.4,1.5-0.9,2.2-1.4
				c0.3-0.2,0.5-0.4,0.8-0.7c-0.7,0-1.4-0.1-2-0.4c-0.4-0.2-0.7-0.5-0.8-0.9c-0.2-0.5-0.1-0.9,0.2-1.3c0.3-0.4,0.6-0.6,1-0.8
				c0,0,0.1,0,0.1,0c0,0,0,0,0,0c-1,0-2-0.1-2.9-0.6c-0.8-0.4-1.4-1-1.8-1.8c-0.1-0.1,0-0.2,0-0.3c0.5-0.5,1.1-0.7,1.8-0.9
				c0.2,0,0.5-0.1,0.7-0.1c-0.3-0.1-0.6-0.2-0.9-0.3c-0.7-0.3-1.4-0.6-1.9-1.1c-0.7-0.6-1.2-1.3-1.4-2.2c0-0.2-0.1-0.3-0.1-0.5
				c0.7-0.2,1.5-0.2,2.2-0.3c-0.1-0.1-0.2-0.2-0.3-0.2c-0.4-0.3-0.8-0.6-1.2-0.9c-0.6-0.5-1-1.1-1.3-1.8c-0.2-0.4-0.3-0.8-0.3-1.2
				c0-0.3,0-0.5,0-0.9c0.3,0.1,0.5,0.2,0.7,0.3c0.7,0.3,1.4,0.5,2,0.8c0.5,0.2,1.1,0.5,1.6,0.7c0.7,0.3,1.4,0.6,2.1,0.9
				c0.4,0.2,0.7,0.3,1,0.5c0.6,0.3,1.2,0.6,1.9,0.9c0.5,0.3,1,0.5,1.4,0.8c0.4,0.2,0.7,0.5,1.1,0.8c0.4,0.3,0.7,0.7,1.1,1
				c0.1,0.1,0.2,0.2,0.3,0.3c0.1-0.3,0.2-0.5,0.3-0.8c0.3-0.6,0.5-1.3,0.8-1.9c0.2-0.5,0.5-1.1,0.8-1.6c0.5-0.9,1-1.8,1.6-2.6
				c0.4-0.5,0.8-1,1.2-1.5c0.4-0.5,1-0.9,1.5-1.3c0,0,0.1,0,0.2,0c0,0.1-0.1,0.3-0.1,0.4C44,25.8,44,26,43.9,26.2
				c0.9-0.6,1.8-1.1,2.9-1.3c0,0.3-0.1,0.5-0.3,0.7c-0.2,0.2-0.4,0.3-0.6,0.5c0.2-0.1,0.4-0.1,0.6-0.2c0.5-0.2,1.1-0.3,1.7-0.3
				c0.1,0,0.3,0,0.4,0.1c0.2,0.1,0.2,0.4,0,0.6c-0.2,0.3-0.5,0.4-0.9,0.5c-0.7,0.3-1.5,0.5-2.2,0.7c0.1,0,0.4,0,0.6,0.1
				c0.5,0.1,1,0.2,1.5,0.3c0.5,0.1,1.1,0.3,1.6,0.6c0.5,0.3,1,0.6,1.4,1c0.2,0.2,0.5,0.4,0.7,0.6c0.5,0.5,0.9,1.1,1.3,1.7
				c0.4,0.7,0.8,1.5,1.1,2.3c0.1,0.4,0.2,0.7,0.3,1.1c0,0,0.1,0.1,0.1,0.1c0.4,0.1,0.8,0.2,1.2,0.2c0.4,0,0.8,0.1,1.2,0.1
				c0.7,0,1.4-0.1,2.1-0.4c-0.1,0.2-0.2,0.4-0.3,0.5c-0.4,0.6-1,0.9-1.6,1.2c-0.5,0.2-1.1,0.3-1.6,0.4c-0.2,0-0.4,0-0.7,0.1
				c0.2,0.1,0.5,0.2,0.7,0.2c0.2,0.1,0.5,0.1,0.7,0.2c0.2,0,0.5,0.1,0.7,0.1c0.2,0,0.5,0,0.7,0c0.2,0,0.5,0,0.7,0
				c0.2,0,0.5,0,0.8-0.1c-0.6,0.7-1.3,1.2-2.2,1.4c-0.8,0.3-1.7,0.4-2.6,0.3c-0.1,0.4-0.3,0.9-0.4,1.3c-0.3,0.8-0.6,1.6-1,2.4
				c-0.4,0.8-0.9,1.6-1.5,2.3c-0.2,0.3-0.5,0.6-0.7,0.9c-0.3,0.3-0.6,0.7-0.9,0.9c-0.5,0.5-1.1,0.9-1.6,1.4c-0.7,0.6-1.6,1-2.4,1.5
				c-0.8,0.4-1.7,0.8-2.6,1.1c-0.9,0.3-1.9,0.6-2.8,0.8c-0.7,0.1-1.3,0.3-2,0.4c-0.5,0.1-1.1,0.2-1.6,0.2c-0.3,0-0.7,0.1-1,0.1
				c-0.5,0-1,0-1.4,0c-0.4,0-0.9,0-1.3-0.1c-1.2-0.1-2.4-0.3-3.5-0.6c-0.7-0.2-1.4-0.5-2.1-0.7c-0.6-0.2-1.1-0.5-1.7-0.8
				c-0.5-0.3-1-0.6-1.5-0.9c-0.6-0.4-1.2-0.8-1.8-1.3c-0.7-0.6-1.4-1.2-2-1.8C19.7,46,19.3,45.5,18.9,45C18.9,45,18.9,45,18.9,45z"
				/>
		</g>
		<g>
			<path fill="#FF0033" d="M38.8,77.6C17.4,77.6,0,60.2,0,38.8C0,17.4,17.4,0,38.8,0s38.8,17.4,38.8,38.8
				C77.6,60.2,60.2,77.6,38.8,77.6z M38.8,1C18,1,1,18,1,38.8c0,20.8,17,37.8,37.8,37.8c20.8,0,37.8-17,37.8-37.8
				C76.6,18,59.7,1,38.8,1z"/>
		</g>
	</g>
</g>
<g id="Capa_4">
</g>
</svg>
