<?xml version="1.0" encoding="utf-8"?>
<!-- Generator: Adobe Illustrator 17.1.0, SVG Export Plug-In . SVG Version: 6.00 Build 0)  -->
<!DOCTYPE svg PUBLIC "-//W3C//DTD SVG 1.1//EN" "http://www.w3.org/Graphics/SVG/1.1/DTD/svg11.dtd">
<svg version="1.1" xmlns="http://www.w3.org/2000/svg" xmlns:xlink="http://www.w3.org/1999/xlink" x="0px" y="0px"
	 viewBox="0 0 77.6 77.6" enable-background="new 0 0 77.6 77.6" xml:space="preserve">
<g id="Capa_1">
</g>
<g id="Capa_2">
</g>
<g id="Capa_3">
	<g>
		<circle fill="#FF0033" cx="38.8" cy="38.8" r="37.9"/>
		<g>
			<path fill="#FF0033" d="M38.8,77.6C17.4,77.6,0,60.2,0,38.8C0,17.4,17.4,0,38.8,0s38.8,17.4,38.8,38.8
				C77.6,60.2,60.2,77.6,38.8,77.6z M38.8,1C18,1,1,18,1,38.8c0,20.8,17,37.8,37.8,37.8c20.8,0,37.8-17,37.8-37.8
				C76.6,18,59.7,1,38.8,1z"/>
		</g>
	</g>
	<path fill="#FFFFFF" d="M20.1,32.6c1.1-1.1,2.2-2.3,3.5-3.3c2-1.6,3.9-3.2,6.1-4.4c2.8-1.5,4.8-0.7,5.7,2.3c0.9,2.8,1.3,5.8,2,8.6
		c0.6,2.4,1.2,4.8,2,7.1c0.7,1.9,1.6,2.1,2.7,0.5c1.5-2.1,2.8-4.4,4.2-6.6c0.2-0.3,0.2-0.7,0.3-1.1c0.3-1.3,0.2-2.5-0.9-3.4
		c-1-0.8-2.1-0.6-3.2-0.2c-0.2,0.1-0.5,0.2-0.9,0.3c0.1-0.4,0.1-0.7,0.2-1c1.1-4.1,5.1-7.3,9.4-7.6c4.1-0.3,6.9,2.6,6.2,6.7
		c-0.5,2.7-1.2,5.4-2.4,7.8c-3.3,6.9-8.4,12.4-14.5,16.9c-2.2,1.6-4.4,1.6-6.3-0.4c-1.2-1.3-2.2-2.9-2.8-4.6
		c-1.6-4.4-2.9-8.9-4.3-13.3c-0.3-0.9-0.7-1.8-1-2.7c-0.4-1.1-1.2-1.4-2.2-1c-0.8,0.3-1.6,0.8-2.3,1.2c-0.6-0.5-1.1-1-1.6-1.5
		C20.1,33,20.1,32.8,20.1,32.6z"/>
</g>
<g id="Capa_4">
</g>
</svg>
