<svg id="Layer_1" data-name="Layer 1" xmlns="http://www.w3.org/2000/svg" viewBox="0 0 554.58 554.58"><defs><style>.cls-1{fill:#c6c6c6;}.cls-2{opacity:0.95;}.cls-3{fill:#fff;}</style></defs><title>Artboard 1</title><path class="cls-1" d="M277.29,554.58C124.39,554.58,0,430.19,0,277.29S124.39,0,277.29,0,554.58,124.39,554.58,277.29,430.19,554.58,277.29,554.58Zm0-548C128,6.61,6.61,128,6.61,277.29S128,548,277.29,548,548,426.54,548,277.29,426.54,6.61,277.29,6.61Z"/><circle class="cls-1" cx="277.29" cy="277.29" r="241.24"/><g class="cls-2"><path class="cls-3" d="M275.29,298.85c7.07-.13,10.1,4.59,10.1,4.59s6.23,21.38,10.77,32.32c4.1,9.88,22.73,22.39,37,25,23.26,4.27,41.66,1.26,51.26-10.52,8-9.86,27.26-54.49,3.87-66.49-25.59-13.13-71.54-3.54-71.54-3.54S302.31,284,294,287c-4.35,1.58-11.86,1.92-18.7,1.57h-.4c-6.84.36-14.35,0-18.7-1.57-8.33-3-22.73-6.82-22.73-6.82s-46-9.6-71.54,3.54c-23.39,12-4.16,56.64,3.87,66.49,9.6,11.78,28,14.79,51.26,10.52,14.22-2.61,32.85-15.12,37-25,4.55-10.94,10.77-32.32,10.77-32.32s3-4.71,10.1-4.59Z"/><path class="cls-3" d="M351.77,362.81A104,104,0,0,1,333.08,361c-14.3-2.62-33-15.3-37.1-25.12-4.42-10.64-10.5-31.38-10.77-32.31a11.7,11.7,0,0,0-9.64-4.47h-.7a11.76,11.76,0,0,0-9.91,4.47c-.27.93-6.35,21.68-10.77,32.31-4.08,9.82-22.81,22.5-37.1,25.12-24.38,4.47-42.17.81-51.46-10.6-6-7.4-18.19-34.07-14.4-52.16,1.44-6.85,5-11.78,10.59-14.65,25.36-13,71.22-3.65,71.68-3.55.15,0,14.51,3.83,22.75,6.83,3.81,1.38,10.77,2,18.62,1.56h.41c7.87.41,14.82-.17,18.63-1.56,8.25-3,22.6-6.79,22.74-6.82.47-.1,46.34-9.46,71.69,3.55,5.59,2.87,9.16,7.8,10.6,14.65,3.79,18.09-8.38,44.76-14.4,52.16C377.82,358.61,366.65,362.81,351.77,362.81Zm-76.2-64.17a12.07,12.07,0,0,1,10,4.68l0,.05c.06.21,6.28,21.5,10.77,32.3,4,9.72,22.61,22.27,36.8,24.87,24.23,4.44,41.88.83,51.06-10.45,6-7.35,18.08-33.85,14.32-51.82-1.41-6.72-4.9-11.55-10.38-14.36-25.23-12.95-71-3.61-71.41-3.52-.13,0-14.47,3.82-22.7,6.81-3.86,1.4-10.88,2-18.78,1.58h-.39c-7.89.41-14.92-.18-18.77-1.58-8.23-3-22.56-6.77-22.71-6.81-.45-.09-46.17-9.43-71.4,3.52-5.48,2.81-9,7.64-10.38,14.36-3.77,18,8.33,44.46,14.32,51.82,9.18,11.28,26.84,14.9,51.06,10.45,14.19-2.6,32.76-15.16,36.8-24.87,4.49-10.81,10.7-32.09,10.77-32.3l0-.05a12.07,12.07,0,0,1,10-4.68h1Z"/><path class="cls-3" d="M155.63,267.83s13.64-13.89,26-15.15,49.24-2.78,52.27-1.26-5.81,13.13-10.35,13.64S183.4,264,155.63,267.83Z"/><path class="cls-3" d="M155.06,268.11l.42-.43c.14-.14,13.83-14,26.14-15.21,12.53-1.28,49.36-2.75,52.38-1.24.43.22.9.73.68,2-.32,1.79-2,4.65-4.37,7.28-2.49,2.8-5,4.59-6.73,4.79-1.23.14-4.75.12-9.62.11-13.27,0-38-.11-58.3,2.66ZM223.78,251c-12.58,0-33.33,1-42.12,1.9-10.93,1.12-23,12.3-25.44,14.66,20.23-2.69,44.59-2.62,57.75-2.59,4.86,0,8.36,0,9.57-.11,3.55-.39,10.08-8,10.74-11.72.14-.79,0-1.3-.45-1.52C232.93,251.16,229.08,251,223.78,251Z"/><path class="cls-3" d="M393.39,267.83s-13.64-13.89-26-15.15-49.24-2.78-52.27-1.26,5.81,13.13,10.35,13.64S365.62,264,393.39,267.83Z"/><path class="cls-3" d="M394,268.11l-.6-.08c-20.32-2.77-45-2.7-58.3-2.66-4.87,0-8.39,0-9.62-.11-1.73-.19-4.24-2-6.73-4.79-2.33-2.63-4-5.48-4.37-7.28-.22-1.23.25-1.75.68-2,3-1.51,39.85,0,52.38,1.24,12.3,1.26,26,15.07,26.13,15.21Zm-53.38-3.17c13.75,0,34.56.25,52.22,2.6-2.43-2.35-14.52-13.54-25.44-14.66-12.5-1.28-49.18-2.78-52.16-1.28-.44.22-.6.73-.46,1.52.66,3.7,7.19,11.33,10.74,11.72,1.21.13,4.72.12,9.57.11Z"/><path class="cls-3" d="M426.86,188.19c-.13-1.4-.31-2.79-.51-4.18,0-1,.06-2.11.06-3.2a139.1,139.1,0,0,0-.94-17.34l.67.69c-.23-.31-.47-.61-.7-.91-.2-1.67-.43-3.33-.7-5,.05,1.39.09,2.8.13,4.21l-.56-.7-.09-.42c-.16-1.26-.38-2.7-.71-4.24a32.86,32.86,0,0,0-1.25-4.35l-.11-.29c0-.07,0-.14-.05-.21l-.3-1a1.48,1.48,0,0,0-.39-.72l-.06-.35,4.34,3.54-4.86-6.38c-.18-.92-.38-1.86-.61-2.83a85.57,85.57,0,0,0-2.54-8.8c1-.6,2-1.2,3-1.82l-3.11,1.46c-.8-2.27-1.7-4.53-2.68-6.67.72,2.28,1.4,4.63,2,7l-.42.2q-.3-1.15-.63-2.27a5.1,5.1,0,0,0,0-1.62,5,5,0,0,1-.08,1.21v0c-.2-.92-.41-1.83-.65-2.72.16,1.19.31,2.39.44,3.61a6.43,6.43,0,0,1-.65,1.38A7.6,7.6,0,0,1,413.6,137c-.16-1-.33-1.9-.51-2.83l.2,3.1-.06.05c-.07-.58-.13-1.18-.21-1.75,0,.53,0,1.07,0,1.61l-1.89-2.48c0-.29-.08-.57-.12-.85a5,5,0,0,0,1.11-1.29,3.22,3.22,0,0,0,.42-2.23,3.11,3.11,0,0,1-.65,2.08,4.55,4.55,0,0,1-1,.92v0q-.27.2-.56.37l-1.06-1.39c0-.17,0-.33,0-.5,0,.14,0,.29-.05.43l-.57-.75a8,8,0,0,0-.49-3.16,8.2,8.2,0,0,1,.17,2.74l-.35-.46a2.21,2.21,0,0,0,.15-1.58,2,2,0,0,0-.69-1,1.23,1.23,0,0,0-.74-.25,37.33,37.33,0,0,0,3.68-4.8,47.77,47.77,0,0,1-4.57,4.78l-.12-.15c0-.12,0-.26,0-.44a11.82,11.82,0,0,0-.43-2l-.17-.6c0-.09,0-.18,0-.27a5.29,5.29,0,0,0,.19-1.44,5.6,5.6,0,0,0-.62-2.71,3.87,3.87,0,0,0-2-1.82,4.45,4.45,0,0,1,2,4.45,4,4,0,0,0-.6-.91l-.07-.18a40.62,40.62,0,0,0-2.09-4.15l0-.05c1-1.69,2-3.41,2.89-5.14-1,1.52-2.13,3-3.24,4.56l-.48-.79c-.35-.74-.74-1.5-1.1-2.14l2.76.63-4.24-2.32q-.5-.68-1-1.37a3.53,3.53,0,0,0,.11-2.11,2,2,0,0,0-2.07-1.53,1.88,1.88,0,0,1,1.76,1.61,3,3,0,0,1-.18,1.54c-1.05-1.36-2.17-2.72-3.32-4.08-.61-1.06-1.23-2.11-1.89-3.11.33.67.65,1.35,1,2l-2.14-2.45c-.24-.66-.47-1.32-.65-2,.07.53.17,1.06.29,1.59l-.48-.55.53.75c.16.65.35,1.3.56,1.94h0l-.27-.52c-.43-1.11-.87-2.22-1.35-3.33a39.43,39.43,0,0,0,2.79-4.41,5.64,5.64,0,0,0,1-2.79,1.84,1.84,0,0,0-.63-1.35,1.26,1.26,0,0,0-1.36-.28,1.18,1.18,0,0,1,1.23.4,1.6,1.6,0,0,1,.41,1.22A5.43,5.43,0,0,1,391.59,96c-.86,1.29-1.77,2.5-2.72,3.67-.71-1.6-1.45-3.18-2.24-4.7.63,1.7,1.25,3.44,1.85,5.19l-.33.41c-.45.52-.91,1-1.38,1.52a34.45,34.45,0,0,1-3.42-6.66,11.11,11.11,0,0,1-.14-1.56,15.93,15.93,0,0,0,1,6.63,5.27,5.27,0,0,1-.58,1.19,11.37,11.37,0,0,0-1-2.09,9.75,9.75,0,0,0-4.13-3.74,10,10,0,0,1,3.6,4,11.22,11.22,0,0,1,.72,1.81c-.53-.64-1.08-1.28-1.66-1.89-1.85-2-4.12-3.75-5-6.37a7.64,7.64,0,0,0,.81,2.17c-.14-.12-.27-.24-.41-.35a1.1,1.1,0,0,0-.26-.48,1,1,0,0,0-.55-.25.93.93,0,0,1,.5.3.89.89,0,0,1,.15.32,7.77,7.77,0,0,0-.78-.54,6.92,6.92,0,0,0-1.8-.64c-1.15-1.33-2.31-2.65-3.45-3.93,1.46,2.12,3,4.26,4.59,6.36q-1.84-1.29-3.58-2.46a17.08,17.08,0,0,0-1.63-4.39,19,19,0,0,1,1.06,4l-.33-.22a72.66,72.66,0,0,0-8.94-10.57c.6.75,1.2,1.52,1.79,2.29a2.31,2.31,0,0,0-.51-.36,1.83,1.83,0,0,0-1.23-.15,2,2,0,0,1,1.94,1.18,4.49,4.49,0,0,1,.22.46q.23.94.4,1.88l-.52-.45.55.6,0,.13c0,.27,0,.53,0,.8a36,36,0,0,0-5.3-3.93l-.05-.15a9.66,9.66,0,0,0-2.77-4,9.83,9.83,0,0,1,2.12,3.75l-.83-.46q-.83-.75-1.69-1.47c-.35-.58-.69-1.17-1.05-1.74l.65,1.4q-1-.8-1.95-1.56A15.94,15.94,0,0,0,352,78.79,19.94,19.94,0,0,0,346.68,74a22.43,22.43,0,0,0-3.22-1.71A29.27,29.27,0,0,0,340,71a57.56,57.56,0,0,0-14.3-1.6l-1.19-1.56,1.06,3.2a47.88,47.88,0,0,0-6.09-1.14,43.48,43.48,0,0,0-6.1-2.48c1.52.71,3,1.49,4.5,2.33l-.24,0,.34.08c1.65.94,3.26,1.94,4.8,3l-.22.07.25,0q1.43,1,2.77,2l-.28-.09.39.17.3.23-.6-.18c-.35-.2-.69-.43-1-.62a38.1,38.1,0,0,0-7.16-3c-1.61-1-3.22-1.94-4.82-2.85L315.56,71c-.95-.24-1.9-.44-2.85-.6,1.34.41,2.66.9,4,1.43l1.84,1.36-.69-.18c-3.23-.82-6.66-1.6-10.16-2.31a88.18,88.18,0,0,0-8.75-3.21c1.81.81,3.62,1.68,5.42,2.57-3.32-.6-6.66-1.13-9.94-1.52,3.15.8,6.37,1.61,9.56,2.44l-1.63-.18c2.09.48,4.22,1,6.34,1.5l.45.24-1.86-.5c-1.08-.28-2.19-.54-3.32-.79l-.64-.22.31.15a85.25,85.25,0,0,0-13.9-1.91l7.73,2.34c-.62-.13-1.25-.25-1.87-.36,1.46.66,3,1.3,4.46,1.92L298.64,73a53.37,53.37,0,0,1-5.45-2.17,22.17,22.17,0,0,0,2.28,1.65,102,102,0,0,0-17.18-3c2.54.88,5.14,1.75,7.72,2.61a7.49,7.49,0,0,0-1.33-.07,16.69,16.69,0,0,1,4.86,2.23,189.45,189.45,0,0,0-23.23-4.38c-3.1-.38-6.33-.67-9.61-.88-3.33-1-6.68-2-10-2.9,2.18.91,4.4,1.82,6.64,2.71a154.37,154.37,0,0,0-21,.43c9.17.32,18.72,1.05,27.61,2.14L264.42,73a12.69,12.69,0,0,0,.86,1.17l-2.17-.3-1.82-.31c-4.32-.71-8.9-1.52-13.62-2a46.27,46.27,0,0,0-14.15.27,57.35,57.35,0,0,1,14,1l1.42.26a92.26,92.26,0,0,0-15.33,1.49,158,158,0,0,1,24.5.47l2,.23.77.15-3.47-.22a211.68,211.68,0,0,0-34.93.88c8.45.11,17.23.4,25.59.88-1.75,0-3.53.07-5.33.12a198.79,198.79,0,0,0-21.51.54l5.4.24c-2.64.18-5.27.38-7.86.61,4.82.2,9.77.32,14.68.42l-.55,0-.91.09a163.12,163.12,0,0,0-24.82.24c3.8.59,7.73,1.06,11.57,1.45a77.53,77.53,0,0,0-8,.26,90,90,0,0,0-11.3,1.7c-1.91.41-3.82.87-5.71,1.39-.95.25-1.88.53-2.81.8a7.54,7.54,0,0,0-1.41.5,1.92,1.92,0,0,0-.6.49.74.74,0,0,0-.13.72c-.05-.52.45-.77.86-.88a8,8,0,0,1,1.4-.16l2.91-.23,5.8-.48,2.32-.18L200.9,85c-1.14.22-2.32.45-3.55.71-2.56.55-5.27,1.19-8,1.94l-1.46.42c-1.68.35-3.35.72-5,1.13h1.79a12.58,12.58,0,0,0-2.1,1.15,8.17,8.17,0,0,0-1.76.8,9.3,9.3,0,0,1,1-.24l-.26.21c.18-.09.37-.17.55-.26a44.65,44.65,0,0,1,5.87-.14h.08l-.25.09c-1.62.43-3.25.92-4.88,1.5-1.43.52-2.84,1.1-4.19,1.74a7.16,7.16,0,0,0-2,1.24,2.21,2.21,0,0,0-.83,2.07,2,2,0,0,1,1.15-1.66l.18-.08,1.37-.12-.22.24.39-.25,3.87-.36L180,97c-2.76.3-5.56.56-8.32.81a57.41,57.41,0,0,0,6.16.66c-2.67,1.82-5.3,3.6-7.85,5.31l5.07-1.74,1.72-.57c-.56.24-1.11.49-1.66.75l4.45-.85-.54.56a76.09,76.09,0,0,0-7.35,2.21l4.67-.46c-1.82.7-3.88,1.51-6.1,2.46l-2.14.27h1.54c-1.94.84-4,1.8-6.11,2.86L160.45,113l-.18.31c2.36-1.26,4.67-2.4,6.87-3.42h2c-1.95,1-4,2.07-6,3.24-.77.44-1.54.9-2.32,1.37h0c-.67.4-1.35.82-2,1.24a41.54,41.54,0,0,1-2.86,3.89c1-.6,2-1.19,3-1.76l1.46.27c-4,3.3-8,6.85-11.78,10.57l-2,3.44c.7-.6,1.39-1.2,2.1-1.79l.59,0q-1,.83-2.05,1.69l-.14.12.12.08c-.53.48-1,1-1.53,1.5l-1.27,2.16a45.07,45.07,0,0,1,3.92-3.33,1.94,1.94,0,0,0,1.08-.32,1.85,1.85,0,0,1-.9.18q1.13-.84,2.29-1.63l1.88.1-.81,1c-.47.6-.91,1.16-1.33,1.71l-1.06-.18c.32.11.65.19,1,.29q-1.06,1.39-1.9,2.58c-1.46,0-2.92,0-4.38,0l-.13.22c1.34.19,2.68.36,4,.49-1.06,1.54-1.88,2.82-2.5,3.87l-1.91,3.22,3.23-1.71.3-.18c-.61,1.16-1.23,2.39-1.88,3.67s-1.34,2.82-2,4.32c-1.21,2.4-2.38,4.92-3.47,7.54a123.58,123.58,0,0,0-4.3,12.1c-.43.76-.76,1.39-1,1.89-.85,1.74-.72,2.06-.46,2.22a.38.38,0,0,0,.3,0c-.57,2.19-1.08,4.4-1.52,6.65l-.06.32c-1.06,4-2,8.12-2.91,12.13l-.29,1,.12-.23h0l1.61-3a107.75,107.75,0,0,0-.58,10.93c-.15,1.13-.31,2.32-.47,3.59-.52,4.35-1.15,9.89-1.51,16.3-.12,2.32-.22,4.76-.26,7.29l-1.31-1.89.5,4.8c-.26.14-.41.61-.15,2.44.17,1.18.5,2.92,1,5.51q.2,1.7.4,3.3l.28,2.9.38,2.91c.21,1.72.51,3.42.82,5.13l.1.72a140.11,140.11,0,0,0,2.71,15c.63,2.28,1,2.48,1.38,2.41l.12,0,.15,1c1,6.19,1.95,12.85,2.86,19.57-.12,4.43-.3,8.87-.53,13.23.48-2.6.88-5.24,1.24-7.91l.28,2.12c0,1.48,0,3,0,4.41.1-.82.2-1.65.3-2.49l.18,1.39.37,3.68q-.46,2.2-1,4.38c.57-1.47,1.09-3,1.58-4.49l0,.31c0-.16,0-.31,0-.47a96.34,96.34,0,0,0,3.2-13.31c.2-1.17.36-2.34.51-3.51,0,.73.09,1.28.14,1.7.14,1.12.3,1.24.48,1.24s.34-.12.44-1.25a60.48,60.48,0,0,0,0-7.3c0-.89-.1-1.92-.16-3,.13-2,.23-4,.28-5.91a214.34,214.34,0,0,0-1-24.21,1.91,1.91,0,0,0,.59.65c.28.16.41.09.51,0a.47.47,0,0,0,.1-.47,7.63,7.63,0,0,1-.21-1.34,12.7,12.7,0,0,1,0-1.47c0-.63.08-1.4.11-2.29.06-1.79.12-4.13.16-7.19,0-2.5.1-5.69.19-9.36.56-3.41,1.18-7.18,1.84-11.17,0,.16,0,.32,0,.48.12-.8.27-1.6.41-2.41l.06.35c.11,1.26.25,2.51.43,3.74,0-1.71,0-3.45,0-5.19a5.16,5.16,0,0,0,.31-.69v0a15.08,15.08,0,0,0,3.25,9,15.74,15.74,0,0,1-1.14-9.26,20.92,20.92,0,0,1,.76-3.13c0,.1,0,.2,0,.31,0-.15,0-.31,0-.46a24.05,24.05,0,0,1,2.51-5.28,38.73,38.73,0,0,1,6.61-7.55c-.15.42-.3.84-.44,1.27a34.72,34.72,0,0,0-1.65,9.12,25.16,25.16,0,0,0,1.24,9A34.17,34.17,0,0,1,163.42,201c.25-.53.51-1.05.77-1.58.25,3,.43,6,.39,8.91v.9l-.05.93-.1,1.86a25.2,25.2,0,0,1-.49,3.49,11.18,11.18,0,0,1-3.3,6.19,11.42,11.42,0,0,0,4.94-5.63,24.29,24.29,0,0,0,1.33-3.67l.46-1.8c.16-.59.3-1.21.41-1.85a64.64,64.64,0,0,0,.95-6.69,24.18,24.18,0,0,0,2.12,6.47,21,21,0,0,0,4.28,5.6,22.7,22.7,0,0,1-2.76-6.19,25,25,0,0,1-.72-6.6,32.13,32.13,0,0,1,3.16-12.63,31.51,31.51,0,0,1,1.63-3c-.06,1.07-.09,2.14-.07,3.19A85.32,85.32,0,0,0,178,203.75a139.92,139.92,0,0,1,1.54-14.65,38.55,38.55,0,0,1,3.88-11.92l.3-.36q1-.9,1.94-1.76a28.48,28.48,0,0,0-2.7,4.09,20.56,20.56,0,0,0-1.93,5.17,17.32,17.32,0,0,0-.26,5.34,18.94,18.94,0,0,1,1.44-5,21.52,21.52,0,0,1,2.68-4.31,36.41,36.41,0,0,1,7.5-6.82c.34-.25.7-.47,1-.71-.23.25-.47.47-.69.73-.72.83-1.4,1.67-2.06,2.6l-.49.7-.42.66-.21.33c-.12.17-.15.26-.23.39L189,179a24.2,24.2,0,0,0-2.36,6.2,19.79,19.79,0,0,0-.39,6.49,15,15,0,0,0,2,5.93,15.65,15.65,0,0,1-.54-6,19.78,19.78,0,0,1,1.51-5.66,23.67,23.67,0,0,1,2.94-5l.45-.56c.07-.08.17-.22.21-.25l.25-.29.51-.59.48-.51c.64-.68,1.36-1.36,2.08-2a75.48,75.48,0,0,1,9.55-6.88l1.72-1.1a51.51,51.51,0,0,0-3.9,7A46.68,46.68,0,0,0,200,203.65a55.34,55.34,0,0,1,8-25.41,50.06,50.06,0,0,1,8-9.94l1.22-1.15,1.16-1c.74-.66,1.6-1.3,2.4-1.94q2.48-1.89,5.07-3.57c3.48-2.26,7-4.29,10.5-6.21h1.31a70.77,70.77,0,0,0,10-.86,73,73,0,0,0,8.78-1.51q1.73,0,3.49,0l-1.88.61c-1.84.34-3.7.64-5.53.89,1,0,2,0,3-.12-1.84.56-3.68,1.09-5.5,1.59a104,104,0,0,0,11.16-2.26c1.21-.2,2.39-.42,3.52-.67l.7-.16c2.78-.11,5.57-.28,8.33-.52.63,0,1.3,0,2-.06l-.81.38c-1.16.38-2.36.75-3.61,1.1a107,107,0,0,1-18.8,3.42,66.91,66.91,0,0,0,13.44-1,35.25,35.25,0,0,0,5.69-1.13c.48-.13.95-.3,1.42-.45a78,78,0,0,0,9.21-3.2c.83-.16,1.68-.33,2.56-.52l2-.14,1.29-.14-4.81,2.45c-2.45.69-4.93,1.33-7.38,1.9-.31-.06-.62-.12-.93-.21.23.1.48.17.72.26l-.69.16.87-.1a13.34,13.34,0,0,0,2.36.54l-1.72.87,2.19-.8a18.13,18.13,0,0,0,6.47-.56,30.06,30.06,0,0,0,4.58-1.61,18.22,18.22,0,0,0,2.88-.09,47.48,47.48,0,0,1-7.19,2.34,39.05,39.05,0,0,0,12-3.43q1.06-.37,2.08-.81a34.45,34.45,0,0,0,10-3.09l.36-.19.48,0a74.31,74.31,0,0,0,8.89-1c4.41.75,9,1.28,13.17,1.59,4.75.36,8.94.47,11.66.52h.29c1.08.36,2.12.71,3.11,1.06,2.72,1.59,5.53,3.19,8.29,4.67.86.55,1.67,1.07,2.41,1.56,3.82,4,8.22,8.57,12.47,12.76-2.09-2.66-4.34-5.34-6.57-7.92,1.57,1.8,3.19,3.63,4.85,5.48l3.18,3.49c1.09,1.39,2.2,2.76,3.34,4.07l-1.1-1.67.13.14a5,5,0,0,0,2.26,1.47,5,5,0,0,1-2-1.68l-1.65-2.16-1.13-1.46c-1.06-1.63-2.11-3.25-3.12-4.85.88.59,1.74,1.16,2.6,1.72,1.5,2.21,3,4.53,4.61,6.89l2.68,4.07c.42.68.94,1.36,1.29,2a3.08,3.08,0,0,1,.32,1.11,1,1,0,0,1-.49,1,1.06,1.06,0,0,0,.64-1,2.45,2.45,0,0,0,0-.29c1.43,3.41,3,6.94,4.54,10.29-.32-1-.66-2-1-3,.5,1.24,1,2.49,1.46,3.72a89.47,89.47,0,0,0-4.92-14.33c-.61-1.39-1.23-2.71-1.84-3.94l-.25-.65c.51.5,1,1,1.52,1.51.44.95.88,1.91,1.32,2.87q.32,1,.64,1.94c1.6,4.93,3.13,10.42,4.47,15.84.52,2.59,1.07,5.18,1.65,7.71-.44-4.5-1-9.16-1.65-13.63q1.1,2.66,2.19,5.35c.74,4,1.33,8.46,1.71,12.71a66.67,66.67,0,0,0-.31-9.24l.76,1.91a91.24,91.24,0,0,1,.52,10.32,50.5,50.5,0,0,0,.44-6.24l.12.53.38,1.67c0,.52,0,1,0,1.55,0-.33.07-.66.1-1a121.54,121.54,0,0,1,2.66,15A69.55,69.55,0,0,0,393.49,205l1,2.57c-.61-2.39-1.27-4.8-2-7.21l0-.1c0-.72,0-1.42,0-2.1.68,2,1.34,4.06,2,6,1,6.32,1.79,12.76,2.22,19.08.08-1.41.12-2.84.15-4.27.16,1.42.32,2.84.45,4.25.08-2.48.06-5,0-7.51.15,1.11.31,2.22.44,3.32,0-1.2,0-2.4,0-3.61l.6,2.8c.05,3.22.15,6.71.37,10,.09-1.45.16-2.94.22-4.43a101.11,101.11,0,0,0,.48,14.11c0-4.48.47-9,.94-13.52l.41,1.55a102.26,102.26,0,0,0-.59,16.46c0,1.12.12,2.28.21,3.42s.15,2.28.3,3.38c.26,2.21.5,4.37.85,6.47.62,4.21,1.4,8.17,2.14,11.88,1.53,7.41,3,13.78,3.92,18.81,1.18,6.06,1.89,10.76,2.37,14.4a45.18,45.18,0,0,0,.31,5.23c.15,1.08.31,1.28.48,1.31.09.77.18,1.44.26,2,.41,3.57.94,4,1.52,4s1.11-.36,1.46-4.07c.06-1,.11-2.27.09-3.84.45-1.08.88-4.5,1.38-15l0-.94a115.47,115.47,0,0,0,1.92-12c.32-2.49.72-5.65,1.15-9.27.06-.17.11-.32.17-.52a53.45,53.45,0,0,0,1.32-5.39c.53-2.5,1.11-5.79,1.7-10.12a244,244,0,0,0,2.17-24.48c.45-2.09.88-4.26,1.27-6.53.57-3.29,1.09-6.75,1.45-10.35A114.89,114.89,0,0,0,426.86,188.19ZM264.61,73.11l4.88,1.8q-1.77-.33-3.71-.62A13.73,13.73,0,0,1,264.61,73.11Zm-107.3,120h0l-.1.11Zm-3-64.18-.8.12,1.44-.9Zm36.1-39.87.86-.13.26,0,0,0Zm-21.48,20c2-.87,3.81-1.65,5.53-2.34l-1,1.07-2.26,1.09Zm-3.84,5.38-.15.11h-.08Zm-.92.49.06,0h.27c-.84.64-1.68,1.28-2.52,1.95l-1.11-.09Q162.52,115.85,164.16,115Zm-5,2.8,1.47-.85,1,.21-.91.75Zm3.52,1.64-2.25,2.49-1.15.05C160.43,121.08,161.56,120.24,162.7,119.4Zm-3.55,2.65,1.08.08-1.15,1.29-.58.67-.84.53L157,125c-.49,0-1-.09-1.47-.17Q157.35,123.42,159.15,122.05Zm-8.77,7.51-.78.11c1.93-1.61,3.88-3.2,5.85-4.75q.6.18,1.21.32C154.49,126.59,152.39,128,150.38,129.56Zm.68,1.12.58-.39,1.67-.1-.3.37Zm-2.29,81.73-.09.42-.24,1.23v-.19c.11-.54.22-1.1.34-1.63C148.77,212.3,148.77,212.35,148.76,212.41Zm90.06-59.3,2.06-1.14c1.89,0,4,0,6.28,0C244.48,152.47,241.67,152.84,238.82,153.1ZM323.24,72c-.93-.57-1.88-1.1-2.85-1.61,1.86.48,3.7,1.05,5.52,1.71l.44,1.34C325.32,72.95,324.29,72.46,323.24,72Zm-3.41,71.33-4.13.32.4-.32c1,0,2,0,3.1,0Zm-5.64.11-.49.36-1.87.15.41-.22.55-.21C313.24,143.5,313.72,143.49,314.19,143.46Zm14.16.59,1.77.25.69.18-1.66.09-1.19-.4Zm5.07,1.13,3.44,1a29.83,29.83,0,0,1-4.48-.68c-.59-.13-1.17-.28-1.73-.44Zm5.82-65.7-1.86-.65c-.52-.57-1.06-1.14-1.63-1.67s-1-.87-1.49-1.28a57.66,57.66,0,0,1,5.33,3.33Zm-3.47-1.2-.31-.1-2.4-.79c-.84-.58-1.71-1.13-2.6-1.67l-2-2.62c1,.41,2,.83,2.92,1.29l.57.3A31.67,31.67,0,0,1,335.77,78.29Zm-43.26-4h-.28l-1.17-.49Zm-16.24,79.9q2.18-.25,4.37-.62l-1.64.83A15.05,15.05,0,0,1,276.27,154.14Zm8.67-.83a20.17,20.17,0,0,1-5,1q1.58-.61,3.15-1.26,1.93-.39,3.83-.85l.56.12C286.67,152.69,285.82,153,284.94,153.31Zm2.72-1.05-.68-.06,1.82-.47C288.43,151.91,288.05,152.09,287.67,152.26Zm1.62-1.89.46-.22h.19Zm2.29-1.09,1.58-.24-2,.71-.8.13Zm9-.69c-1.29.76-2.66,1.5-4.08,2.2l-1.08.17.71,0c-.3.11-.58.23-.89.32a22.17,22.17,0,0,1-4.59,1c1.31-.62,2.57-1.29,3.77-2l.82-.49.14,0c.77-.12,1.54-.26,2.31-.43,1-.22,2-.49,3-.78Zm1,1c.57-.3,1.12-.6,1.66-.92.75-.44,1.46-.89,2.16-1.35.51,0,1.17.07,2.07.06A42.89,42.89,0,0,1,301.64,149.61Zm8.21-3.39-1.28.21-1.85.07.44-.31c.88-.38,1.73-.77,2.56-1.17.52,0,1.25,0,2.25,0C311.31,145.4,310.6,145.81,309.86,146.21Zm4.21-1.36,1.4-.09,1-.07q-1.72.49-3.5.9C313.33,145.35,313.71,145.11,314.07,144.86Zm1,1.09a46.39,46.39,0,0,0,5.84-1.57l.12,0,3-.28h.9l.38.16c-1.66.37-3.31.71-4.88,1C318.52,145.52,316.7,145.77,315.05,146Zm17.42,1-12.38-.71.53-.1c1.88-.37,3.85-.86,5.82-1.44l.36.13-.92.09,1.25,0a34.77,34.77,0,0,0,5.09,1.45,26.74,26.74,0,0,0,7,.49l1.35.41C338.25,147.18,335.48,147.06,332.47,146.9ZM350,81.58l-.93.73-.19-.14c.06.05.1.12.16.17l-1.11.87-.37-.06a34.28,34.28,0,0,0-3.14-2.76,51,51,0,0,0-7.4-4.85c-.57-.48-1.14-.94-1.74-1.36.33.3.63.63.95.95-1.4-.72-2.83-1.39-4.3-2a49.18,49.18,0,0,0-4.66-1.6l-1.59-2.09c4.65.69,9.47,1.33,13.9,2.87a22.07,22.07,0,0,1,10.35,7l-1.16-.69a63.57,63.57,0,0,0-17.67-7,94.55,94.55,0,0,1,17,8.08l1.1.68a8.8,8.8,0,0,1,1.08,1.47C350.19,81.82,350.11,81.69,350,81.58Zm-.35-.84c.68.43,1.33.86,2,1.29.08.16.17.32.25.49.21.78.4,1.56.55,2.36-.35-.66-.71-1.32-1.1-2A11.06,11.06,0,0,0,349.66,80.74Zm5.1,72c-.89-.52-1.84-1-2.8-1.56l1.84.73,1.63.95.64.67Zm5.39,3.43-.71-.78-.06-.07.31.21.69.81Zm2.58,2.88,0,0,.68.78ZM364,86c1.39,1.85,2.75,3.74,4,5.63-1.06-1-2.15-2-3.25-3,0-.22,0-.45-.07-.67A6.61,6.61,0,0,0,364,86Zm.4,72.85.17.12.08.06.33.53ZM365,89.76c-.06-.24-.12-.48-.18-.71V89l1.54,1.69Zm2.56,71.71-.22-.36,1.13.92Zm9-65.5a8.91,8.91,0,0,1,.64.75,10.48,10.48,0,0,1,1.11,2.15l-1.07-.77L376.39,97c0-.13.1-.25.13-.38A3.4,3.4,0,0,0,376.62,96ZM374,94.17a7,7,0,0,1,1.48.73,7.91,7.91,0,0,1,1,.84,3,3,0,0,1-.17.8c0,.07-.06.13-.09.19Zm5.15,81.61c-.75-1.42-1.53-2.83-2.33-4.22-.94-1.65-1.9-3.25-2.87-4.82l.06,0,.68.61h0l1.42,1.62q.66,1.25,1.39,2.69C378,173,378.54,174.37,379.12,175.78Zm.43-76c-.12-.35-.23-.69-.38-1l0,0c.48.56,1,1.12,1.42,1.69l.31.39Zm5.69,3.95a3,3,0,0,0-.4,0,3.12,3.12,0,0,1,.36,0l-.19.19-.89-.7c-.1-.41-.22-.81-.36-1.21a5.46,5.46,0,0,0,.51-1.34l.28.84.2.62c-.14-.27-.29-.54-.43-.8.28.78.6,1.56.93,2.34h0Zm.68-.68-.07-.18.11.14Zm.1-.1-.24-.25c-.18-.47-.37-.93-.56-1.4a39,39,0,0,1-1.46-3.95,39.42,39.42,0,0,0,2.44,5.42Zm.69,1.1.11.16-.17-.1Zm.06,1.33-.36-1,.1-.1a3.6,3.6,0,0,1,.45.35,4,4,0,0,1,.31.32c.2.44.39.87.59,1.31Zm2.79,2.11q-.49-1.11-1.05-2.21l1.46,2.43Zm-1.39-4.16c.73,1.35,1.41,2.76,2.07,4.17-.6-.8-1.2-1.59-1.8-2.37q-.49-.95-1-1.88c.5-.6,1-1.2,1.47-1.83l.22.63-.05-.08.07.13q.92,2.77,1.73,5.47A45.68,45.68,0,0,0,388.17,103.28Zm3.18,91.32.59,1.78c0,.43,0,.87.06,1.33C391.77,196.63,391.55,195.58,391.35,194.6ZM392.4,109c-.24-.75-.48-1.5-.75-2.26l.92,2.35Zm-.22-2.71c-.46-.94-.88-1.89-1.27-2.85.95,1.35,1.92,2.69,2.9,4q.64,1.4,1.23,2.8C394.11,108.92,393.15,107.6,392.19,106.29Zm4,4.78c-.18-.39-.38-.77-.57-1.16l1,1.4ZM404,125l-.55-2,.4,1c.11.26.19.5.28.73Zm3.73,5.24-1.45-1.91.44-.49a1.53,1.53,0,0,1,1.2,1.26A1.79,1.79,0,0,1,407.73,130.22Zm3,3.88.26-.2c0,.18,0,.36,0,.55Zm4.56,1.6a6.68,6.68,0,0,0,.34-.84c0,.47.09.94.13,1.42l-1.17.55A7.56,7.56,0,0,0,415.25,135.7Zm-.42,3.84c-.06-.2-.1-.41-.16-.6l.08.49-1-1.26,0-.14,1-.57c.05.72.1,1.44.14,2.17Zm1,1.29q-.2-1-.4-2c0,.54.09,1.08.14,1.63l-.32-.42c-.14-.87-.29-1.74-.46-2.6l1-.57c.12,1.44.22,2.86.29,4.27Zm2.5,3.28c-.15-1.31-.33-2.61-.52-3.89,0,.59,0,1.18,0,1.77-.34-1.87-.75-3.74-1.22-5.58l.42-.24c.79,2.95,1.51,5.88,2.08,8.66l.09.44Zm3.14,6.7,0-.17a1.59,1.59,0,0,1,.28.72v0C421.63,151.19,421.54,151,421.45,150.81Zm3.34,13.85c-.08-.63-.2-1.4-.36-2.26l.45.45c0,.62,0,1.23,0,1.85C424.87,164.68,424.84,164.66,424.79,164.66Z"/><path class="cls-3" d="M412.56,313.56h0c-.81,0-1.32-.68-1.72-4.17-.08-.55-.16-1.19-.25-1.9-.24-.14-.37-.55-.5-1.43a46.36,46.36,0,0,1-.31-5.26c-.61-4.61-1.38-9.32-2.37-14.37-.58-3.06-1.32-6.56-2.19-10.6-.55-2.57-1.13-5.31-1.73-8.21-.67-3.37-1.51-7.56-2.15-11.89-.33-2-.56-4-.81-6.16l0-.31c-.1-.72-.15-1.48-.21-2.21,0-.39-.06-.78-.09-1.17l0-.55c-.08-1-.16-1.94-.17-2.89a101.59,101.59,0,0,1,.58-16.45l-.11-.42c-.45,4.38-.8,8.39-.83,12.37l-.41,0a81,81,0,0,1-.52-9.69h-.18c-.18-2.88-.3-6.17-.37-10l-.16-.74c0,.54,0,1.05,0,1.55l-.39,0c0,1.5,0,2.86-.05,4.17h-.41q-.06-.65-.13-1.29c0,.43,0,.87-.06,1.3h-.41c-.42-6.16-1.17-12.57-2.22-19.06-.51-1.55-1-3.15-1.56-4.77,0,.26,0,.52,0,.79l0,.05c.76,2.66,1.4,5,2,7.2l-.39.13-.25-.62a65.44,65.44,0,0,1,1.11,12.84h-.41a116.33,116.33,0,0,0-2.44-14l-.32,0v-.05c0-.49,0-1,0-1.5l-.13-.57c-.06,1.62-.2,3.18-.4,4.65l-.41,0a91.33,91.33,0,0,0-.51-10.27l-.23-.57a65,65,0,0,1,.18,7.86h-.41c-.37-4.27-1-8.66-1.7-12.7l-1.55-3.79c.54,3.9,1,8,1.42,12l-.41.07c-.51-2.22-1-4.67-1.65-7.71q-.41-1.63-.82-3.24l-.1,0-.29-.74-.17.07c-1.33-2.85-2.72-6-4.23-9.57a1.16,1.16,0,0,1-.66.66l-.16-.38a.79.79,0,0,0,.38-.78,2.82,2.82,0,0,0-.3-1c-.22-.41-.5-.84-.78-1.25-.17-.25-.34-.51-.5-.76l-1.76-2.67-.07.23a3.9,3.9,0,0,1-1.31-.62l.23.35-.33.25c-1.07-1.23-2.16-2.56-3.34-4.07l-1.17-1.28-.28.25c-4.57-4.5-9.31-9.44-12.47-12.77l-2.38-1.53c-2.52-1.36-5.24-2.89-8.28-4.66-.94-.33-2-.68-3-1h-.26c-3-.06-7.06-.17-11.67-.52-4.45-.34-9-.89-13.16-1.59a74.55,74.55,0,0,1-8.88,1l-.43,0-.12.06-.2.1a34.45,34.45,0,0,1-10,3.1c-.67.29-1.37.56-2.07.81a39.28,39.28,0,0,1-12,3.44l-.07-.41a45.72,45.72,0,0,0,5.91-1.83q-.77,0-1.51,0a30.06,30.06,0,0,1-4.57,1.6,18.4,18.4,0,0,1-6.5.57l-2.15.78-.16-.38,1.15-.58a13.39,13.39,0,0,1-1.72-.43l-.3,0-.53.06-.06-.36-.18,0,.17,0-.06,0,.14-.39c.29.08.58.14.87.19,2.44-.57,4.91-1.21,7.33-1.89L287,150l-.17,0-2,.14c-.82.18-1.66.35-2.54.52a77,77,0,0,1-9.19,3.19l-.43.14c-.33.11-.66.22-1,.31a35.41,35.41,0,0,1-5.72,1.13,67.12,67.12,0,0,1-13.47,1v-.41a107,107,0,0,0,18.76-3.42c1.07-.3,2.18-.64,3.38-1h-.91c-2.59.23-5.4.41-8.32.52l-.19,0-.47.11c-1,.23-2.18.45-3.53.68a103.63,103.63,0,0,1-11.17,2.26l-.08-.4c1.26-.35,2.55-.72,3.84-1.1l-1.31,0,0-.41c1.75-.24,3.6-.53,5.52-.89l.58-.19h-2.16a72.2,72.2,0,0,1-8.75,1.51,71,71,0,0,1-10,.86h-1.26c-3.16,1.75-6.86,3.86-10.44,6.18-1.67,1.08-3.37,2.28-5.06,3.56l-.7.56c-.57.45-1.17.91-1.69,1.38l-1.17,1-1.22,1.15a49.63,49.63,0,0,0-8,9.9,54.86,54.86,0,0,0-8,25.31l-.1,1.6-.31-1.57a47.16,47.16,0,0,1,3.5-27.94,52.27,52.27,0,0,1,3.39-6.21l-.91.58a74.85,74.85,0,0,0-9.53,6.86c-.77.69-1.47,1.36-2.07,2l-.48.51-.76.87-.12.14-.53.66a23.39,23.39,0,0,0-2.91,4.94,19.55,19.55,0,0,0-1.49,5.6,15.47,15.47,0,0,0,.54,5.87l.45,1.53-.83-1.37a15.15,15.15,0,0,1-2-6,19.9,19.9,0,0,1,.4-6.57,24.35,24.35,0,0,1,2.38-6.25l.49-.86c0-.08.09-.16.17-.27l.63-1,.5-.71c.48-.68,1-1.34,1.58-2a35.42,35.42,0,0,0-7,6.49,21.18,21.18,0,0,0-2.66,4.27,18.68,18.68,0,0,0-1.42,4.9l-.26,1.58-.15-1.6a17.47,17.47,0,0,1,.27-5.4l0-.17a47.16,47.16,0,0,0-1.13,5,135.44,135.44,0,0,0-1.5,14.14l-.15,2.09-.29-1.59a86.2,86.2,0,0,1-1.68-14.94c0-.76,0-1.54,0-2.37-.46.79-.85,1.55-1.2,2.3a31.66,31.66,0,0,0-3.14,12.55,24.56,24.56,0,0,0,.71,6.54A22.63,22.63,0,0,0,175.3,214l.86,1.35L175,214.26a21.38,21.38,0,0,1-4.32-5.66,23.49,23.49,0,0,1-1.86-5.22c-.21,1.94-.48,3.72-.82,5.39-.11.62-.25,1.26-.42,1.87l-.46,1.8a24.22,24.22,0,0,1-1.34,3.7,11.55,11.55,0,0,1-5,5.72l-1.4.7,1.18-1a10.83,10.83,0,0,0,3.24-6.08,24.74,24.74,0,0,0,.49-3.46l.15-2.79v-.88c0-2.35-.07-4.89-.33-8.16-.15.3-.29.6-.43.91a33.82,33.82,0,0,0-3.5,16.78l.12,1.62-.52-1.54a25.32,25.32,0,0,1-1.25-9,34.86,34.86,0,0,1,1.66-9.17l.16-.49a36.85,36.85,0,0,0-6,6.94,23.81,23.81,0,0,0-2.49,5.23l0,.41h-.1a20.49,20.49,0,0,0-.67,2.84,15.53,15.53,0,0,0,1.12,9.14l.67,1.43-1-1.21a14.83,14.83,0,0,1-3.22-8c0,1.82,0,3.34,0,4.78l-.41,0c-.12-.82-.23-1.71-.33-2.69-.06.34-.11.68-.16,1l-.25,1.59-.05-.5c-.57,3.41-1.1,6.64-1.58,9.6-.08,3.29-.15,6.71-.18,9.33,0,3.17-.1,5.45-.16,7.2,0,.9-.07,1.66-.11,2.3a12.22,12.22,0,0,0,0,1.44,5.43,5.43,0,0,0,.15,1.06c0,.1,0,.18.05.26a.67.67,0,0,1-.16.65.57.57,0,0,1-.75,0,1.28,1.28,0,0,1-.22-.17,211.92,211.92,0,0,1,1,23.55c0,1.75-.13,3.69-.28,5.92.07,1.11.12,2.14.16,3a62.87,62.87,0,0,1,0,7.33c-.1,1.09-.25,1.44-.65,1.44h0c-.37,0-.54-.32-.67-1.3-.08.56-.17,1.13-.26,1.7a96.4,96.4,0,0,1-3.21,13.34l0,.42h-.11c-.48,1.49-1,2.92-1.5,4.24l-.39-.12c.34-1.38.67-2.84,1-4.34l-.34-3.33-.1.78-.41,0c0-1.35,0-2.79,0-4.41l-.08-.57c-.33,2.34-.67,4.45-1,6.4l-.41,0c.23-4.3.41-8.75.53-13.22-1-7.49-2-13.89-2.85-19.53l-.12-.74c-.52,0-.93-.41-1.53-2.57a145.65,145.65,0,0,1-2.72-15l-.1-.72c-.3-1.63-.61-3.38-.82-5.14l-.38-2.9-.28-2.91q-.2-1.6-.4-3.29c-.57-2.74-.88-4.39-1-5.5-.24-1.71-.14-2.31.14-2.57L127,226.3l1.4,2c0-2.11.12-4.3.25-6.66.35-6.2.93-11.51,1.51-16.31.16-1.27.31-2.46.47-3.59,0-3.19.16-6.52.48-9.9l-1.12,2.08-.4,1.21v-.47l-.68,1.27.87-2.92c.92-4.18,1.9-8.26,2.9-12.12l.06-.31c.41-2.07.89-4.17,1.46-6.41l-.14-.06c-.48-.3-.38-.92.38-2.49.26-.53.6-1.17,1-1.9a122.18,122.18,0,0,1,4.29-12.08c1-2.48,2.19-5,3.48-7.56.66-1.47,1.34-2.93,2-4.32.51-1,1-2.06,1.55-3l-3.57,1.89,2.28-3.85c.68-1.14,1.45-2.35,2.3-3.59-1.18-.12-2.39-.27-3.7-.46l-.14,0-.41.39.25-.42h0l.5-.85,1.27-2.16c.47-.49.92-.94,1.38-1.37l0,0-1,.87.61-1,2-3.44,0,0c3.65-3.6,7.5-7.06,11.45-10.3l-.84-.16-.11,0c-1,.56-1.94,1.14-2.91,1.72l-1,.62.76-.93a41.14,41.14,0,0,0,2.85-3.87l.06-.06.12-.08c.64-.4,1.27-.79,1.9-1.17l0,.08,0-.09h0c.79-.47,1.54-.92,2.29-1.35,1.69-1,3.45-1.93,5.26-2.86h-1.13c-2.29,1.06-4.59,2.2-6.82,3.4l-.61.33.33-.61.09-.16.09-.15,3.23-3.87c1.7-.85,3.44-1.68,5.2-2.46h-.52l0-.41,2.11-.27c1.48-.63,3-1.25,4.66-1.9l-4.81.47,1.56-.56c2.22-.8,4.68-1.54,7.32-2.2l0-.05-3.81.73-1.33.26-3.78,1.3-1.51.52,1.32-.89c2.41-1.61,4.87-3.28,7.35-5l-1.11-.08v.33l-.09-.34c-1.51-.13-3-.31-4.37-.54l-1.59-.26,1.61-.15,4-.38a2.55,2.55,0,0,1,.94-2.05,7.29,7.29,0,0,1,2-1.27c1.33-.63,2.75-1.22,4.21-1.74,1.17-.42,2.4-.81,3.72-1.19h-.54a22.73,22.73,0,0,0-3.88.15l-.11,0-.4.19-1.42.74.83-.76-.22.06-1.49.45,1.32-.83a8.24,8.24,0,0,1,1.77-.81,11.72,11.72,0,0,1,1.26-.75H181.3l1.56-.39c1.54-.39,3.17-.76,5-1.13l1-.3-.37-.89a1,1,0,0,1,.16-.93,2.14,2.14,0,0,1,.66-.54,4.94,4.94,0,0,1,1.07-.4l.38-.11.34-.1c.81-.24,1.65-.49,2.49-.71,1.78-.49,3.65-.94,5.72-1.39a89.73,89.73,0,0,1,11.33-1.7c1.47-.12,2.94-.2,4.39-.25-2.85-.33-5.47-.68-7.92-1.06l-1.6-.25,1.61-.16c3.51-.36,7.39-.55,11.61-.59v-.2L223.1,78l-1.87-.08v-.41A197.58,197.58,0,0,1,242,76.91c-6.26-.28-12.92-.48-19.55-.57l0-.41a209.38,209.38,0,0,1,29.3-1.13,163.59,163.59,0,0,0-18.16,0l-.05-.41A90.27,90.27,0,0,1,246.9,73,56.53,56.53,0,0,0,233.53,72l-.06-.41a45.55,45.55,0,0,1,14.22-.27c4,.43,7.79,1.07,11.51,1.69l3.94.66,1.65.22c-.17-.22-.34-.46-.51-.72l-4.4-1.66c-8.71-1.06-18.25-1.8-27.54-2.13V69a152.64,152.64,0,0,1,19.83-.48c-2-.78-3.77-1.53-5.53-2.26l.13-.39c3.11.86,6.47,1.83,10,2.9,3.34.21,6.58.51,9.58.88a188,188,0,0,1,21.86,4,12.72,12.72,0,0,0-3.56-1.48l-1.56-.34,1.47-.06c-1.9-.63-4.13-1.39-6.32-2.15l-1.53-.53,1.61.13A100.92,100.92,0,0,1,294.35,72c-.46-.33-.9-.66-1.3-1l-1-.82-4-1.22,1.66.08a81.41,81.41,0,0,1,11.43,1.41l-6.8-1.73.07-.41c2.68.32,5.53.75,8.51,1.27-1.4-.68-2.78-1.33-4.1-1.92l.15-.39a88.62,88.62,0,0,1,8.77,3.22c3.31.66,6.61,1.41,9.79,2.21l-1-.73c-1.46-.59-2.71-1-3.91-1.4l.09-.4c.61.1,1.24.23,1.88.37l-2.42-1.81.23-.34c1.56.89,3.18,1.85,4.8,2.84a38.31,38.31,0,0,1,6.89,2.85c-.47-.35-.94-.68-1.4-1l-.15,0-.06-.18c-1.48-1-3-2-4.64-2.9l-.14,0-.16,0v-.09c-1.48-.83-2.93-1.58-4.32-2.23l.15-.38a43.8,43.8,0,0,1,6.09,2.48,47.9,47.9,0,0,1,5.72,1l-1.34-4,1.88,2.47A57.63,57.63,0,0,1,340,70.84a29.49,29.49,0,0,1,3.5,1.23,22.61,22.61,0,0,1,3.25,1.72,20,20,0,0,1,5.33,4.88,16.08,16.08,0,0,1,1.38,2.2l1.22,1-.27-.58.36-.2c.25.4.5.81.74,1.22l.3.49c.54.46,1.1.95,1.67,1.46l.32.17a9.3,9.3,0,0,0-1.9-3.17l.28-.3A9.83,9.83,0,0,1,359,85l0,.08A36.06,36.06,0,0,1,364,88.71c0-.11,0-.22,0-.34v0l-.51-.55.28-.3.07.06c-.09-.44-.19-.87-.29-1.29-.05-.12-.12-.27-.2-.41a1.79,1.79,0,0,0-1.74-1.07l-.07-.41a2.07,2.07,0,0,1,1,0l-1.16-1.47.3-.28a72.63,72.63,0,0,1,8.83,10.41,18.58,18.58,0,0,0-.95-3.4l.37-.17q.18.32.34.66l.26-.2c1.12,1.25,2.27,2.56,3.41,3.88a7.1,7.1,0,0,1,1.78.65l0,0,0-.12a1.3,1.3,0,0,1,.45.14,6.67,6.67,0,0,1-.27-1l.4-.1c.65,1.95,2.07,3.37,3.58,4.88.46.46.93.93,1.37,1.41.3.32.61.66.94,1-.1-.26-.21-.5-.33-.72a9.83,9.83,0,0,0-3.53-4l.2-.36a9.94,9.94,0,0,1,4.22,3.82,10.86,10.86,0,0,1,.88,1.73,4.79,4.79,0,0,0,.32-.72,16.14,16.14,0,0,1-1-6.66l.41,0a10.88,10.88,0,0,0,.14,1.53,32.59,32.59,0,0,0,3.16,6.19l.09.15c.4-.43.8-.87,1.19-1.32l.17-.21.08-.1c-.68-2-1.25-3.58-1.81-5.08l.38-.17c.67,1.27,1.34,2.67,2.11,4.4,1-1.2,1.78-2.31,2.5-3.39a5.27,5.27,0,0,0,1.14-2.37,1.39,1.39,0,0,0-.36-1.07,1,1,0,0,0-1-.35l-.16-.38a1.47,1.47,0,0,1,1.59.31,2,2,0,0,1,.7,1.5,5.66,5.66,0,0,1-1,2.81l0,.08a39.74,39.74,0,0,1-2.74,4.33l.42,1h0c-.06-.31-.11-.61-.15-.9l.41-.08a20.32,20.32,0,0,0,.63,1.93L392,104l-.32-.66.36-.2c.6.9,1.2,1.9,1.9,3.12,1.12,1.32,2.13,2.55,3.07,3.74a2.41,2.41,0,0,0,.06-1.06,1.69,1.69,0,0,0-1.51-1.44h0l0-.41a2.21,2.21,0,0,1,2.3,1.67,3.63,3.63,0,0,1-.07,2.13q.48.63.94,1.25l4.39,2.4q.84-1.18,1.6-2.29l.35.21q-.61,1.18-1.31,2.43l.47.26-.54-.12q-.68,1.21-1.45,2.48l.51.93.13-.28a4.07,4.07,0,0,1,2.06,1.91,5.78,5.78,0,0,1,.64,2.8,5.47,5.47,0,0,1-.19,1.46v.06c0,.06,0,.11,0,.17s.12.4.17.58a12.08,12.08,0,0,1,.43,2c0,.1,0,.19,0,.27a47.27,47.27,0,0,0,4.34-4.56l.33.24a37.54,37.54,0,0,1-3.45,4.55,1.39,1.39,0,0,1,.46.24,2,2,0,0,1,.46.47l.33-.1a8.17,8.17,0,0,1,.5,3.17l.27.36.35,0c0,.09,0,.17,0,.26s0,.11,0,.16l.91,1.19.39-.27.08.11h0l-.08-.11a4.29,4.29,0,0,0,.91-.88,2.9,2.9,0,0,0,.61-1.94l.41-.05a3.42,3.42,0,0,1-.44,2.38,5.13,5.13,0,0,1-1.07,1.27V134c0,.21.06.42.09.63l1.48,1.94v-1H413l-.09-1.38.41-.05c.15.81.3,1.62.44,2.45a7.21,7.21,0,0,0,1-1.2,6.11,6.11,0,0,0,.61-1.29c-.14-1.3-.28-2.46-.43-3.55l.32-.06q-.26-.84-.51-1.66l.38-.15c.92,2,1.8,4.17,2.62,6.47l2.9-1.36.2.36c-1,.62-2,1.22-2.84,1.73a85.25,85.25,0,0,1,2.49,8.66c.2.86.4,1.78.6,2.79l5.89,7.73-5-4.1.09.24,0,.06.3,1,0,.13.13.36a33.29,33.29,0,0,1,1.25,4.38c.29,1.33.52,2.72.71,4.25l.08.36.14.17h0c0-1.2-.07-2.4-.11-3.59l.41,0c.25,1.5.48,3.11.7,4.91l.24.31.43.56-.32.27-.25-.26a139.88,139.88,0,0,1,.87,16.77c0,1,0,2-.06,3.21.22,1.56.38,2.89.5,4.16a114.94,114.94,0,0,1-.19,22.68c-.32,3.18-.79,6.58-1.45,10.37-.37,2.13-.79,4.27-1.28,6.54A242.9,242.9,0,0,1,422,252.22c-.53,3.86-1.1,7.27-1.7,10.13a54.43,54.43,0,0,1-1.32,5.41l-.13.39,0,.13c-.34,2.91-.72,5.94-1.14,9.23a120,120,0,0,1-1.92,12l0,.89c-.54,11.5-1,14.1-1.37,15.06,0,1.33,0,2.61-.09,3.81C413.87,312.87,413.37,313.56,412.56,313.56Zm-12.29-90.28.33,1.26.37,1.39V226a101.36,101.36,0,0,0-.58,16.43c0,.94.09,1.92.17,2.87l0,.55c0,.39.06.78.09,1.17.05.73.11,1.48.2,2.19l0,.32c.25,2.13.48,4.15.81,6.14.64,4.32,1.47,8.51,2.14,11.87.6,2.9,1.18,5.64,1.73,8.2.86,4.05,1.61,7.55,2.19,10.61,1,5.06,1.76,9.77,2.37,14.41a45,45,0,0,0,.31,5.23c.15,1.1.3,1.13.31,1.13l.16,0,0,.16c.09.76.18,1.44.26,2,.44,3.8,1,3.81,1.32,3.81h0c.42,0,.9-.32,1.24-3.88.07-1.19.1-2.48.09-3.82l0-.08c.52-1.24.93-5.86,1.36-15l0-.94a121.28,121.28,0,0,0,1.92-12c.43-3.29.8-6.32,1.15-9.26l.05-.18.12-.38a54.15,54.15,0,0,0,1.31-5.37c.6-2.86,1.17-6.25,1.7-10.1a243.76,243.76,0,0,0,2.17-24.46c.49-2.3.91-4.44,1.28-6.56.66-3.78,1.13-7.16,1.45-10.34a114.87,114.87,0,0,0,.19-22.6h0c-.12-1.26-.28-2.59-.51-4.17,0-1.26.05-2.27.06-3.23a138.84,138.84,0,0,0-.94-17.32l0-.22q-.09-.72-.18-1.4c0,.21,0,.42,0,.63v.36s0,.08,0,.11v.15h0c0,.53,0,1.06,0,1.59V165l-.34-.09h-.18v-.18c-.1-.75-.22-1.51-.36-2.25l-.2-1c-.2-1.53-.43-2.91-.71-4.23a32.89,32.89,0,0,0-1.24-4.32l-.15-.41,0-.11-.28-.91-.1,0c-.08-.19-.17-.38-.26-.57l0-.06-.18-1.1,3.41,2.78-3.84-5.07c-.2-1-.4-2-.61-2.83a84.82,84.82,0,0,0-2.54-8.78l-.13-.36q-.59-1.68-1.22-3.26.49,1.68,1,3.44l0,.17-.8.38-.06-.24c-.16-.6-.32-1.21-.5-1.82v.08l-.06-.25s0,.07,0,.1v0h0l.07.7c0,.33.06.66.09,1l0,.56-2,1,.47-.65a7.33,7.33,0,0,0,.68-1.1h0l.1-.21-.12.2a7.91,7.91,0,0,1-1.31,1.55l-.28.26h0l-.21.18v.22l-.1-.13-.08.07,0-.2-1.87-2.45h0l-.77-1,.24-.18.16-.13.09-.07.39-.36-.13.1h0l-.07.05-.26.19h0l-.32.2-.16.09-2.54-3.33.05-.11.08-.19-.14.29L406,128.3l.12-.13.17-.19.1-.11,0,0,.21-.23q.76-.85,1.44-1.7-1,1-2.08,2l-.17.15-.29-.38v-.06c0-.12,0-.25,0-.42a11.59,11.59,0,0,0-.42-1.92c-.05-.19-.11-.39-.17-.6v-.07a1.2,1.2,0,0,0,0-.15v-.17a5.06,5.06,0,0,0,.19-1.38,5.62,5.62,0,0,0-.26-1.8,5.7,5.7,0,0,1,.09,1.75l-.07.7-.31-.63a3.84,3.84,0,0,0-.57-.86l0-.06-.07-.17a40.61,40.61,0,0,0-2.08-4.14l-.07-.11,0-.15q.59-1,1.14-1.93l-1.14,1.58-.18.25-.16-.27-.48-.79c-.4-.84-.78-1.57-1.11-2.15l-.23-.41,1.77.4-3-1.66q-.5-.68-1-1.37l-.06-.09,0-.1a4.05,4.05,0,0,0,.21-1.17,4,4,0,0,1-.2.81l-.13.35-.23-.3c-1-1.28-2.08-2.61-3.32-4.07v0l-.91-1.06-.36-.42,1.68,2.31c.45,1,.86,1.92,1.26,2.84L396,112l-1.12-1.59c-.87-1.23-1.8-2.53-2.86-4l0,0c-.33-.67-.63-1.33-.91-2l0,.14.49,1.47-1-1.51-.17-.32c-.42-1.11-.86-2.2-1.35-3.34l0-.11.07-.09a39.19,39.19,0,0,0,2.78-4.39l.05-.09a7.1,7.1,0,0,0,.83-1.89,7.67,7.67,0,0,1-1.06,1.86c-.78,1.17-1.67,2.37-2.73,3.68l-.21.26-.14-.31-.56-1.25.55,1.59,0,.11-.08.09-.15.18-.18.22c-.42.5-.87,1-1.31,1.45l-.26.28-.37-.62c-.69-1.14-1.39-2.3-2-3.5.58,1.48,1.32,2.91,2,4.31l.07.13-.43.43h0l-.17.16-.26-.62c-.18-.47-.37-.93-.56-1.4-.47-1.15-1-2.44-1.4-3.75a26.14,26.14,0,0,0,.79,2.88l0,.06h0l0,.07.28.84.11.35.09.27-.11,0c.18.45.37.93.6,1.45l.2,0-.61.6-.14-.11-.89-.7-.05,0,0-.07c-.1-.4-.21-.76-.32-1.09l-.15-.38a11.06,11.06,0,0,0-1-2,9.64,9.64,0,0,0-1.21-1.59,10.36,10.36,0,0,1,1,1.69,11.33,11.33,0,0,1,.73,1.84l.31,1-.67-.8c-.61-.73-1.14-1.33-1.65-1.88s-.91-.95-1.36-1.4a29.24,29.24,0,0,1-2-2.16l.08.16-.87-.78-.27-.23-.1-.08.11.11.07.07v0l.14.15a9.09,9.09,0,0,1,.65.77,10.63,10.63,0,0,1,1.14,2.2l.26.66-.57-.42-1-.71-.12-.1-.92-1.09,0,0h0l-.21-.25q-1.08-1.28-2.19-2.56l-.15-.17-.94-1.08c.72,1,1.51,2.07,2.39,3.25l.77,1-1.06-.74c-1.2-.84-2.41-1.67-3.58-2.45l-.07,0,0-.08c-.08-.34-.16-.67-.25-1,0,.18.06.35.09.53l.07.46-.78-.53A75,75,0,0,0,363.42,85l-.1.1a2.74,2.74,0,0,1,.37.55,4.21,4.21,0,0,1,.2.42l.28-.19c1.42,1.88,2.77,3.78,4,5.64l1.12,1.65-1.43-1.39q-.78-.75-1.59-1.5l.21.24,1.07,1.19-2.76-1.82,0-.08c-.05-.23-.11-.46-.17-.69l0-.13-.08-.64,0,0c0-.12,0-.24,0-.36a6.59,6.59,0,0,0-.53-1.62c.13.55.25,1.1.36,1.66l.11.57-.05,0c0,.21,0,.4,0,.6v.46l-.34-.3a35.67,35.67,0,0,0-5.27-3.91l-.06,0-.07-.22a11.52,11.52,0,0,0-.57-1.24c.11.27.21.55.3.84l.16.51L358.1,85l-.82-.45c-.61-.54-1.18-1-1.72-1.5l-.4-.33c-.59-.49-1.22-1-1.94-1.56l-.05-.07a15.85,15.85,0,0,0-1.36-2.18,19.59,19.59,0,0,0-5.22-4.78,22.15,22.15,0,0,0-3.19-1.69,29,29,0,0,0-3.45-1.21,48.15,48.15,0,0,0-10.8-1.49,59.19,59.19,0,0,1,10.52,2.38,22.19,22.19,0,0,1,10.44,7.1l.68.87-1.22-.74-.88-.52a64.45,64.45,0,0,0-14.1-6,93.72,93.72,0,0,1,13.61,6.78l-.05-.05,1.65,1c.68.43,1.35.87,2,1.29l0,0,.12.23c.05.1.11.21.16.32.22.78.4,1.55.57,2.4l.27,1.37L352.24,85c-.29-.54-.67-1.25-1.09-2a12.25,12.25,0,0,0-.77-1.14l-.25.18L350,81.9l0,0-2,1.55h-.09l-.37-.06h-.06l0,0a33.6,33.6,0,0,0-3.13-2.74,50.63,50.63,0,0,0-7.37-4.83h0l-.78-.4c-1.45-.75-2.89-1.41-4.29-2a48.68,48.68,0,0,0-4.64-1.6l-.06,0,0-.05-1.9-2.5h0l-.13-.17.79,2.37-.36-.09c-1.54-.39-3.08-.7-4.6-.93,1.67.45,3.37,1,5.07,1.59l.09,0,.63,1.9-.45-.22c-1.12-.56-2.13-1-3.1-1.43h0c-.88-.54-1.84-1.08-2.84-1.6l-.93-.48q-1.34-.66-2.67-1.22l1.26.7.82.46h0c1.42.83,2.8,1.7,4.11,2.61l.36.25h0c.81.57,1.62,1.16,2.46,1.81l.86.67h0l.4.32-1.63-.48-.46-.27c-.2-.13-.41-.25-.62-.37a37.85,37.85,0,0,0-7.12-3l0,0-1.67-1,.3.22.84.62-.6-.15.83.33,2.75,2-1.73-.45c-3.28-.84-6.69-1.61-10.15-2.3q-2.77-1.17-5.43-2.12l2.23,1.09,1.31.65-1.44-.26c-2.2-.4-4.35-.75-6.4-1.05L304,70.75l0,.19,4.74,1.13.05,0,2.06,1.11L309,72.71l-1.85-.5c-1-.26-2.1-.52-3.31-.79h0l-.31-.07a87.09,87.09,0,0,0-12.11-1.8l6,1.83-.1.4-.11,0c.88.38,1.81.78,2.82,1.19l1.31.54L300,73.35l-1.38-.13c-1.43-.49-2.71-1-3.89-1.47l.84.56,1.1.7-1.26-.33A104.85,104.85,0,0,0,280,69.83c2.22.76,4.38,1.48,6.11,2.06l-.07.3A22.18,22.18,0,0,1,289.55,74l1.33.79-1.38-.35a188.7,188.7,0,0,0-23.21-4.37c-3-.37-6.22-.66-9.6-.88q-3.45-1-6.64-2l3.4,1.37,1.14.45L253.35,69a157.84,157.84,0,0,0-17.56.15c8.2.37,16.5,1.06,24.19,2l4.51,1.69.19.07,4.88,1.8-.11.4c-1.19-.22-2.42-.43-3.66-.62l-.54-.08-2.17-.3-3.95-.66c-3.71-.62-7.54-1.25-11.48-1.69A52.58,52.58,0,0,0,237,71.53a67.68,67.68,0,0,1,10.56,1.14l.89.16.54.1,0,.41a94.79,94.79,0,0,0-11.82.91,157,157,0,0,1,21,.64l2,.23.81.15-.05.41-3.47-.22a216.24,216.24,0,0,0-31.47.53c7.66.14,15.26.42,22.16.82v.41c-1.61,0-3.35.06-5.33.12-6.18-.16-12.32-.06-18,.29l1.88.09v.41l-4.42.32c3.24.11,6.83.2,11.23.29v.41l-.55,0-.51,0-.41,0a167.83,167.83,0,0,0-23.12.08c3,.43,6.25.83,9.87,1.2l0,.41a78.18,78.18,0,0,0-8,.26,89.48,89.48,0,0,0-11.28,1.69c-2.06.45-3.92.9-5.7,1.38-.83.22-1.67.47-2.48.71l-.33.1-.39.12a6,6,0,0,0-.75.25,6,6,0,0,1,.75-.07l.44,0,8.71-.71,2.1-.17,2.18-.17-2.31.68-.7.21c-1.35.26-2.48.48-3.56.72-2.77.59-5.46,1.25-8,1.94l-.34.1v0l-1.11.32c-1.18.24-2.27.48-3.3.72h1.05l-.92.41a12.35,12.35,0,0,0-2.06,1.13l-.05,0-.07,0h0l0,0a26.37,26.37,0,0,1,3.56-.1c.63,0,1.28,0,1.92,0l1.36,0-1.46.52c-1.78.47-3.37,1-4.87,1.5s-2.85,1.1-4.18,1.73a6.89,6.89,0,0,0-1.94,1.2,2.69,2.69,0,0,0-.35.38,3.26,3.26,0,0,1,.42-.29l.12-.06.07,0,.08,0,1.37-.12h.17l3.86-.36.79-.08-.66.45-2.65,1.83-.1,0-3.89.4v.55l1.73.12.61,0-.5.34c-2.19,1.5-4.39,3-6.54,4.43l2.86-1,.71-.24,1.32-.44.4-.13.15.38-.07,0,2.75-.52.64-.12-1,1.07h-.06c-2,.5-3.91,1-5.67,1.63l4.45-.44-1.44.55c-2.27.86-4.2,1.65-6.09,2.45l-.6.26c-2,.89-4.09,1.84-6.06,2.84L161,112.73c2-1.05,4-2.06,6.1-3l.09,0H170l-.76.39c-2.06,1.05-4.08,2.14-6,3.24-.76.43-1.52.89-2.28,1.34l-.05,0c-.63.38-1.26.77-1.9,1.17l-.08.05c-.64,1-1.34,2-2.12,3l1.66-1h0l0,0,.29-.17.54-.31.82-.47h0l.58-.33c1.21-.68,2.3-1.28,3.31-1.83l.92-.49.22.35-.11.09h0l-1,.8c-.64.49-1.28,1-1.92,1.49h0l-.34.28-.51.42-.4.33,0,0h0l-.35.29c-4.05,3.31-8,6.86-11.75,10.54l-1.36,2.36,1.18-1,.05,0,1.29,0-.49.39c-.69.54-1.35,1.09-2,1.63l.11.07-.2.18c-.52.48-1,1-1.53,1.5l-.53.92c.85-.76,1.73-1.49,2.64-2.19h0l.47-.35c.61-.45,1.24-.91,1.9-1.36h0l.21-.15.18-.12.41-.28.41-.27,0,0h.06l1.11-.07,1-.06-.65.8h0l-.45.55-.61.77c-.44.55-.84,1.07-1.23,1.58h0l-.18.24c-.68.89-1.32,1.76-1.9,2.58l-.06.09h-.11l-2.86,0c.83.11,1.62.2,2.41.27l.35,0-.2.29c-.93,1.34-1.76,2.63-2.49,3.85l-1.53,2.59,2.58-1.36.17-.1.12-.08.63-.37-.34.65c-.62,1.17-1.26,2.44-1.88,3.66-.67,1.38-1.35,2.83-2,4.31-1.28,2.54-2.45,5.07-3.47,7.54a123.46,123.46,0,0,0-4.29,12.08c-.42.76-.76,1.39-1,1.92-.85,1.76-.62,1.9-.53,2a.19.19,0,0,0,.14,0l.33-.07-.08.33c-.6,2.32-1.1,4.49-1.52,6.63L133,181c-1,3.65-1.88,7.49-2.75,11.43l1.4-2.6-.11,1a107.49,107.49,0,0,0-.58,10.91c-.15,1.16-.31,2.35-.47,3.62-.58,4.8-1.16,10.09-1.51,16.28-.14,2.59-.22,5-.26,7.28v.64l-1.22-1.76L128,232l-.12.07c-.22.12-.24.88,0,2.23.15,1.11.47,2.75,1,5.5.14,1.15.27,2.25.41,3.32l.28,2.91.38,2.9c.21,1.74.52,3.49.82,5.12l.1.73a145.09,145.09,0,0,0,2.71,15c.65,2.35,1,2.28,1.15,2.26l.08,0,.24-.09.2,1.21c.9,5.65,1.84,12,2.86,19.57-.09,3.31-.21,6.6-.36,9.81.22-1.41.44-2.89.66-4.49l.21-1.52.48,3.64q0,.3,0,.6l0-.36.4,3.08.38,3.72v0l-.22,1L140,307l.16-.51a97.07,97.07,0,0,0,3.07-12.92c.2-1.19.37-2.42.51-3.5h.41c0,.73.09,1.28.14,1.68.12.95.24,1,.26,1.06s.17-.14.25-1.07a62.56,62.56,0,0,0,0-7.27c0-.88-.1-1.92-.16-3,.15-2.25.24-4.18.28-5.93a214,214,0,0,0-1-24.18l-.08-.88.46.76a1.71,1.71,0,0,0,.52.58c.18.1.22.07.26,0s.08-.08,0-.28,0-.15,0-.23a5.76,5.76,0,0,1-.16-1.13,12.51,12.51,0,0,1,0-1.49c0-.63.08-1.39.11-2.28.06-1.74.11-4,.16-7.19,0-2.62.11-6,.19-9.36.56-3.44,1.19-7.21,1.85-11.2l.27-1.65,0,.47.13-.75.2-1.12.27,1.47v.15c0-.5,0-1,0-1.58l0-.1a5.05,5.05,0,0,0,.3-.66l.36-1,.05,1a15.62,15.62,0,0,0,2.23,7.58,16.41,16.41,0,0,1-.54-7.83,21.28,21.28,0,0,1,.77-3.16l.35-1.08v.08A24.2,24.2,0,0,1,154,206a38.57,38.57,0,0,1,6.64-7.59l.6-.55-.39,1.12c-.11.3-.21.61-.31.92a34.44,34.44,0,0,0-1.64,9.06,25.5,25.5,0,0,0,.75,7.28,35.24,35.24,0,0,1,3.61-15.31c.25-.53.51-1.06.77-1.58l.33-.66.06.73c.31,3.64.43,6.39.39,8.93v.89l-.16,2.8a25.1,25.1,0,0,1-.5,3.52,12.36,12.36,0,0,1-2.22,5.08,12.37,12.37,0,0,0,3.47-4.65,23.83,23.83,0,0,0,1.32-3.64l.46-1.8c.17-.6.3-1.22.41-1.84a64.1,64.1,0,0,0,.95-6.68l.14-1.47.27,1.45a24,24,0,0,0,2.1,6.41,21.09,21.09,0,0,0,3.09,4.39,22.9,22.9,0,0,1-1.95-4.83,25,25,0,0,1-.73-6.66,32.08,32.08,0,0,1,3.18-12.72,31.55,31.55,0,0,1,1.64-3.05l.43-.71,0,.83c-.06,1.14-.09,2.18-.07,3.17A80.58,80.58,0,0,0,178,202.09a125.41,125.41,0,0,1,1.43-13,38.58,38.58,0,0,1,3.9-12l.32-.39q1-.92,2-1.78l.3.28a28.37,28.37,0,0,0-2.68,4.06,20.29,20.29,0,0,0-1.91,5.12,16,16,0,0,0-.35,3.63,17.41,17.41,0,0,1,1.14-3.38,21.54,21.54,0,0,1,2.71-4.35,36.33,36.33,0,0,1,7.54-6.86l.72-.49,1.79-1.22-1.19,1.3-.3.31-.38.41c-.79.91-1.44,1.73-2,2.58l-.49.7-.62,1c-.07.11-.11.18-.15.25l-.08.14-.42.72a23.91,23.91,0,0,0-2.34,6.14,19.45,19.45,0,0,0-.39,6.43,15.08,15.08,0,0,0,1.21,4.4,16.12,16.12,0,0,1-.17-4.42,20,20,0,0,1,1.52-5.72,23.84,23.84,0,0,1,3-5l.53-.66a1.35,1.35,0,0,1,.15-.18l.74-.86.49-.51c.61-.64,1.31-1.32,2.09-2a75.22,75.22,0,0,1,9.58-6.9l2.54-1.62-.54.81a51.54,51.54,0,0,0-3.88,7A47.07,47.07,0,0,0,199.89,202a55.22,55.22,0,0,1,7.94-23.86,50.05,50.05,0,0,1,8.08-10l1.22-1.15,1.17-1c.53-.47,1.12-.94,1.7-1.39l.7-.56c1.69-1.29,3.4-2.49,5.09-3.58,3.6-2.34,7.34-4.45,10.51-6.22l.1,0h1.3a70.57,70.57,0,0,0,9.93-.85,73.14,73.14,0,0,0,8.76-1.51h4.89l-1.78.57-1.39.45-1.77.32,1-.07-1.74.53-2.08.62c2.48-.45,5-1,7.63-1.69,1.36-.22,2.51-.44,3.52-.68l.47-.11.23-.05c3-.12,5.75-.29,8.36-.52q1,0,2-.06l1.1-.06-1,.46-.35.17-.46.21c-1.31.43-2.5.79-3.64,1.11a106,106,0,0,1-15.19,3,70.34,70.34,0,0,0,9.75-1,35.11,35.11,0,0,0,5.66-1.12c.33-.09.65-.2,1-.3l.45-.15a77.68,77.68,0,0,0,9.19-3.19c.92-.18,1.76-.35,2.6-.54l2-.15,1-.11,1.43-.16-1,.52-4.81,2.45q-2.39.68-4.78,1.28l2-.31,1.36-.23-2,1c1.15-.44,2.16-.85,3.09-1.23q2-.4,3.86-.86H287l1.8-.46.14.39-.72.34h0l-.61.26c-.93.4-1.78.72-2.59,1a20.32,20.32,0,0,1-5,1l-1.08.07a18,18,0,0,0,6.26-.57,29.74,29.74,0,0,0,4.55-1.6l0,0h0l.82-.38c1.21-.57,2.43-1.21,3.76-2l.51-.3.5-.25c.86-.14,1.61-.28,2.33-.43.9-.19,1.86-.44,3-.78l1.5-.43-1.5.91c-1.12.65-2.3,1.3-3.52,1.92h.28l-1.23.45-.31.12-.58.21a22.38,22.38,0,0,1-4.63,1h-.15a20.36,20.36,0,0,0,2.1-.11l1.45-.16-1.35.55q-1.86.76-3.66,1.35a42.52,42.52,0,0,0,8.29-2.82q1.07-.37,2.08-.81h.05a34.05,34.05,0,0,0,9.9-3.07l.19-.1.25-.11.48,0a73.94,73.94,0,0,0,8.86-1l1-.19.33-.06c1.83-.36,3.78-.84,5.8-1.43l.07,0,.74.27a34.39,34.39,0,0,0,5.05,1.44,26.48,26.48,0,0,0,7,.48h.07l1.36.41,1.49.46-1.56-.05c-2.49-.08-5.28-.21-8.09-.35l-11.2-.65c3.6.55,7.41,1,11.16,1.27,4.6.35,8.64.46,11.65.52h.35c1.08.36,2.13.72,3.12,1.07,3.08,1.79,5.79,3.32,8.32,4.68.87.55,1.69,1.08,2.43,1.57,2.59,2.71,6.18,6.45,9.87,10.17-1.31-1.6-2.73-3.27-4.24-5h0l.31-.27h0c1.73,2,3.31,3.77,4.85,5.47l3.18,3.49c.71.91,1.39,1.75,2,2.54l.13-.1-2.67-3.46q-1.6-2.46-3.13-4.86l-.53-.84.82.56c.78.53,1.61,1.07,2.6,1.71l.06.06c1.47,2.16,3,4.48,4.61,6.89l2.68,4.07c.16.26.33.51.5.76a15,15,0,0,1,.81,1.29l0-.3.48,1.14c1.11,2.65,2.18,5.12,3.2,7.39l.34-.12.08.2a92.86,92.86,0,0,0-3.91-10.65c-.55-1.25-1.15-2.54-1.83-3.93l-.61-1.57,1,1,1.2,1.2,0,.06c.44.95.88,1.91,1.32,2.88.22.65.43,1.3.65,2,1.51,4.67,3.06,10.15,4.47,15.85.31,1.52.59,2.9.86,4.17-.37-3.39-.81-6.8-1.27-10l-.24-1.64.63,1.53q1.1,2.66,2.19,5.35c.54,2.9,1,6,1.34,9,0-1.76-.15-3.58-.34-5.44l-.15-1.46,1.32,3.33c.23,2.13.39,4.34.46,6.51q.07-1.18.08-2.41l0-1.69.51,2.17.22,1h0l.29,1.27c.83,3.66,1.65,7.51,2.22,11.35A81.63,81.63,0,0,0,393.29,205l.32-.09c-.38-1.41-.8-2.91-1.26-4.53l0-.11c0-.76,0-1.46,0-2.13l0-1.34.42,1.27c.68,2,1.34,4.06,2,6,.86,5.29,1.52,10.5,2,15.57,0-.25,0-.48,0-.71l.41,0,.09.83c0-1.25,0-2.59,0-4.06l.41,0v0c0-.1,0-.19,0-.29l.41,0,.6,2.8c0,2.19.09,4.17.16,6v-.37h.41c-.07,4-.07,7.41.16,10.72.15-3.25.48-6.57.85-10.16ZM184.36,176.56l-.44.41-.28.34a29.42,29.42,0,0,0-1.29,2.71q.23-.5.49-1A27,27,0,0,1,184.36,176.56ZM379,171.9c.62,1.27,1.17,2.47,1.68,3.64.63,1.43,1.23,2.89,1.79,4.37-.26-.85-.53-1.69-.79-2.49q-.32-1-.64-1.93c-.42-.94-.86-1.89-1.29-2.82Zm-9.52-7.74q1.27,2,2.59,4l2.78,3.6a5.13,5.13,0,0,0,1.71,1.52l-.75-1.14c-1.58-2.39-3.12-4.7-4.58-6.85Zm-90.91-9.6.13,0,0,0Zm-.54-.43.9,0,.41-.2Zm8.4-1.59c-1.1.26-2.21.51-3.3.73l-1.66.67a20.92,20.92,0,0,0,3.37-.83h0C285.39,152.94,285.91,152.76,286.46,152.54Zm12.79-3.42c-.52.13-1,.25-1.48.35-.73.16-1.48.3-2.32.43l-.11,0-.27.17-.51.3c-.92.53-1.8,1-2.65,1.43a22.33,22.33,0,0,0,3.3-.79l.22-.08,0-.23.78-.12.26,0C297.41,150.11,298.35,149.62,299.25,149.12Zm33.24-2.42.54,0-.86-.17a34.78,34.78,0,0,1-5.08-1.45h-.45l-.76,0v0c-1.42.41-2.81.75-4.15,1Zm83-10.9c-.09.17-.18.35-.29.53l.36-.17,0-.28v-.14l0,.06Zm-270.88.3c1.38,0,2.67.05,3.93,0,.51-.72,1.07-1.48,1.66-2.26l-.13,0-.57-.17.1-.4.61.1.32.05c.4-.52.81-1.05,1.25-1.61l.55-.69-1.41-.08c-.52.35-1,.71-1.53,1.07l.2.34a2.14,2.14,0,0,1-1.13.35,45.35,45.35,0,0,0-3.85,3.27Zm271.51-2.46c.2.67.39,1.34.56,2l0,0q-.29-1.07-.58-2.1Zm-9.52-5.31,1.13,1.48a1.42,1.42,0,0,0-.88-1.75l-.06.07Zm-2.28-6.52a3.39,3.39,0,0,1,.25.31,4.1,4.1,0,0,0-1.77-3.48c.6,1.13,1.1,2.16,1.46,3Zm-244.4-4.21.84.05.34-.28.17-.14-.52-.11Zm1.69-1,.36,0,1-.79Zm238.82-2.32c.28.51.58,1.1.89,1.75l.31.51,1.23-1.7Zm-8-8.14,1.71,2.35-.44-1c-.62-.84-1.21-1.65-1.76-2.42Q392.1,105.64,392.36,106.18Zm-8.07-3.08.52.41v0h.12c-.29-.69-.54-1.31-.75-1.89-.06.15-.13.3-.21.45C384.09,102.36,384.2,102.71,384.29,103.1Zm-6.85-5.15.06,0,.38.28a9.48,9.48,0,0,0-.81-1.43c-.1-.13-.2-.26-.32-.39,0,.08,0,.15-.05.23s-.06.2-.1.29Zm-204-.12c.81.11,1.64.2,2.49.27l-.13-.49Zm210-1.57c0,.37.1.73.17,1.1l.26-.08C383.69,96.94,383.55,96.6,383.42,96.26Zm-206.06-.42-.06,0-.07,0a2,2,0,0,0-1,1.26l3.77-.38,2-1.34-3,.28-.12.07-.22.15-1.3.95.9-1.1ZM374.7,94.71l1.39,1.63a2.8,2.8,0,0,0,.11-.53,7.73,7.73,0,0,0-.88-.75A5.27,5.27,0,0,0,374.7,94.71Zm-3.15-.87L374,95.53c-1.38-1.86-2.53-3.46-3.55-4.94A18,18,0,0,1,371.55,93.84ZM365,88.55q.91.79,1.78,1.6-1-1.37-2-2.74c0,.17.09.35.13.54s0,.35.06.51ZM199.36,85.11l-8.35.68-.45,0a4.16,4.16,0,0,0-.9.12c-.51.14-.75.36-.72.66l.1,1,.27-.08c2.53-.7,5.22-1.35,8-1.95Zm151.41-3.4a12.91,12.91,0,0,1,.74,1.1l.41.71c-.08-.32-.16-.63-.24-.94l-.14-.26-.07-.14Zm-3.1,1.24.21,0,.9-.7L349,82l.08.06.69-.54a7.85,7.85,0,0,0-.7-.88l-.23-.14L348,80a94.57,94.57,0,0,0-17-8.07l.11-.4a63.52,63.52,0,0,1,17.73,7l.12.07a22.28,22.28,0,0,0-9.48-6,69.87,69.87,0,0,0-12.86-2.72l-.5-.07,1.24,1.64c1.61.47,3.16,1,4.61,1.59,1,.42,2.11.89,3.19,1.42l0,0,.26-.32c.56.4,1.14.85,1.75,1.37a50.51,50.51,0,0,1,7.39,4.84A34.21,34.21,0,0,1,347.67,82.95Zm-81.8-8.86,1.37.22-1.87-.69Zm57.46-2.25c.84.36,1.72.76,2.66,1.22l-.26-.77c-1.23-.44-2.46-.84-3.68-1.2Zm-30.73-1.51.67.31a52.6,52.6,0,0,0,5.39,2.15c-1.15-.48-2.2-.94-3.2-1.4l-1.36-.61Zm-144,143.76-.41,0v-.19l.12-.6c.07-.36.14-.72.22-1.06l.41.06,0,.19-.09.42ZM391.8,197.76c-.23-1.09-.45-2.13-.65-3.12l.4-.11.6,1.84c0,.43,0,.87.05,1.34ZM157.4,193.38l-.33-.25.12-.16.84-.26-.61.65h0Zm221.53-17.51c-.77-1.44-1.55-2.86-2.33-4.21-.87-1.53-1.81-3.1-2.86-4.81l-.47-.76.84.54.3.27.36.33,0,0,1.42,1.62c.47.87.94,1.77,1.42,2.73q.79,2,1.66,4.09Zm-4-7.82c.71,1.18,1.38,2.31,2,3.41l.61,1.08-.3-.76c-.48-.94-.94-1.84-1.38-2.67Zm-6.59-5.84-1-.63-.85-1.37.93.74.71.58.42.34ZM363.27,160h0l-.7-.8.28-.3-.13.16.14-.15.72.82Zm1.57-.3-1.69-2.07,1.69,1.31.33.52Zm-3.27-2.29L360,156.31l-.67-.74-.1-.11-.85-1,1.48,1Zm-4.29-2.88-1.33-.81-1.31-.79h0c-.81-.48-1.72-1-2.79-1.56L352,151l1.84.73c.57.32,1.12.64,1.66,1l0,0ZM237.86,153.4l3-1.64h.05c1.48,0,3.74,0,6.28,0l0,.41c-2.65.49-5.47.88-8.36,1.14Zm3.08-1.22-1.14.63c1.64-.17,3.26-.37,4.82-.61C243.17,152.19,241.89,152.18,240.94,152.17Zm48.41-1.61-.13-.33-.19,0,1.2-.56.75-.36.56-.26,1.57-.24.1.4-.48.17-1.49.52h0Zm12.35-.75-.15-.38c.58-.3,1.14-.61,1.65-.91s1.33-.81,2.15-1.34l.06,0h.07c.56,0,1.24.06,2,.06h1l-.85.39A43.11,43.11,0,0,1,301.7,149.81Zm3.81-2.26c-.74.48-1.37.88-2,1.23,1-.36,2.06-.76,3-1.18Zm.5-.82,1-.71c.84-.37,1.68-.75,2.59-1.19l0,0h.05q.82,0,2.24,0l.78,0-.66.41c-.64.41-1.34.81-2.13,1.25l-.06,0-1.29.21Zm3.75-1.51c-.8.38-1.54.72-2.25,1l1,0,1.22-.2c.51-.28,1-.55,1.42-.81C310.63,145.23,310.15,145.23,309.77,145.22Zm29.11,1.29-2-.16a30,30,0,0,1-4.51-.69c-.53-.12-1.08-.26-1.74-.44l-1.77-.49H329l-1.09-.37-.58-.2.58-.19.31-.1.12,0h0l1.77.25,2,.53-1.33.07-1.35.07,1.19.06,2.77.16h0l3.44,1Zm-6.08-1.16q.71.16,1.46.28l-.88-.24Zm-17.73.8-.06-.41a46.38,46.38,0,0,0,5.82-1.56l.12,0,3.08-.29h1l1,.43-.64.14c-1.87.41-3.47.73-4.89,1C318.73,145.69,316.91,146,315.07,146.16Zm9.05-1.89h-.07l-3,.28h0l-.06,0c-.69.24-1.39.46-2.11.66l1.57-.25C321.53,144.8,322.75,144.56,324.13,144.27Zm95.44,1.83-1.46-1.91v-.06c-.09-.74-.18-1.45-.27-2.13l-.21,0c-.33-1.82-.74-3.69-1.22-5.56l0-.15.32-.18.24-.14.23-.14.07.26c.85,3.14,1.54,6.05,2.08,8.67ZM418.51,144l.31.4q-.27-1.32-.6-2.73C418.32,142.44,418.42,143.21,418.51,144Zm-1.66-7.51c.31,1.24.6,2.48.85,3.7h.16q-.44-1.8-1-3.72h0Zm-105,9.55,1-.64c.38-.24.76-.49,1.11-.73l0,0h.06l1.4-.09,3-.21-1.91.55c-1.16.33-2.34.64-3.51.9Zm2.31-1-.09.06.31-.08Zm-3.33-.79,1.33-.7.29-.11.28-.11h.06l.89-.05.52,0,.71,0-.75.55-.31.22,0,0h-.06l-1.87.15Zm4.23-.35.54-.42.3-.24.15-.12h.07c1.1,0,2.12,0,3.11,0h.63v.41l-4.13.32Zm101.26-2.11-.49-.65h0l-.66-.87h0l-1.56-2.09,0-.29.13-.07.58-.33.71-.4.72-.41.28-.16,0,.32c.13,1.54.23,2.94.29,4.28Zm-.69-3,.15.74c0-.74-.1-1.51-.17-2.32l-.59.34c.08.41.16.83.24,1.3Zm-1.6-.68.61.81h0q0-.56-.07-1.12l-.13.08ZM149,130l.51-.46c2.16-1.8,4.08-3.35,5.85-4.75l.12-.09c1-.79,2.06-1.61,3.21-2.49h0l.52-.4c1.14-.86,2.27-1.71,3.41-2.54l.28.3L160.66,122l-.61.68-.82.92-.36.41-.27.3-.84.53-1,.62c-2.2,1.38-4.31,2.83-6.26,4.31l-.1,0Zm6.53-4.82c-1.59,1.26-3.3,2.64-5.2,4.21h0c1.82-1.39,3.78-2.74,5.83-4Zm.58-.46.91.1.57-.35.81-.51.21-.24.36-.41.82-.92.05-.06-.58,0C158.08,123.12,157,123.92,156.06,124.69Zm5.07-3.88-1.2.9.4,0Zm-8.58,8.64,1.26-.79,1-.63,1.07-.65-1.5,1.8Zm251.38-3.93-.69-2.46.39-.13.29.75.11.29c.11.26.2.5.28.73l0,.08,0,.08-.09.17Zm-6.64-13.6-1.29-.7,0-.06-.41-.85-.15-.31.35-.21.65.91ZM393,109.54l-.74-.4,0-.08c-.24-.75-.48-1.5-.74-2.26l.39-.14.92,2.36Zm-225.25-.13,1.13-.5c1.81-.81,3.67-1.59,5.53-2.34l.88-.35-1.72,1.8-2.26,1.09-.08,0-2.26.19Zm5.94-2.11c-1.18.48-2.36,1-3.51,1.48l1-.08,2.19-1.05Zm217.94,2-.92-1.65q-.32-.58-.65-1.13l.41.87.85,1.82-.76-1,0,0-1.13-.62,0-.06c-.35-.79-.69-1.51-1-2.2h0l-.07-.09c-.33-.64-.68-1.27-1-1.9l-.07-.13.09-.11c.58-.68,1-1.26,1.47-1.82l.24-.31.79,2.33,0,0q.69,2.1,1.33,4.23Zm-3.25-6.12c.61.85,1.21,1.76,1.79,2.73-.39-1.27-.8-2.52-1.21-3.76l-.06-.1h0l-.07-.21c-.34.44-.71.9-1.15,1.42.34.6.66,1.19,1,1.76l.56.72c-.41-.85-.81-1.62-1.19-2.34Zm.05,3.74-1.79-1.45,0-.06-.36-1,0-.12.3-.33h0l.25-.26.28.35.52.77-.09-.06,0,0c.19.4.36.8.54,1.2Zm-1.44-1.7.37.3-.23-.5a3.28,3.28,0,0,0-.27-.28l-.07-.06Zm-4.86-3.3-1.78-1.34-.88-.67-.05,0,0-.06c-.11-.33-.23-.68-.37-1l-.75-1.51,1.3,1.51c.41.47.81.95,1.2,1.43l.17.22ZM190.43,89.31l-.05-.41,1.13-.14.71,0-.61.45-.1,0Zm148.85-9.6-.1,0L337.31,79l-.05,0,0,0c-.58-.64-1.11-1.18-1.62-1.65s-1-.86-1.47-1.27l.23-.34A57.86,57.86,0,0,1,339.71,79l.23.16Zm-1.78-1.06,1.7.6,0,0c-1.07-.74-2.14-1.44-3.22-2.09C336.49,77.58,337,78.08,337.5,78.65Zm-1,.08-1.05-.35-2.4-.79-.05,0c-.8-.55-1.65-1.09-2.59-1.66l-.06-.05-2.45-3.23.71.29c1.15.48,2.08.89,2.93,1.29l.3.16.27.14a31.64,31.64,0,0,1,3.88,3.65Zm-3.3-1.52,1.92.63a31.39,31.39,0,0,0-3.25-3l-.24-.12-.29-.15c-.66-.32-1.37-.64-2.2-1l1.5,2C331.52,76.13,332.36,76.67,333.15,77.21Zm-41-2.75-.44-.18L291,74l.15-.39,2.54.85Z"/></g><g class="cls-2"><path class="cls-3" d="M216.82,387.89,183.5,467.76h-1.14L149,387.89h1a.69.69,0,0,1,.68.57L182,463.54c.19.42.35.82.48,1.2l.43,1.2.43-1.2c.13-.38.29-.78.48-1.2l31.26-75.08a.75.75,0,0,1,.8-.57Z"/><path class="cls-3" d="M183.64,468h-1.42l-.05-.13-33.44-80.16h1.34a.88.88,0,0,1,.88.72l31.26,75.06c.19.41.35.82.49,1.21l.23.66.23-.66c.14-.39.3-.8.49-1.22l31.26-75.07a.94.94,0,0,1,1-.7h1.22L217,388Zm-1.14-.41h.86l33.15-79.46h-.6a.55.55,0,0,0-.6.42L184,463.61c-.19.41-.35.81-.48,1.19l-.43,1.2-.19.53-.19-.53-.43-1.2c-.13-.38-.29-.77-.48-1.18l-31.27-75.09c-.12-.39-.33-.44-.49-.44h-.72Z"/><path class="cls-3" d="M233.87,467.76h-1.37V387.89h1.37Z"/><path class="cls-3" d="M234.08,468H232.3V387.68h1.78Zm-1.37-.41h1V388.09h-1Z"/><path class="cls-3" d="M319.34,457a.54.54,0,0,1,.4.17l.51.46a43.58,43.58,0,0,1-5.39,4.48,34.1,34.1,0,0,1-6.3,3.48,38.76,38.76,0,0,1-7.53,2.28,46.13,46.13,0,0,1-9.07.83,38.26,38.26,0,0,1-14.83-2.82,33.55,33.55,0,0,1-11.75-8.13,37.36,37.36,0,0,1-7.73-12.86,49.28,49.28,0,0,1-2.77-17,48,48,0,0,1,2.77-16.66,37.63,37.63,0,0,1,7.82-12.92,34.58,34.58,0,0,1,12.1-8.33A40,40,0,0,1,293.09,387a43.81,43.81,0,0,1,7.42.6,34.7,34.7,0,0,1,6.59,1.8,36.91,36.91,0,0,1,6,2.94,47.18,47.18,0,0,1,5.59,4l-.23.34c-.08.15-.27.23-.57.23a5.84,5.84,0,0,1-2-1.37,29.13,29.13,0,0,0-4.65-3,40.47,40.47,0,0,0-7.5-3,36.43,36.43,0,0,0-10.58-1.37,38.88,38.88,0,0,0-14.86,2.77,33,33,0,0,0-11.64,7.93A36.53,36.53,0,0,0,259,411.33a47,47,0,0,0-2.74,16.49,48,48,0,0,0,2.71,16.66,36.56,36.56,0,0,0,7.5,12.49,32.16,32.16,0,0,0,11.32,7.84A36.62,36.62,0,0,0,292,467.53a49.46,49.46,0,0,0,8.67-.69,33.8,33.8,0,0,0,7-2,30.24,30.24,0,0,0,5.88-3.22,54.91,54.91,0,0,0,5.39-4.36C319.07,457.07,319.22,457,319.34,457Z"/><path class="cls-3" d="M292,468.88A38.63,38.63,0,0,1,277,466a33.9,33.9,0,0,1-11.82-8.18,37.71,37.71,0,0,1-7.77-12.93,49.71,49.71,0,0,1-2.78-17.1,48.4,48.4,0,0,1,2.78-16.73,38,38,0,0,1,7.86-13,35,35,0,0,1,12.17-8.38,40.4,40.4,0,0,1,15.63-3,44.13,44.13,0,0,1,7.45.6,34.89,34.89,0,0,1,6.63,1.81,37.19,37.19,0,0,1,6,3,47.62,47.62,0,0,1,5.62,4l.14.12-.33.5c-.1.2-.35.32-.74.32-.22,0-.67-.16-2.16-1.42a29.09,29.09,0,0,0-4.62-3,40.46,40.46,0,0,0-7.46-3,36.41,36.41,0,0,0-10.52-1.36,38.88,38.88,0,0,0-14.78,2.75A32.93,32.93,0,0,0,266.74,399a36.5,36.5,0,0,0-7.57,12.45,47,47,0,0,0-2.73,16.41,48,48,0,0,0,2.7,16.59,36.53,36.53,0,0,0,7.46,12.43,32.1,32.1,0,0,0,11.25,7.79,36.6,36.6,0,0,0,14.1,2.69,49.43,49.43,0,0,0,8.63-.68,33.74,33.74,0,0,0,6.95-2,30.18,30.18,0,0,0,5.84-3.2,55,55,0,0,0,5.37-4.35.91.91,0,0,1,.6-.34.75.75,0,0,1,.55.23l.67.6-.16.15a44.1,44.1,0,0,1-5.42,4.5,34.52,34.52,0,0,1-6.34,3.5,39.11,39.11,0,0,1-7.57,2.29A46.42,46.42,0,0,1,292,468.88Zm1.14-81.7a40,40,0,0,0-15.47,2.92,34.54,34.54,0,0,0-12,8.28,37.61,37.61,0,0,0-7.77,12.85,48,48,0,0,0-2.75,16.59,49.31,49.31,0,0,0,2.75,17,37.35,37.35,0,0,0,7.69,12.79,33.52,33.52,0,0,0,11.68,8.08A38.23,38.23,0,0,0,292,468.46a46.24,46.24,0,0,0,9-.82,38.68,38.68,0,0,0,7.49-2.27,34,34,0,0,0,6.26-3.46,43.6,43.6,0,0,0,5.21-4.3l-.35-.31a.35.35,0,0,0-.26-.12s-.09,0-.31.23a55.83,55.83,0,0,1-5.42,4.39,30.65,30.65,0,0,1-5.92,3.25,34.15,34.15,0,0,1-7,2,50,50,0,0,1-8.71.69A37,37,0,0,1,277.7,465a32.51,32.51,0,0,1-11.4-7.89,36.92,36.92,0,0,1-7.55-12.56A48.41,48.41,0,0,1,256,427.82a47.41,47.41,0,0,1,2.75-16.56,36.92,36.92,0,0,1,7.66-12.59,33.33,33.33,0,0,1,11.71-8,39.25,39.25,0,0,1,14.94-2.78,36.75,36.75,0,0,1,10.64,1.38,40.76,40.76,0,0,1,7.54,3,29.4,29.4,0,0,1,4.68,3c1.45,1.23,1.82,1.32,1.89,1.32s.35,0,.38-.11l.14-.21a47.2,47.2,0,0,0-5.43-3.89,37,37,0,0,0-5.93-2.92,34.7,34.7,0,0,0-6.55-1.79A43.79,43.79,0,0,0,293.09,387.18Z"/><path class="cls-3" d="M405.54,427.82a50,50,0,0,1-2.71,17,37.11,37.11,0,0,1-7.59,12.81,32.87,32.87,0,0,1-11.67,8.1,41,41,0,0,1-29.92,0,32.94,32.94,0,0,1-11.64-8.1,37.09,37.09,0,0,1-7.59-12.81,54.61,54.61,0,0,1,0-34A37.37,37.37,0,0,1,342,398a33.08,33.08,0,0,1,11.64-8.16A38,38,0,0,1,368.57,387a38.7,38.7,0,0,1,15,2.82,32.72,32.72,0,0,1,11.67,8.13,37.4,37.4,0,0,1,7.59,12.87A50.25,50.25,0,0,1,405.54,427.82Zm-1.48,0a49.92,49.92,0,0,0-2.59-16.66,36.17,36.17,0,0,0-7.27-12.49A31.08,31.08,0,0,0,383,390.82a37.25,37.25,0,0,0-14.4-2.71,36.74,36.74,0,0,0-14.26,2.71,31.41,31.41,0,0,0-11.21,7.85,36.61,36.61,0,0,0-7.36,12.49,53.54,53.54,0,0,0,0,33.29,36.34,36.34,0,0,0,7.36,12.44,31.55,31.55,0,0,0,11.21,7.81,36.71,36.71,0,0,0,14.26,2.71A37.22,37.22,0,0,0,383,464.7a31.22,31.22,0,0,0,11.21-7.81,35.9,35.9,0,0,0,7.27-12.44A49.65,49.65,0,0,0,404.05,427.82Z"/><path class="cls-3" d="M368.57,468.76a38.7,38.7,0,0,1-15-2.84,33.3,33.3,0,0,1-11.71-8.15,37.45,37.45,0,0,1-7.63-12.88,54.79,54.79,0,0,1,0-34.11,37.75,37.75,0,0,1,7.63-12.94,33.44,33.44,0,0,1,11.71-8.21,38.36,38.36,0,0,1,15-2.87,39.08,39.08,0,0,1,15.08,2.84,33.06,33.06,0,0,1,11.74,8.18A37.74,37.74,0,0,1,403,410.72a54.94,54.94,0,0,1,0,34.17,37.46,37.46,0,0,1-7.63,12.88,33.23,33.23,0,0,1-11.74,8.15A39.08,39.08,0,0,1,368.57,468.76Zm0-81.58A37.94,37.94,0,0,0,353.73,390a33,33,0,0,0-11.57,8.11,37.31,37.31,0,0,0-7.54,12.79,54.4,54.4,0,0,0,0,33.83,37.06,37.06,0,0,0,7.55,12.74,32.91,32.91,0,0,0,11.57,8.05,40.85,40.85,0,0,0,29.77,0,32.81,32.81,0,0,0,11.59-8.05,37.07,37.07,0,0,0,7.55-12.74,54.57,54.57,0,0,0,0-33.89,37.38,37.38,0,0,0-7.55-12.79A32.65,32.65,0,0,0,383.5,390,38.68,38.68,0,0,0,368.57,387.18Zm0,80.44a37.09,37.09,0,0,1-14.34-2.73A31.92,31.92,0,0,1,342.95,457a36.71,36.71,0,0,1-7.4-12.51,53.74,53.74,0,0,1,0-33.43,36.93,36.93,0,0,1,7.4-12.56,31.74,31.74,0,0,1,11.28-7.9,37.1,37.1,0,0,1,14.34-2.73,37.62,37.62,0,0,1,14.48,2.73,31.42,31.42,0,0,1,11.29,7.9,36.53,36.53,0,0,1,7.32,12.56,54.9,54.9,0,0,1,0,33.43A36.26,36.26,0,0,1,394.34,457a31.55,31.55,0,0,1-11.28,7.87A37.61,37.61,0,0,1,368.57,467.62Zm0-79.3A36.72,36.72,0,0,0,354.39,391a31.38,31.38,0,0,0-11.14,7.79,36.59,36.59,0,0,0-7.32,12.42,53.35,53.35,0,0,0,0,33.15,36.29,36.29,0,0,0,7.32,12.37,31.5,31.5,0,0,0,11.14,7.76,36.68,36.68,0,0,0,14.18,2.69,37.21,37.21,0,0,0,14.33-2.69A31.19,31.19,0,0,0,394,456.75a35.86,35.86,0,0,0,7.23-12.37,54.47,54.47,0,0,0,0-33.15A36.11,36.11,0,0,0,394,398.81,31,31,0,0,0,382.9,391,37.25,37.25,0,0,0,368.57,388.32Z"/></g></svg>