<svg id="Layer_1" data-name="Layer 1" xmlns="http://www.w3.org/2000/svg" viewBox="0 0 1200 1200"><defs><style>.cls-1{fill:#3c7eb7;}.cls-2{opacity:0.95;}.cls-3{fill:#fff;}</style></defs><title>logoAzul</title><path class="cls-1" d="M600,1175.69C282.56,1175.69,24.31,917.44,24.31,600S282.56,24.31,600,24.31,1175.69,282.56,1175.69,600,917.44,1175.69,600,1175.69ZM600,38C290.13,38,38,290.13,38,600s252.1,562,562,562,562-252.1,562-562S909.87,38,600,38Z"/><circle class="cls-1" cx="600" cy="600" r="500.85"/><g class="cls-2"><path class="cls-3" d="M595.85,644.75c14.68-.26,21,9.52,21,9.52s12.93,44.39,22.37,67.1c8.52,20.5,47.18,46.48,76.71,51.9,48.29,8.86,86.5,2.62,106.42-21.84,16.67-20.47,56.59-113.14,8-138.05C777.25,586.12,681.83,606,681.83,606S652,613.91,634.65,620.2c-9,3.28-24.63,4-38.83,3.26H595c-14.19.74-29.8,0-38.83-3.26C538.87,613.91,509,606,509,606s-95.41-19.92-148.54,7.34c-48.55,24.92-8.63,117.58,8,138.05,19.92,24.46,58.13,30.7,106.42,21.84,29.53-5.42,68.2-31.4,76.71-51.9,9.44-22.72,22.37-67.1,22.37-67.1s6.29-9.79,21-9.52Z"/><path class="cls-3" d="M754.62,777.54a216.22,216.22,0,0,1-38.79-3.84c-29.69-5.45-68.57-31.77-77-52.16-9.18-22.08-21.8-65.15-22.37-67.08-.5-.73-6.67-9.28-20-9.28h-2c-13.37,0-19.52,8.56-20,9.28-.56,1.93-13.19,45-22.37,67.08-8.47,20.39-47.34,46.71-77,52.16-50.61,9.28-87.56,1.68-106.83-22-12.51-15.36-37.77-70.74-29.9-108.3,3-14.22,10.38-24.45,22-30.41,52.64-27,147.86-7.58,148.82-7.38.32.08,30.12,7.94,47.24,14.17,7.91,2.87,22.35,4.08,38.66,3.23h.85c16.33.85,30.77-.36,38.68-3.23,17.12-6.23,46.92-14.09,47.22-14.17,1-.2,96.2-19.64,148.84,7.37,11.61,6,19,16.19,22,30.41,7.87,37.56-17.39,92.94-29.9,108.3C808.72,768.83,785.53,777.54,754.62,777.54ZM596.43,644.32c14.34,0,20.7,9.63,20.76,9.73l.05.11c.13.44,13,44.62,22.35,67.06,8.38,20.18,46.94,46.24,76.4,51.64,50.29,9.23,86.94,1.73,106-21.69,12.43-15.26,37.54-70.28,29.72-107.58-2.92-13.95-10.17-24-21.54-29.82-52.39-26.88-147.3-7.5-148.26-7.3-.28.07-30,7.92-47.12,14.14-8,2.91-22.57,4.14-39,3.28H595c-16.39.85-31-.37-39-3.28-17.08-6.21-46.84-14.07-47.15-14.14-.93-.19-95.85-19.57-148.23,7.3-11.37,5.84-18.62,15.87-21.54,29.82-7.82,37.29,17.29,92.31,29.72,107.58,19.07,23.41,55.72,30.91,106,21.69,29.46-5.4,68-31.47,76.4-51.64,9.32-22.44,22.22-66.62,22.35-67.06l.05-.11c.06-.1,6.42-9.73,20.76-9.73h2Z"/><path class="cls-3" d="M347.41,580.35s28.31-28.83,54-31.45,102.23-5.77,108.52-2.62-12.06,27.26-21.49,28.31S405.08,572.49,347.41,580.35Z"/><path class="cls-3" d="M346.22,580.95l.88-.89c.28-.29,28.71-29,54.26-31.58,26-2.65,102.47-5.72,108.75-2.58.89.45,1.86,1.52,1.41,4.08-.67,3.72-4.22,9.65-9.07,15.1-5.17,5.82-10.4,9.54-14,9.93-2.55.28-9.86.26-20,.24-27.56-.09-78.86-.22-121,5.53ZM488.9,545.37c-26.11,0-69.19,2.09-87.44,4-22.69,2.31-47.78,25.54-52.82,30.43,42-5.58,92.57-5.44,119.89-5.37,10.08,0,17.36,0,19.87-.23,7.37-.82,20.92-16.66,22.3-24.34.29-1.64,0-2.7-.94-3.16C507.9,545.74,499.91,545.37,488.9,545.37Z"/><path class="cls-3" d="M841,580.35s-28.31-28.83-54-31.45-102.23-5.77-108.52-2.62,12.06,27.26,21.49,28.31S783.38,572.49,841,580.35Z"/><path class="cls-3" d="M842.23,580.95l-1.24-.17c-42.19-5.76-93.5-5.62-121-5.53-10.11,0-17.42,0-20-.24-3.58-.4-8.81-4.11-14-9.93-4.84-5.45-8.4-11.38-9.07-15.1-.46-2.56.51-3.63,1.41-4.08,6.29-3.15,82.74-.08,108.76,2.58,25.54,2.61,54,31.29,54.26,31.58Zm-110.83-6.58c28.55,0,71.76.51,108.42,5.39-5-4.89-30.14-28.12-52.82-30.43-25.94-2.65-102.1-5.76-108.29-2.67-.92.46-1.24,1.52-.94,3.16,1.37,7.68,14.93,23.52,22.3,24.34,2.5.28,9.8.26,19.87.23Z"/><path class="cls-3" d="M910.52,415c-.28-2.9-.64-5.79-1.05-8.69.06-2.17.12-4.38.13-6.65a288.8,288.8,0,0,0-2-36c.46.48.94,1,1.4,1.43-.47-.64-1-1.26-1.46-1.9-.42-3.46-.9-6.91-1.46-10.29.11,2.89.2,5.81.27,8.74-.38-.49-.78-1-1.16-1.46-.06-.28-.12-.59-.18-.88-.33-2.62-.79-5.61-1.48-8.79a68.22,68.22,0,0,0-2.59-9c-.08-.21-.16-.41-.24-.61s-.07-.28-.11-.43l-.61-2a3.07,3.07,0,0,0-.8-1.49c0-.25-.07-.47-.11-.72l9,7.35L898,330.36c-.38-1.92-.79-3.87-1.26-5.88a177.65,177.65,0,0,0-5.28-18.28c2.09-1.24,4.17-2.49,6.19-3.77l-6.45,3c-1.66-4.72-3.52-9.4-5.57-13.85,1.49,4.74,2.9,9.61,4.23,14.48l-.88.41q-.62-2.38-1.31-4.71a10.59,10.59,0,0,0-.08-3.36,10.48,10.48,0,0,1-.17,2.51v0c-.42-1.92-.86-3.81-1.36-5.66.34,2.47.64,5,.91,7.48a13.35,13.35,0,0,1-1.35,2.86,15.77,15.77,0,0,1-2.64,3.13c-.33-2-.68-3.94-1.06-5.87l.41,6.43-.12.11c-.15-1.21-.27-2.44-.44-3.63,0,1.1,0,2.23,0,3.34l-3.93-5.15c-.08-.59-.16-1.18-.25-1.77a10.46,10.46,0,0,0,2.3-2.68,6.68,6.68,0,0,0,.86-4.63,6.46,6.46,0,0,1-1.35,4.31,9.44,9.44,0,0,1-2,1.91V301s0,.07,0,.11q-.56.42-1.17.78L874.1,299c0-.34,0-.68,0-1-.05.29-.07.59-.11.89l-1.18-1.55a16.64,16.64,0,0,0-1-6.56,17,17,0,0,1,.34,5.69l-.73-1a4.6,4.6,0,0,0,.32-3.28,4.05,4.05,0,0,0-1.43-2,2.55,2.55,0,0,0-1.53-.53,77.49,77.49,0,0,0,7.64-10,99.17,99.17,0,0,1-9.49,9.92l-.24-.32c0-.25,0-.54-.09-.91a24.53,24.53,0,0,0-.89-4.06c-.11-.39-.23-.82-.36-1.25,0-.19,0-.38,0-.57a11,11,0,0,0,.4-3,11.62,11.62,0,0,0-1.28-5.62,8,8,0,0,0-4.05-3.77c3.29,1.81,4.5,5.78,4.12,9.23a8.38,8.38,0,0,0-1.25-1.89c-.06-.13-.09-.24-.15-.36a84.34,84.34,0,0,0-4.33-8.62l-.07-.11c2.14-3.52,4.16-7.08,6-10.66-2.17,3.15-4.42,6.32-6.72,9.46-.33-.54-.65-1.09-1-1.65-.73-1.53-1.53-3.12-2.29-4.45l5.72,1.31-8.8-4.82q-1-1.42-2.13-2.84a7.33,7.33,0,0,0,.22-4.38c-.58-1.86-2.37-3.5-4.29-3.17,1.93-.07,3.32,1.67,3.66,3.34a6.12,6.12,0,0,1-.37,3.19c-2.19-2.82-4.52-5.65-6.9-8.46-1.26-2.21-2.56-4.38-3.93-6.46.68,1.38,1.34,2.8,2,4.21q-2.21-2.57-4.43-5.08c-.51-1.36-1-2.73-1.34-4.13.14,1.11.36,2.21.61,3.31l-1-1.14c.35.52.74,1,1.1,1.57.33,1.35.72,2.69,1.17,4h0l-.56-1.08c-.88-2.31-1.81-4.6-2.8-6.9a81.86,81.86,0,0,0,5.8-9.15c1-1.73,2.07-3.61,2-5.79a3.82,3.82,0,0,0-1.3-2.8,2.62,2.62,0,0,0-2.82-.58,2.46,2.46,0,0,1,2.56.84,3.32,3.32,0,0,1,.86,2.54c-.17,1.85-1.32,3.51-2.44,5.11-1.78,2.67-3.68,5.18-5.65,7.61-1.47-3.32-3-6.61-4.66-9.75,1.31,3.53,2.59,7.15,3.84,10.77-.23.28-.45.57-.68.85-.93,1.09-1.9,2.13-2.86,3.17-2.7-4.48-5.47-8.93-7.1-13.82a23.07,23.07,0,0,1-.3-3.24c-.53,4.6.67,9.32,2.11,13.77a11,11,0,0,1-1.2,2.47,23.61,23.61,0,0,0-2.12-4.33,20.25,20.25,0,0,0-8.58-7.77,20.84,20.84,0,0,1,7.48,8.39,23.3,23.3,0,0,1,1.49,3.75c-1.11-1.33-2.25-2.65-3.45-3.93-3.84-4.2-8.55-7.79-10.36-13.22a15.87,15.87,0,0,0,1.69,4.5c-.28-.25-.56-.5-.85-.73a2.28,2.28,0,0,0-.53-1,2,2,0,0,0-1.15-.51,1.94,1.94,0,0,1,1,.61,1.86,1.86,0,0,1,.3.65,16.14,16.14,0,0,0-1.62-1.12,14.36,14.36,0,0,0-3.73-1.33c-2.39-2.76-4.79-5.49-7.17-8.15,3,4.41,6.27,8.85,9.52,13.19q-3.82-2.68-7.44-5.1a35.46,35.46,0,0,0-3.37-9.12,39.41,39.41,0,0,1,2.19,8.33l-.69-.47a150.85,150.85,0,0,0-18.57-21.95c1.25,1.56,2.49,3.15,3.73,4.76a4.79,4.79,0,0,0-1.06-.75,3.79,3.79,0,0,0-2.56-.32,4.16,4.16,0,0,1,4,2.44,9.31,9.31,0,0,1,.46,1q.47,1.94.84,3.91l-1.08-.93,1.14,1.24,0,.27c0,.55,0,1.1,0,1.67a74.74,74.74,0,0,0-11-8.16c0-.1-.07-.21-.1-.31a20.06,20.06,0,0,0-5.76-8.35,20.41,20.41,0,0,1,4.4,7.79q-.86-.49-1.72-1-1.72-1.56-3.5-3.06c-.73-1.2-1.44-2.43-2.18-3.6l1.35,2.91q-2-1.66-4-3.24a33.1,33.1,0,0,0-2.87-4.59,41.4,41.4,0,0,0-10.95-10,46.56,46.56,0,0,0-6.69-3.55,60.77,60.77,0,0,0-7.22-2.53c-9.79-2.72-20-3.13-29.69-3.32L698,165.22l2.21,6.63a99.41,99.41,0,0,0-12.65-2.36,90.28,90.28,0,0,0-12.66-5.15c3.15,1.46,6.27,3.09,9.33,4.83l-.49,0,.7.17c3.42,1.95,6.76,4,10,6.23a4,4,0,0,0-.45.15,4.27,4.27,0,0,1,.53-.1q3,2.05,5.75,4.21l-.59-.18.82.36.62.48-1.24-.36c-.73-.42-1.43-.89-2.17-1.29a79.1,79.1,0,0,0-14.87-6.22c-3.34-2-6.69-4-10-5.92,2.2,1.66,4.44,3.33,6.69,5-2-.5-3.95-.92-5.92-1.25,2.78.84,5.53,1.87,8.24,3l3.82,2.82-1.44-.37c-6.7-1.71-13.83-3.33-21.09-4.79a183.07,183.07,0,0,0-18.17-6.66c3.75,1.69,7.51,3.48,11.25,5.34-6.89-1.26-13.83-2.34-20.64-3.16,6.54,1.65,13.21,3.35,19.85,5.07-1.13-.13-2.27-.26-3.39-.37,4.34,1,8.75,2,13.16,3.1l.93.5c-1.26-.35-2.54-.69-3.85-1-2.23-.57-4.54-1.12-6.89-1.63-.44-.15-.88-.32-1.32-.46l.64.31a177,177,0,0,0-28.85-4l16,4.85c-1.3-.27-2.59-.52-3.88-.74,3,1.37,6.14,2.71,9.26,4l-2.87-.28A110.8,110.8,0,0,1,633,171.37a46,46,0,0,0,4.72,3.42,211.74,211.74,0,0,0-35.67-6.26c5.28,1.83,10.67,3.64,16,5.43a15.56,15.56,0,0,0-2.76-.15c3.67.8,6.86,2.72,10.1,4.63a393.31,393.31,0,0,0-48.24-9.09c-6.43-.79-13.13-1.4-20-1.84-6.92-2.1-13.87-4.13-20.71-6,4.53,1.9,9.15,3.78,13.79,5.62a320.5,320.5,0,0,0-43.62.89c19,.66,38.86,2.18,57.32,4.45q4.66,1.78,9.26,3.49a26.35,26.35,0,0,0,1.79,2.43c-1.48-.22-3-.42-4.51-.62l-3.78-.64c-9-1.47-18.48-3.16-28.27-4.23s-19.91-1.38-29.38.55c9.63-.71,19.43.48,29,2.16l3,.54a191.55,191.55,0,0,0-31.82,3.08,328.13,328.13,0,0,1,50.86,1c1.43.15,2.83.31,4.23.47l1.59.31q-3.55-.25-7.21-.45a439.48,439.48,0,0,0-72.51,1.84c17.54.23,35.78.82,53.13,1.82-3.64.05-7.33.14-11.06.25a412.7,412.7,0,0,0-44.66,1.13l11.2.5c-5.49.37-10.95.79-16.33,1.26,10,.41,20.28.66,30.48.87l-1.15.09-1.9.18c-15-.85-34-1.29-51.53.5,7.89,1.22,16.05,2.2,24,3a161,161,0,0,0-16.71.54,186.83,186.83,0,0,0-23.46,3.52c-4,.86-7.93,1.81-11.85,2.88-2,.52-3.9,1.1-5.83,1.67a15.66,15.66,0,0,0-2.93,1,4,4,0,0,0-1.24,1,1.54,1.54,0,0,0-.27,1.49c-.11-1.08.94-1.59,1.8-1.82a16.62,16.62,0,0,1,2.9-.32l6-.47,12-1,4.82-.38-2.34.68c-2.38.45-4.82.94-7.36,1.48-5.32,1.14-10.94,2.48-16.58,4l-3,.86c-3.49.72-7,1.49-10.36,2.35,1.23,0,2.47,0,3.71,0a26.12,26.12,0,0,0-4.35,2.39,17,17,0,0,0-3.65,1.67,19.31,19.31,0,0,1,2.14-.51c-.18.15-.37.28-.54.44.38-.2.76-.36,1.14-.53,4-.62,8.07-.21,12.19-.29h.16l-.51.18c-3.36.88-6.76,1.9-10.13,3.12-3,1.07-5.9,2.28-8.71,3.6a14.87,14.87,0,0,0-4.14,2.57c-1.21,1.07-2.14,2.77-1.72,4.31A4.2,4.2,0,0,1,392,223c.12-.07.25-.11.37-.17l2.84-.24c-.15.17-.32.32-.46.5.26-.19.54-.35.8-.53,2.67-.23,5.35-.49,8-.75l-5.51,3.79c-5.73.61-11.55,1.17-17.26,1.69a119.2,119.2,0,0,0,12.79,1.38c-5.55,3.79-11,7.48-16.29,11l10.52-3.61,3.57-1.19c-1.16.51-2.31,1-3.44,1.56l9.24-1.77-1.12,1.16a158,158,0,0,0-15.27,4.58l9.7-1c-3.79,1.45-8.05,3.13-12.66,5.1l-4.44.57c1.06,0,2.12,0,3.19,0-4,1.75-8.29,3.73-12.69,5.94l-6.52,7.85c-.12.22-.26.43-.38.65,4.9-2.62,9.7-5,14.27-7.1l4.21,0c-4,2.06-8.22,4.3-12.47,6.73-1.6.91-3.21,1.88-4.82,2.84l-.15,0h.12c-1.39.83-2.8,1.71-4.2,2.58a86.25,86.25,0,0,1-5.94,8.07c2.07-1.24,4.14-2.47,6.19-3.66,1,.2,2,.39,3,.57-8.38,6.84-16.61,14.22-24.46,22q-2.12,3.7-4.13,7.15c1.46-1.24,2.89-2.49,4.36-3.72l1.23,0q-2.17,1.72-4.26,3.51l-.3.26.25.16c-1.1,1-2.15,2.06-3.19,3.12l-2.63,4.48a93.58,93.58,0,0,1,8.15-6.91,4,4,0,0,0,2.25-.67,3.85,3.85,0,0,1-1.87.38q2.34-1.75,4.75-3.38c1.3.08,2.6.16,3.9.21-.56.7-1.15,1.43-1.67,2.08-1,1.24-1.89,2.41-2.76,3.55-.73-.13-1.47-.23-2.2-.37.66.22,1.36.39,2,.59q-2.2,2.89-3.94,5.37c-3,0-6.07,0-9.08-.1l-.27.46c2.77.4,5.56.75,8.38,1-2.21,3.19-3.89,5.85-5.18,8l-4,6.69,6.7-3.54c.23-.12.41-.25.62-.38-1.27,2.41-2.56,5-3.9,7.62-1.38,2.85-2.79,5.85-4.19,9-2.52,5-5,10.21-7.2,15.66a256.56,256.56,0,0,0-8.92,25.13c-.89,1.59-1.57,2.88-2.08,3.92-1.76,3.61-1.49,4.27-.95,4.61a.79.79,0,0,0,.61.1c-1.18,4.54-2.24,9.15-3.16,13.8,0,.22-.08.45-.12.67-2.2,8.4-4.2,16.86-6,25.18l-.6,2,.25-.47h0l3.34-6.2a223.69,223.69,0,0,0-1.21,22.69c-.32,2.35-.64,4.82-1,7.45-1.09,9-2.38,20.53-3.13,33.84-.26,4.82-.46,9.89-.54,15.14l-2.71-3.93,1,10c-.54.3-.85,1.26-.32,5.08.34,2.44,1,6.06,2.16,11.44q.42,3.52.84,6.85l.57,6,.79,6c.44,3.56,1,7.1,1.7,10.65l.21,1.5c2.49,17.31,4.34,26.41,5.63,31.15s2.09,5.14,2.86,5l.25-.07.32,2c2.06,12.86,4,26.68,5.93,40.62-.26,9.21-.62,18.42-1.11,27.46,1-5.39,1.83-10.89,2.58-16.42.19,1.47.38,2.94.57,4.4-.06,3.07-.1,6.14-.09,9.16.22-1.7.42-3.43.61-5.17l.37,2.89.78,7.64q-.95,4.58-2,9.09c1.18-3,2.26-6.17,3.28-9.33l0,.65c0-.32,0-.65.06-1a200,200,0,0,0,6.64-27.63c.41-2.43.74-4.85,1.07-7.28.1,1.52.19,2.66.3,3.52.28,2.33.63,2.58,1,2.57s.71-.26.92-2.6a125.56,125.56,0,0,0-.09-15.16c-.09-1.84-.2-4-.34-6.33.27-4.15.48-8.26.58-12.27A445,445,0,0,0,323.5,546a4,4,0,0,0,1.23,1.35c.59.33.86.18,1.05,0a1,1,0,0,0,.21-1,15.83,15.83,0,0,1-.43-2.78,26.36,26.36,0,0,1,.06-3c.08-1.32.16-2.9.23-4.75.13-3.72.24-8.58.34-14.93.06-5.19.21-11.81.39-19.43,1.16-7.08,2.45-14.91,3.83-23.18,0,.33,0,.66.08,1,.26-1.66.55-3.33.85-5l.13.74c.24,2.61.52,5.21.89,7.76-.06-3.56,0-7.17,0-10.78a10.71,10.71,0,0,0,.65-1.43l0-.07c.27,6.92,2.56,13.77,6.74,18.75a32.67,32.67,0,0,1-2.37-19.23,43.43,43.43,0,0,1,1.58-6.49c0,.21,0,.43,0,.63,0-.32.06-.64.09-1a49.94,49.94,0,0,1,5.22-11A80.41,80.41,0,0,1,358,436.47c-.3.88-.62,1.74-.9,2.63A72.09,72.09,0,0,0,353.72,458a52.23,52.23,0,0,0,2.57,18.59c-.92-12.29,2.28-24.25,7.31-35,.51-1.1,1.05-2.19,1.59-3.27.52,6.22.9,12.41.82,18.5v1.86l-.11,1.93-.21,3.86a52.32,52.32,0,0,1-1,7.24c-1,4.76-3,9.45-6.86,12.85,4.6-2.29,8.06-6.84,10.26-11.68a50.43,50.43,0,0,0,2.77-7.61l1-3.74c.34-1.23.62-2.51.86-3.85a134.19,134.19,0,0,0,2-13.89,50.2,50.2,0,0,0,4.4,13.43,43.7,43.7,0,0,0,8.89,11.64A47.13,47.13,0,0,1,382.17,456a52,52,0,0,1-1.49-13.7A66.71,66.71,0,0,1,387.24,416a65.41,65.41,0,0,1,3.39-6.29c-.12,2.22-.18,4.43-.15,6.62.08,10.64,1.64,20.94,3.49,31,.72-10.17,1.42-20.47,3.2-30.41a80,80,0,0,1,8.06-24.76l.62-.74q2-1.87,4-3.66a59.13,59.13,0,0,0-5.62,8.5,42.68,42.68,0,0,0-4,10.74,36,36,0,0,0-.55,11.08,39.32,39.32,0,0,1,3-10.29,44.67,44.67,0,0,1,5.57-8.94,75.6,75.6,0,0,1,15.57-14.16c.72-.51,1.45-1,2.18-1.48-.47.51-1,1-1.43,1.51-1.5,1.73-2.9,3.47-4.27,5.4l-1,1.45-.87,1.36-.43.68c-.24.36-.32.53-.49.81l-.87,1.51a50.23,50.23,0,0,0-4.91,12.86,41.08,41.08,0,0,0-.82,13.48A31.16,31.16,0,0,0,415,434.61a32.49,32.49,0,0,1-1.13-12.36A41.07,41.07,0,0,1,417,410.5a49.14,49.14,0,0,1,6.11-10.34l.93-1.16c.14-.17.34-.45.43-.52l.53-.61,1.05-1.22,1-1.05c1.34-1.41,2.83-2.83,4.32-4.16,6-5.35,12.88-9.84,19.83-14.28l3.56-2.28a106.94,106.94,0,0,0-8.09,14.5c-8.34,18.31-10.87,39.14-7.23,57.74a114.9,114.9,0,0,1,16.68-52.74,103.93,103.93,0,0,1,16.7-20.64l2.54-2.39,2.42-2.07c1.53-1.37,3.32-2.7,5-4q5.16-3.92,10.52-7.41c7.23-4.69,14.6-8.9,21.8-12.89.91,0,1.81,0,2.72,0a146.92,146.92,0,0,0,20.67-1.78A151.58,151.58,0,0,0,556.75,340q3.6,0,7.25,0c-1.3.42-2.59.85-3.9,1.26-3.82.7-7.68,1.33-11.48,1.85,2.07,0,4.17-.1,6.27-.24-3.82,1.15-7.64,2.26-11.42,3.31a215.88,215.88,0,0,0,23.17-4.7c2.5-.41,5-.87,7.31-1.4l1.44-.34c5.78-.22,11.57-.57,17.29-1.08,1.31,0,2.7,0,4.15-.12-.57.26-1.11.53-1.68.78-2.4.78-4.9,1.55-7.49,2.28a222.06,222.06,0,0,1-39,7.11,138.92,138.92,0,0,0,27.91-2,73.19,73.19,0,0,0,11.8-2.34c1-.28,2-.62,3-.94a162,162,0,0,0,19.12-6.64c1.72-.33,3.48-.68,5.32-1.09l4.12-.3,2.67-.3c-3.28,1.68-6.63,3.38-10,5.09-5.09,1.43-10.23,2.76-15.33,3.95-.64-.13-1.29-.26-1.92-.43.48.2,1,.36,1.48.53l-1.43.34c.6-.06,1.2-.14,1.8-.21a27.7,27.7,0,0,0,4.9,1.11l-3.57,1.8q2.27-.8,4.55-1.65a37.64,37.64,0,0,0,13.43-1.17,62.42,62.42,0,0,0,9.51-3.35,37.82,37.82,0,0,0,6-.18A98.58,98.58,0,0,1,617,345.82a81.08,81.08,0,0,0,24.88-7.12q2.21-.76,4.32-1.68a71.53,71.53,0,0,0,20.69-6.41l.75-.39,1,0a154.27,154.27,0,0,0,18.46-2c9.16,1.55,18.69,2.65,27.35,3.3,9.87.75,18.57,1,24.21,1.08h.61c2.25.74,4.41,1.48,6.46,2.21,5.66,3.3,11.49,6.61,17.21,9.69,1.79,1.14,3.48,2.23,5,3.24,7.93,8.32,17.06,17.8,25.89,26.5-4.33-5.52-9-11.1-13.65-16.44,3.26,3.73,6.63,7.55,10.08,11.37l6.61,7.24c2.26,2.89,4.58,5.72,6.93,8.44l-2.28-3.46.28.3a10.36,10.36,0,0,0,4.7,3.05,10.4,10.4,0,0,1-4.2-3.49l-3.43-4.48-2.36-3c-2.2-3.38-4.37-6.74-6.48-10.06,1.82,1.23,3.62,2.41,5.4,3.56,3.11,4.59,6.32,9.4,9.56,14.31l5.57,8.46c.88,1.42,1.94,2.82,2.69,4.22a6.39,6.39,0,0,1,.67,2.31,2.06,2.06,0,0,1-1,2,2.2,2.2,0,0,0,1.32-2,5.08,5.08,0,0,0,0-.61c3,7.07,6.16,14.41,9.42,21.37-.67-2.08-1.37-4.19-2.08-6.3,1,2.58,2.06,5.17,3,7.72a185.76,185.76,0,0,0-10.21-29.76c-1.27-2.89-2.55-5.62-3.81-8.18l-.52-1.35c1.05,1,2.12,2.09,3.15,3.14.92,2,1.82,4,2.73,6q.66,2,1.32,4c3.31,10.23,6.49,21.64,9.28,32.88,1.08,5.37,2.21,10.76,3.42,16-.91-9.33-2.08-19-3.42-28.3q2.29,5.52,4.54,11.1c1.54,8.39,2.77,17.56,3.54,26.4a138.43,138.43,0,0,0-.64-19.19l1.59,4a189.43,189.43,0,0,1,1.07,21.43,104.84,104.84,0,0,0,.91-13l.25,1.09.8,3.47c0,1.08,0,2.16.06,3.22.08-.68.14-1.37.21-2.07a252.33,252.33,0,0,1,5.53,31.13c.33-10.25-1.2-21-3.07-30.84l2.11,5.33c-1.27-5-2.64-10-4.07-15l0-.2c0-1.49,0-2.95,0-4.35,1.4,4.24,2.78,8.44,4.11,12.55,2.13,13.12,3.72,26.49,4.62,39.61.17-2.93.25-5.9.31-8.87.33,3,.66,5.9.94,8.83.16-5.14.13-10.35,0-15.59.31,2.3.63,4.61.91,6.9,0-2.48,0-5-.05-7.5l1.25,5.81c.11,6.69.32,13.92.76,20.82.19-3,.34-6.11.46-9.19a209.91,209.91,0,0,0,1,29.29c.05-9.3,1-18.66,2-28.07q.46,1.74.85,3.22a212.3,212.3,0,0,0-1.22,34.17c0,2.33.26,4.73.44,7.1s.32,4.74.62,7c.53,4.58,1,9.08,1.76,13.42,1.29,8.73,2.91,17,4.45,24.66,3.17,15.38,6.15,28.61,8.13,39.06,2.45,12.59,3.92,22.33,4.92,29.9a93.8,93.8,0,0,0,.63,10.86c.32,2.24.65,2.67,1,2.72.19,1.59.37,3,.55,4.21.85,7.41,2,8.26,3.16,8.28s2.3-.75,3-8.44c.13-2.08.22-4.72.19-8,.93-2.24,1.83-9.34,2.86-31.2l.09-1.94c.92-3.53,2.15-10.66,4-24.94.67-5.18,1.5-11.73,2.39-19.24.12-.34.23-.67.35-1.08a111,111,0,0,0,2.74-11.18c1.09-5.19,2.3-12,3.53-21a506.62,506.62,0,0,0,4.51-50.82c.93-4.33,1.83-8.84,2.64-13.56,1.19-6.84,2.27-14,3-21.5A238.52,238.52,0,0,0,910.52,415ZM573.67,176.1c3.42,1.27,6.8,2.52,10.13,3.73q-3.66-.68-7.7-1.29A28.5,28.5,0,0,1,573.67,176.1ZM350.91,425.33l.05,0-.21.23Zm-6.25-133.25-1.65.25c1-.62,2-1.25,3-1.86Zm75-82.78,1.79-.26.53,0-.1.07ZM375,250.8c4.06-1.81,7.92-3.43,11.47-4.86l-2.09,2.21c-1.53.72-3.1,1.48-4.69,2.25ZM367,262l-.3.24-.17,0Zm-1.91,1,.12-.06h.55c-1.74,1.34-3.49,2.66-5.22,4l-2.3-.19Q361.73,264.83,365.13,263Zm-10.36,5.81,3.06-1.76,2.13.44c-.63.51-1.26,1-1.89,1.55C357,269,355.88,268.87,354.77,268.8Zm7.31,3.41q-2.41,2.64-4.68,5.17l-2.39.1C357.37,275.69,359.73,273.94,362.09,272.2Zm-7.37,5.51,2.24.17-2.4,2.68-1.21,1.38-1.74,1.1-1.29.8c-1-.09-2-.2-3-.36Q351,280.55,354.72,277.71Zm-18.21,15.58-1.63.23c4-3.34,8.06-6.64,12.14-9.86q1.24.37,2.51.66C345,287.12,340.68,290.11,336.51,293.29Zm1.41,2.32,1.21-.82c1.16-.06,2.31-.14,3.47-.21l-.62.77ZM333.16,465.3c-.06.29-.13.57-.19.87l-.49,2.55c0-.13,0-.26,0-.39.23-1.13.45-2.27.7-3.38C333.17,465.06,333.17,465.18,333.16,465.3Zm187-123.12,4.28-2.36c3.93,0,8.3.05,13,0C531.87,340.85,526.05,341.63,520.14,342.17ZM695.4,173.84c-1.93-1.17-3.91-2.28-5.92-3.34,3.86,1,7.69,2.19,11.45,3.55l.92,2.77C699.72,175.76,697.57,174.75,695.4,173.84Zm-7.08,148.09c-3.27.27-6.18.5-8.57.66l.83-.65c2.11-.07,4.25-.09,6.44-.06Zm-11.71.23-1,.74-3.89.32.85-.45,1.14-.44C674.64,322.24,675.64,322.21,676.61,322.15Zm29.4,1.23c1.22.16,2.44.33,3.67.52l1.44.38c-1.15.06-2.3.11-3.44.19-.85-.27-1.67-.55-2.47-.83Zm10.52,2.36q3.59,1,7.14,2a61.93,61.93,0,0,1-9.29-1.42c-1.23-.28-2.42-.59-3.59-.91Q713.66,325.54,716.53,325.73Zm12.09-136.4L724.76,188c-1.08-1.19-2.2-2.36-3.39-3.46q-1.49-1.38-3.08-2.66a119.71,119.71,0,0,1,11.06,6.92Zm-7.2-2.49-.63-.21-5-1.64c-1.75-1.19-3.56-2.35-5.41-3.47l-4.14-5.45c2,.85,4.07,1.73,6.06,2.68.4.19.78.42,1.19.61A65.76,65.76,0,0,1,721.41,186.84Zm-89.8-8.39-.58,0-2.42-1ZM597.89,344.32q4.52-.51,9.08-1.29l-3.41,1.72A31.26,31.26,0,0,1,597.89,344.32Zm18-1.73a41.87,41.87,0,0,1-10.33,2.09q3.28-1.27,6.55-2.61,4-.8,8-1.77c.38.09.78.17,1.17.25C619.48,341.3,617.71,342,615.89,342.59Zm5.65-2.18c-.47,0-.94-.07-1.4-.12,1.27-.31,2.53-.64,3.78-1C623.13,339.69,622.34,340.06,621.54,340.41Zm3.36-3.93,1-.45h.39Zm4.74-2.25,3.27-.49c-1.39.5-2.78,1-4.21,1.48-.55.08-1.1.19-1.66.26Zm18.73-1.43c-2.68,1.58-5.52,3.11-8.46,4.56-.74.12-1.49.25-2.23.35.49,0,1,0,1.48-.06-.61.22-1.21.47-1.84.67a46,46,0,0,1-9.52,2c2.73-1.28,5.35-2.67,7.83-4.09l1.71-1,.29-.1c1.61-.25,3.21-.54,4.79-.89,2.13-.46,4.22-1,6.29-1.62Zm2.18,2.12c1.18-.62,2.33-1.26,3.44-1.91,1.56-.92,3-1.86,4.48-2.8,1.05.08,2.44.14,4.29.13A89.05,89.05,0,0,1,650.56,334.92Zm17.05-7c-.89.16-1.77.3-2.66.44l-3.85.15.92-.64c1.84-.79,3.6-1.61,5.32-2.43,1.08,0,2.59,0,4.68-.09C670.63,326.17,669.15,327,667.61,327.87Zm8.74-2.81,2.91-.19,2-.14q-3.57,1-7.27,1.86C674.83,326.08,675.61,325.57,676.35,325.06Zm2,2.27a96.3,96.3,0,0,0,12.13-3.25l.25-.09c2-.17,4.11-.36,6.31-.58l1.87,0,.79.34c-3.45.76-6.87,1.47-10.13,2C685.6,326.43,681.81,326.94,678.4,327.32Zm36.17,2-25.71-1.48,1.1-.2c3.9-.76,8-1.78,12.07-3l.74.28c-.64.07-1.28.11-1.91.18l2.59.06a72.18,72.18,0,0,0,10.56,3,55.52,55.52,0,0,0,14.55,1l2.81.85C726.55,329.86,720.8,329.62,714.57,329.3ZM751,193.68,749,195.19c-.14-.1-.26-.21-.4-.3.12.11.21.25.33.36l-2.3,1.8-.76-.13a71.16,71.16,0,0,0-6.53-5.72A105.85,105.85,0,0,0,724,181.13c-1.18-1-2.38-1.94-3.61-2.82.68.63,1.31,1.31,2,2-2.9-1.5-5.88-2.88-8.94-4.11a102.1,102.1,0,0,0-9.67-3.33l-3.3-4.35c9.64,1.43,19.66,2.75,28.85,6,8.63,2.9,16.39,8,21.49,14.6-.8-.48-1.59-1-2.41-1.43a132,132,0,0,0-36.69-14.46A196.29,196.29,0,0,1,747,189.93c.78.47,1.52.95,2.28,1.42a18.26,18.26,0,0,1,2.25,3C751.35,194.17,751.18,193.9,751,193.68Zm-.73-1.73c1.4.89,2.77,1.79,4.09,2.68.17.34.36.67.51,1,.45,1.61.82,3.25,1.15,4.89-.73-1.37-1.48-2.73-2.28-4.08A23,23,0,0,0,750.24,191.94Zm10.58,149.48c-1.85-1.09-3.81-2.17-5.81-3.24,1.4.54,2.66,1,3.82,1.52,1.13.64,2.26,1.3,3.38,2l1.32,1.4C762.65,342.52,761.75,342,760.82,341.43ZM772,348.55l-1.47-1.62-.12-.15.65.43,1.43,1.67Zm5.35,6,0,0,1.41,1.63Zm2.7-151.67c2.9,3.84,5.71,7.77,8.36,11.7-2.2-2.14-4.46-4.21-6.75-6.2,0-.47-.08-.92-.15-1.4A13.73,13.73,0,0,0,780.05,202.86Zm.83,151.26.35.26.16.12.69,1.09Zm1.23-143.45c-.11-.5-.24-1-.37-1.48l0-.17c1.07,1.17,2.13,2.32,3.2,3.5Zm5.32,148.87-.46-.74c.79.63,1.56,1.27,2.34,1.91Zm18.78-136a18.5,18.5,0,0,1,1.32,1.56,21.75,21.75,0,0,1,2.31,4.46l-2.21-1.6-1.9-2.27c.09-.26.2-.53.27-.8A7.07,7.07,0,0,0,806.22,223.56Zm-5.51-3.75a14.54,14.54,0,0,1,3.08,1.52,16.42,16.42,0,0,1,2,1.74,6.15,6.15,0,0,1-.36,1.66c0,.14-.13.26-.18.4Q803,222.47,800.71,219.81Zm10.7,169.44c-1.56-2.94-3.18-5.87-4.83-8.75-2-3.42-4-6.76-6-10l.11.07,1.41,1.27h0l2.94,3.36q1.38,2.6,2.89,5.58C809.06,383.49,810.21,386.32,811.4,389.25Zm.9-157.88c-.24-.72-.49-1.44-.78-2.14l-.05-.1c1,1.17,2,2.32,3,3.52.22.27.42.54.64.8C814.14,232.76,813.21,232,812.3,231.37Zm11.81,8.2a6.25,6.25,0,0,0-.83,0,6.48,6.48,0,0,1,.74.1l-.4.39-1.84-1.45c-.22-.85-.46-1.69-.75-2.51a11.34,11.34,0,0,0,1.06-2.78q.29.88.58,1.74c.15.43.27.85.42,1.28-.3-.56-.61-1.11-.89-1.67.59,1.63,1.24,3.24,1.93,4.85v0Zm1.42-1.4-.15-.36.22.29Zm.22-.22-.51-.51c-.38-1-.76-1.94-1.16-2.91a81,81,0,0,1-3-8.2,81.84,81.84,0,0,0,5.07,11.25Zm1.44,2.29.24.34c-.12-.07-.23-.15-.35-.22Zm.12,2.76q-.36-1-.75-2.08l.2-.22a7.47,7.47,0,0,1,.94.73,8.23,8.23,0,0,1,.64.66c.42.9.82,1.81,1.21,2.72Zm5.78,4.39q-1-2.31-2.19-4.59,1.49,2.51,3,5.05Zm-2.88-8.64c1.51,2.81,2.92,5.72,4.29,8.66-1.24-1.66-2.49-3.31-3.74-4.91q-1-2-2.13-3.9c1-1.24,2.07-2.5,3.06-3.8l.45,1.31-.11-.16.15.28q1.92,5.75,3.6,11.35A94.84,94.84,0,0,0,830.2,238.74Zm6.6,189.59L838,432c0,.89.08,1.81.11,2.77C837.67,432.54,837.22,430.37,836.8,428.33ZM839,250.61c-.5-1.55-1-3.11-1.55-4.69q1,2.44,1.9,4.89Zm-.45-5.64c-.95-1.95-1.83-3.92-2.63-5.92,2,2.8,4,5.59,6,8.36q1.32,2.92,2.55,5.81C842.53,250.45,840.54,247.7,838.54,245Zm8.28,9.92c-.38-.8-.78-1.6-1.18-2.41.71,1,1.39,1.94,2.08,2.9Zm16.26,28.9-1.15-4.12c.3.76.58,1.48.84,2.14s.4,1,.57,1.51C863.26,283.48,863.17,283.64,863.08,283.79Zm7.74,10.88-3-4c.31-.33.6-.67.9-1a3.17,3.17,0,0,1,2.49,2.62A3.72,3.72,0,0,1,870.82,294.67Zm6.14,8.05.53-.41c0,.38,0,.76,0,1.13Zm9.47,3.32a13.87,13.87,0,0,0,.71-1.73c.1,1,.18,2,.27,2.94L885,308.38A15.71,15.71,0,0,0,886.42,306Zm-.86,8c-.12-.41-.22-.84-.34-1.25l.16,1-2-2.61,0-.3c.69-.38,1.38-.79,2.07-1.18.1,1.49.2,3,.29,4.51Zm2,2.67q-.41-2.06-.84-4.1c.09,1.12.18,2.25.28,3.38l-.66-.87c-.29-1.82-.6-3.62-1-5.4l2.08-1.18c.25,3,.46,5.94.6,8.86Zm5.19,6.81c-.32-2.72-.67-5.42-1.08-8.07,0,1.22.05,2.44.08,3.67-.71-3.88-1.56-7.76-2.53-11.58l.87-.5c1.65,6.12,3.13,12.21,4.31,18,.06.31.12.61.18.92Zm6.51,13.92-.06-.36a3.3,3.3,0,0,1,.58,1.48l0,.08C899.66,338.21,899.48,337.81,899.29,337.41Zm6.94,28.75c-.18-1.3-.42-2.9-.75-4.69l.94.94c0,1.28,0,2.56.05,3.83C906.39,366.22,906.34,366.16,906.24,366.16Z"/><path class="cls-3" d="M880.85,675.3h0c-1.68,0-2.75-1.41-3.58-8.66-.17-1.14-.34-2.46-.52-3.95-.49-.29-.77-1.14-1-3a96.17,96.17,0,0,1-.64-10.91c-1.26-9.57-2.87-19.34-4.91-29.83-1.21-6.36-2.75-13.61-4.54-22-1.13-5.33-2.35-11-3.58-17-1.4-7-3.14-15.7-4.46-24.68-.68-4.14-1.16-8.34-1.68-12.78l-.08-.65c-.2-1.5-.31-3.07-.43-4.6-.06-.81-.12-1.62-.19-2.43l-.09-1.14c-.16-2-.32-4-.36-6a210.92,210.92,0,0,1,1.21-34.14l-.23-.87c-.93,9.1-1.67,17.42-1.72,25.69l-.85,0A168.1,168.1,0,0,1,852,498.25h-.37c-.38-6-.63-12.8-.76-20.84l-.33-1.53c0,1.12,0,2.19,0,3.21l-.81,0c0,3.11,0,5.95-.1,8.65l-.85,0q-.13-1.34-.27-2.69c0,.89-.08,1.8-.13,2.71h-.86c-.87-12.78-2.43-26.1-4.61-39.57-1-3.22-2.13-6.54-3.24-9.9,0,.54,0,1.08,0,1.63l0,.11c1.57,5.53,2.91,10.43,4.06,14.94l-.81.26-.51-1.29a135.87,135.87,0,0,1,2.3,26.66l-.85,0a241.52,241.52,0,0,0-5.07-29.07l-.67,0v-.11c0-1,0-2.06-.06-3.11l-.28-1.19c-.13,3.36-.41,6.59-.82,9.65l-.85-.06a189.61,189.61,0,0,0-1.06-21.33l-.47-1.18a134.93,134.93,0,0,1,.38,16.31l-.86,0c-.77-8.86-2-18-3.53-26.36-1.06-2.6-2.13-5.23-3.22-7.86,1.13,8.1,2.14,16.65,2.95,25l-.84.14c-1.06-4.61-2.14-9.69-3.42-16q-.84-3.39-1.71-6.72l-.22.07-.59-1.53-.36.14c-2.77-5.92-5.65-12.44-8.79-19.87a2.41,2.41,0,0,1-1.38,1.37l-.34-.79a1.64,1.64,0,0,0,.78-1.63,5.85,5.85,0,0,0-.63-2.16c-.45-.85-1-1.74-1.62-2.6-.36-.53-.71-1.06-1-1.59l-3.65-5.54-.15.47a8.1,8.1,0,0,1-2.72-1.28l.49.73-.68.52c-2.21-2.56-4.48-5.33-6.94-8.46L794.09,374l-.58.52c-9.49-9.35-19.32-19.6-25.9-26.5-1.46-.95-3.15-2-4.93-3.17-5.24-2.82-10.87-6-17.2-9.68-2-.68-4.09-1.41-6.31-2.15h-.54c-6.25-.12-14.65-.36-24.23-1.09-9.23-.7-18.67-1.84-27.32-3.29a154.78,154.78,0,0,1-18.43,2l-.9,0-.25.13-.42.22a71.53,71.53,0,0,1-20.75,6.44c-1.4.61-2.85,1.17-4.3,1.67a81.55,81.55,0,0,1-25,7.14l-.14-.84a94.91,94.91,0,0,0,12.27-3.8q-1.61.05-3.14,0a62.41,62.41,0,0,1-9.48,3.33,38.16,38.16,0,0,1-13.48,1.19q-2.24.84-4.46,1.62l-.34-.79,2.39-1.2a27.81,27.81,0,0,1-3.56-.89l-.64.07-1.09.12-.12-.74-.38-.07.37,0-.12-.05.28-.81c.6.16,1.2.28,1.8.4,5.07-1.19,10.19-2.51,15.22-3.92l7.83-4-.35,0-4.13.3c-1.7.38-3.44.74-5.27,1.08a160.21,160.21,0,0,1-19.08,6.63l-.89.29c-.68.22-1.37.45-2.07.65a73.45,73.45,0,0,1-11.87,2.35,139.92,139.92,0,0,1-28,2l0-.86a222.18,222.18,0,0,0,39-7.1c2.21-.62,4.52-1.32,7-2.13l-1.89,0c-5.39.48-11.21.84-17.27,1.08l-.41.11-1,.22c-2.12.48-4.52.94-7.33,1.4a215.3,215.3,0,0,1-23.19,4.7l-.17-.84c2.61-.72,5.29-1.49,8-2.28q-1.4,0-2.71.06l-.06-.85c3.62-.49,7.47-1.11,11.46-1.84l1.21-.39h-4.48a150,150,0,0,1-18.18,3.13,147.37,147.37,0,0,1-20.71,1.78h-2.61c-6.55,3.63-14.23,8-21.68,12.82-3.48,2.25-7,4.73-10.5,7.39l-1.47,1.16c-1.19.93-2.42,1.9-3.5,2.86l-2.42,2.07L473.16,374a103.08,103.08,0,0,0-16.64,20.56,113.89,113.89,0,0,0-16.62,52.54l-.21,3.32-.64-3.26c-3.66-18.69-1-39.83,7.27-58a107.5,107.5,0,0,1,7-12.88l-1.88,1.2c-7,4.46-13.75,8.9-19.78,14.24-1.59,1.42-3,2.8-4.29,4.13l-1,1.05-1.57,1.81a3.26,3.26,0,0,0-.25.3l-1.09,1.36a48.59,48.59,0,0,0-6.05,10.25,40.57,40.57,0,0,0-3.1,11.63,32.07,32.07,0,0,0,1.12,12.19l.93,3.18-1.72-2.84a31.4,31.4,0,0,1-4.19-12.49,41.29,41.29,0,0,1,.82-13.63,50.57,50.57,0,0,1,4.95-13l1-1.79c.09-.16.18-.32.35-.57l1.3-2,1-1.47c1-1.41,2.07-2.78,3.27-4.23a73.36,73.36,0,0,0-14.63,13.47,44.19,44.19,0,0,0-5.52,8.86,38.93,38.93,0,0,0-3,10.17l-.53,3.29-.32-3.32a36.34,36.34,0,0,1,.55-11.22l.08-.32a97.44,97.44,0,0,0-2.33,10.4c-1.72,9.61-2.44,19.67-3.13,29.41l-.31,4.31-.61-3.31c-1.68-9.1-3.41-19.91-3.49-31,0-1.57,0-3.19.07-4.92-.94,1.64-1.77,3.21-2.49,4.77a65.68,65.68,0,0,0-6.52,26.06,51.11,51.11,0,0,0,1.48,13.58,46.91,46.91,0,0,0,5.68,12.74L390,471.4l-2.44-2.26a44.35,44.35,0,0,1-9-11.75,48.9,48.9,0,0,1-3.87-10.85c-.44,4-1,7.72-1.69,11.2-.23,1.34-.53,2.64-.87,3.88l-1,3.74a50.53,50.53,0,0,1-2.79,7.69c-2.52,5.56-6.23,9.78-10.46,11.88l-2.92,1.45,2.44-2.16c3.31-2.92,5.51-7.05,6.72-12.62a50.77,50.77,0,0,0,1-7.19l.32-5.78V456.8c.06-4.9-.15-10.17-.69-16.93q-.46.94-.9,1.89c-5.64,12.12-8.09,23.84-7.27,34.83l.25,3.36-1.08-3.19a52.53,52.53,0,0,1-2.6-18.74,72.48,72.48,0,0,1,3.45-19q.16-.51.33-1a76.55,76.55,0,0,0-12.38,14.42,49.26,49.26,0,0,0-5.17,10.86l-.06.85h-.2a43,43,0,0,0-1.39,5.89,32.18,32.18,0,0,0,2.34,19l1.4,3-2.12-2.52a30.79,30.79,0,0,1-6.68-16.68c-.07,3.78-.07,6.95,0,9.92l-.85.07c-.24-1.7-.47-3.55-.68-5.59-.12.7-.23,1.4-.34,2.1l-.51,3.31-.11-1.05c-1.18,7.08-2.28,13.79-3.29,19.94-.15,6.41-.31,13.77-.38,19.37-.1,6.57-.21,11.32-.34,14.94q-.1,2.79-.23,4.77a25.31,25.31,0,0,0-.06,3,11.35,11.35,0,0,0,.31,2.21c.05.21.09.38.11.54a1.38,1.38,0,0,1-.34,1.34,1.18,1.18,0,0,1-1.56.09,2.55,2.55,0,0,1-.46-.34,439.12,439.12,0,0,1,2,48.89c-.09,3.65-.28,7.67-.58,12.29.14,2.29.25,4.44.34,6.28a130.14,130.14,0,0,1,.09,15.22c-.2,2.25-.52,3-1.34,3h0c-.77,0-1.12-.67-1.39-2.71-.17,1.16-.35,2.36-.55,3.53a199.7,199.7,0,0,1-6.65,27.69l0,.88h-.23c-1,3.08-2,6-3.11,8.8l-.81-.26c.7-2.86,1.38-5.89,2-9l-.7-6.91-.2,1.62-.85-.05c0-2.92,0-6,.09-9.16l-.16-1.19c-.69,4.84-1.4,9.21-2.15,13.29l-.85-.1c.48-8.93.85-18.17,1.11-27.45-2.1-15.45-4-28.73-5.92-40.54l-.25-1.54h-.13c-1,0-1.86-1-3-5.35-1.62-5.95-3.52-16.45-5.64-31.2l-.21-1.5c-.62-3.37-1.26-7-1.7-10.66l-.79-6-.57-6q-.42-3.31-.84-6.84c-1.19-5.68-1.84-9.11-2.16-11.43-.5-3.56-.28-4.81.29-5.34l-1.18-11.38,2.91,4.21c.09-4.35.25-8.88.52-13.82.73-12.93,2-24.38,3.14-33.87.33-2.64.65-5.11,1-7.46,0-6.63.34-13.55,1-20.54l-.94,1.75,0,0L291.88,431l1.78-6c1.9-8.67,3.94-17.14,6-25.17l.12-.64c.85-4.3,1.84-8.67,3-13.32a1.31,1.31,0,0,1-.29-.13c-1-.61-.8-1.92.78-5.16.54-1.12,1.25-2.45,2.09-3.95a254.84,254.84,0,0,1,8.9-25.09c2.11-5.1,4.54-10.38,7.22-15.69,1.42-3.15,2.83-6.17,4.18-9,1.06-2.11,2.15-4.27,3.23-6.33l-7.4,3.92,4.73-8c1.4-2.36,3-4.87,4.78-7.46-2.45-.25-5-.56-7.68-1l-.28,0-.86.82.51-.87h0l3.68-6.25c.89-.92,1.86-1.9,2.85-2.84l-.1-.06-2.11,1.81,1.26-2.18q2-3.45,4.13-7.14l.07-.09c7.58-7.47,15.57-14.66,23.77-21.39l-1.76-.34-.21,0c-2,1.17-4,2.37-6,3.58l-2.14,1.29,1.58-1.93a85.14,85.14,0,0,0,5.91-8l.13-.13.33-.2c1.29-.81,2.59-1.61,3.88-2.38l.1.17-.07-.19,0,0v0h.05c1.59-.95,3.18-1.9,4.75-2.8,3.5-2,7.17-4,10.91-5.94H371.4c-4.78,2.21-9.55,4.58-14.16,7l-1.3.69.73-1.28.18-.3.2-.34,6.7-8c3.51-1.76,7.13-3.48,10.79-5.1h-1.09l-.05-.85,4.38-.56c3.07-1.31,6.19-2.59,9.67-3.95l-10,1,3.24-1.17c4.61-1.66,9.72-3.2,15.19-4.57l.1-.1-7.91,1.51-2.75.53-7.84,2.69-3.13,1.08,2.75-1.84c5-3.35,10.12-6.81,15.26-10.32l-2.31-.17v.69l-.19-.71c-3.14-.27-6.17-.64-9.07-1.12l-3.3-.55,3.33-.3,8.35-.78a5.3,5.3,0,0,1,1.95-4.26,15.2,15.2,0,0,1,4.24-2.64c2.76-1.3,5.7-2.52,8.73-3.62,2.43-.88,5-1.69,7.73-2.47l-1.11,0a47.47,47.47,0,0,0-8.06.3l-.22.1c-.28.13-.56.25-.84.39l-3,1.56,1.75-1.59-.46.13-3.09.94,2.74-1.72a17.1,17.1,0,0,1,3.68-1.69,23.88,23.88,0,0,1,2.62-1.56H404l-3.34,0,3.24-.82c3.2-.81,6.59-1.57,10.38-2.35l2.18-.62-.76-1.85a2,2,0,0,1,.33-1.92,4.43,4.43,0,0,1,1.37-1.12,10.24,10.24,0,0,1,2.21-.83l.78-.23.67-.2c1.69-.5,3.44-1,5.19-1.48,3.72-1,7.6-2,11.87-2.88a186.5,186.5,0,0,1,23.52-3.53c3.06-.25,6.1-.43,9.11-.51-5.92-.68-11.35-1.41-16.45-2.19l-3.32-.51,3.34-.34c7.29-.74,15.34-1.15,24.11-1.22v-.41c2.88-.25,5.9-.5,9-.73L483.6,186l0-.86A412.07,412.07,0,0,1,526.79,184c-13-.59-26.82-1-40.58-1.18l0-.85A433.59,433.59,0,0,1,547,179.61a340.43,340.43,0,0,0-37.71,0l-.1-.85a187.41,187.41,0,0,1,27.73-3c-7.85-1.34-17.87-2.68-27.75-2L509,173c8.27-1.69,17.65-1.87,29.51-.56,8.21.9,16.18,2.23,23.89,3.51l8.19,1.37q1.74.22,3.43.46c-.36-.47-.71-1-1.06-1.5q-4.53-1.69-9.13-3.44c-18.08-2.21-37.89-3.74-57.18-4.42l0-.86a317,317,0,0,1,41.17-1c-4-1.61-7.87-3.19-11.47-4.7l.28-.81c6.47,1.79,13.44,3.81,20.72,6,6.93.44,13.66,1.06,19.89,1.82a390.23,390.23,0,0,1,45.38,8.38,26.42,26.42,0,0,0-7.39-3.07l-3.24-.7,3-.13c-3.94-1.32-8.56-2.88-13.13-4.46l-3.17-1.1,3.34.27a209.52,209.52,0,0,1,33.33,5.66c-1-.68-1.86-1.37-2.7-2.07l-2-1.71-8.34-2.52,3.45.16a169,169,0,0,1,23.73,2.92L635.4,167l.15-.84c5.55.67,11.48,1.55,17.67,2.63-2.91-1.42-5.77-2.75-8.51-4l.3-.8a184,184,0,0,1,18.21,6.68c6.87,1.37,13.73,2.92,20.33,4.59l-2-1.51c-3-1.22-5.63-2.16-8.11-2.91l.19-.83c1.27.21,2.58.47,3.91.77-1.69-1.25-3.36-2.51-5-3.76l.47-.71c3.25,1.86,6.6,3.84,10,5.9a79.53,79.53,0,0,1,14.31,5.92c-1-.72-1.94-1.41-2.91-2.08l-.31.07-.13-.37c-3.07-2.1-6.3-4.12-9.64-6l-.29-.07-.34-.08,0-.19c-3.07-1.73-6.09-3.28-9-4.62l.31-.8a90.93,90.93,0,0,1,12.65,5.15,99.45,99.45,0,0,1,11.88,2.17l-2.77-8.35,3.9,5.13c9.65.2,19.86.63,29.59,3.34a61.23,61.23,0,0,1,7.27,2.54,46.94,46.94,0,0,1,6.76,3.58,41.59,41.59,0,0,1,11.06,10.13,33.39,33.39,0,0,1,2.86,4.57c.9.7,1.74,1.37,2.53,2l-.56-1.21.75-.41c.52.82,1,1.68,1.54,2.53l.61,1c1.12.95,2.28,2,3.46,3l.66.35a19.3,19.3,0,0,0-3.94-6.57l.58-.63a20.42,20.42,0,0,1,5.88,8.53l.06.18A74.86,74.86,0,0,1,780,208.49c0-.23,0-.47,0-.7l0-.08-1.05-1.15.59-.62.15.12c-.19-.91-.39-1.81-.6-2.68-.11-.25-.25-.56-.42-.85A3.75,3.75,0,0,0,775,200.3l-.15-.84a4.3,4.3,0,0,1,2.06,0q-1.2-1.54-2.41-3.05l.63-.58a150.78,150.78,0,0,1,18.34,21.62,38.58,38.58,0,0,0-2-7.06l.77-.36q.37.67.7,1.37l.53-.42c2.32,2.6,4.71,5.31,7.08,8a14.73,14.73,0,0,1,3.7,1.34l.08,0,.05-.24a2.7,2.7,0,0,1,.94.3,13.84,13.84,0,0,1-.57-2.05l.83-.22c1.35,4,4.3,7,7.43,10.13.94.95,1.92,1.93,2.84,2.93.63.67,1.27,1.38,1.95,2.16-.22-.53-.45-1-.69-1.5a20.4,20.4,0,0,0-7.33-8.22l.41-.75a20.64,20.64,0,0,1,8.76,7.93,22.55,22.55,0,0,1,1.83,3.59,9.94,9.94,0,0,0,.67-1.5c-1.35-4.18-2.64-9.07-2.09-13.82l.85,0a22.59,22.59,0,0,0,.29,3.18c1.51,4.48,4.08,8.74,6.56,12.86l.19.31c.82-.89,1.67-1.8,2.46-2.73l.35-.44.17-.21c-1.4-4.07-2.6-7.42-3.76-10.54l.78-.35c1.38,2.63,2.78,5.54,4.39,9.14,2-2.48,3.7-4.79,5.19-7,1.09-1.56,2.21-3.18,2.37-4.91a2.88,2.88,0,0,0-.75-2.21,2,2,0,0,0-2.11-.72l-.32-.79a3.05,3.05,0,0,1,3.29.65,4.25,4.25,0,0,1,1.45,3.12c0,2.22-1,4.14-2,5.83l-.1.18a82.5,82.5,0,0,1-5.69,9c.3.71.6,1.41.88,2.1h0c-.13-.65-.23-1.27-.3-1.86l.84-.16a42.18,42.18,0,0,0,1.3,4l2.32,2.65c-.22-.46-.44-.91-.66-1.37l.74-.43c1.24,1.88,2.5,3.94,3.95,6.48,2.33,2.74,4.43,5.3,6.37,7.76a5,5,0,0,0,.12-2.2,3.51,3.51,0,0,0-3.13-3h-.09l-.09-.85c2.21-.39,4.15,1.47,4.77,3.47a7.54,7.54,0,0,1-.15,4.42q1,1.3,1.94,2.6l9.11,5q1.74-2.44,3.33-4.76l.73.44q-1.26,2.45-2.72,5.05l1,.53-1.13-.26q-1.42,2.52-3,5.14c.37.66.73,1.3,1.07,1.93l.28-.58a8.46,8.46,0,0,1,4.27,4,12,12,0,0,1,1.33,5.82,11.36,11.36,0,0,1-.4,3v.12c0,.12,0,.23,0,.35.12.42.24.83.35,1.2a25.08,25.08,0,0,1,.9,4.12c0,.21.05.39.06.55a98.14,98.14,0,0,0,9-9.47l.69.5a77.94,77.94,0,0,1-7.16,9.44,2.88,2.88,0,0,1,1,.49,4.14,4.14,0,0,1,1,1l.68-.21a17,17,0,0,1,1,6.57l.56.74.72.08c0,.18,0,.36,0,.53s0,.22,0,.33l1.88,2.47q.41-.26.8-.55l.16.22h0l-.17-.23a8.9,8.9,0,0,0,1.88-1.82,6,6,0,0,0,1.26-4l.85-.11a7.09,7.09,0,0,1-.92,4.94,10.66,10.66,0,0,1-2.21,2.63l0,.12c.06.44.12.87.18,1.31l3.07,4,0-2,.34,0-.18-2.86.85-.11c.32,1.68.63,3.37.92,5.08a15,15,0,0,0,2-2.48,12.69,12.69,0,0,0,1.28-2.68c-.29-2.7-.59-5.12-.9-7.38l.66-.13q-.53-1.75-1.06-3.44l.8-.31c1.91,4.14,3.73,8.66,5.43,13.44l6-2.82.41.75c-2,1.28-4.1,2.53-5.9,3.6a177,177,0,0,1,5.18,18c.42,1.79.82,3.69,1.25,5.8l12.23,16.05-10.44-8.52c.07.17.12.34.18.5l0,.12.62,2c0,.1.05.18.07.27l.27.75a69.12,69.12,0,0,1,2.6,9.09c.6,2.77,1.08,5.66,1.48,8.83l.16.74.28.36,0,0c-.07-2.5-.15-5-.24-7.45l.85-.09c.52,3.12,1,6.46,1.45,10.19l.51.65c.3.39.6.77.88,1.16l-.66.55-.51-.53A290.41,290.41,0,0,1,910,399.67c0,2-.06,4.12-.13,6.66.46,3.24.8,6,1,8.63a238.64,238.64,0,0,1-.39,47.08c-.66,6.61-1.64,13.65-3,21.53-.77,4.42-1.63,8.87-2.65,13.58a504.3,504.3,0,0,1-4.51,50.79c-1.1,8-2.28,15.09-3.53,21a113,113,0,0,1-2.75,11.22c-.09.3-.18.55-.26.81l-.09.27c-.71,6-1.49,12.33-2.38,19.16-1.64,12.84-2.95,21-4,25l-.08,1.85c-1.11,23.87-2.07,29.28-2.85,31.26,0,2.76,0,5.42-.19,7.91C883.56,673.86,882.52,675.3,880.85,675.3ZM855.32,487.86l.69,2.62q.4,1.55.76,2.88l0,.08v.08a210.44,210.44,0,0,0-1.21,34.1c0,2,.19,4,.35,6l.09,1.13c.07.81.13,1.62.19,2.44.11,1.51.23,3.08.42,4.56l.08.66c.52,4.43,1,8.62,1.68,12.75,1.32,9,3.06,17.66,4.45,24.64,1.24,6,2.45,11.71,3.58,17,1.79,8.41,3.33,15.67,4.54,22,2,10.51,3.65,20.3,4.92,29.93a93.26,93.26,0,0,0,.64,10.85c.32,2.28.63,2.35.64,2.35l.33,0,0,.33c.19,1.58.37,3,.55,4.2.9,7.89,2.1,7.91,2.74,7.92h0c.88,0,1.87-.67,2.57-8.05.15-2.48.21-5.15.18-7.92l0-.17c1.07-2.58,1.94-12.16,2.82-31.06l.09-1.94c1-4,2.34-12.16,4-25,.88-6.83,1.67-13.12,2.39-19.23l.11-.36c.08-.25.17-.5.26-.79A112.43,112.43,0,0,0,896,568.8c1.25-5.93,2.43-13,3.52-21A506.09,506.09,0,0,0,904,497c1-4.78,1.89-9.21,2.65-13.62,1.37-7.85,2.35-14.87,3-21.46a238.49,238.49,0,0,0,.39-46.92h0c-.25-2.62-.58-5.37-1-8.67.07-2.61.11-4.72.13-6.71a288.24,288.24,0,0,0-1.95-36l-.06-.46q-.18-1.5-.37-2.91c0,.43,0,.87,0,1.3l0,.75c0,.08,0,.16,0,.23v.31h0c0,1.1,0,2.2,0,3.29v.55l-.7-.19h-.38v-.38c-.21-1.56-.46-3.13-.75-4.67l-.43-2.15c-.41-3.18-.89-6-1.48-8.79a68.29,68.29,0,0,0-2.57-9l-.3-.84c0-.07,0-.15-.06-.22-.17-.56-.36-1.18-.58-1.88l-.2.09c-.17-.4-.35-.79-.54-1.19l0-.12-.38-2.28,7.08,5.78-8-10.53c-.43-2.14-.84-4.06-1.26-5.87a176.1,176.1,0,0,0-5.26-18.23l-.26-.75q-1.23-3.48-2.54-6.77,1,3.48,2,7.15l.09.35-1.67.79-.13-.5c-.32-1.24-.67-2.51-1-3.78l0,.17-.13-.52c0,.07,0,.14,0,.21v.11l.15,1.46c.07.69.13,1.38.19,2.07l.1,1.17-4.2,2,1-1.35a15.22,15.22,0,0,0,1.41-2.28h0c.07-.14.14-.29.21-.44-.08.14-.17.28-.25.42a16.42,16.42,0,0,1-2.71,3.21l-.58.54v0l-.44.38v.46l-.21-.28-.16.14-.05-.41L878,304.74h0l-1.6-2.1.49-.38.34-.26.18-.15c.29-.25.55-.5.8-.75l-.26.2h0l-.14.11-.54.4v0l-.67.42-.33.2-5.27-6.92.1-.23c.06-.13.11-.26.16-.39l-.28.59-3.67-4.81.24-.26.35-.39.21-.23.05-.06.44-.49q1.57-1.76,3-3.54-2.06,2.11-4.31,4.17l-.35.32-.6-.8v-.13c0-.24,0-.52-.09-.88a24.07,24.07,0,0,0-.87-4c-.11-.39-.23-.82-.36-1.25l0-.07V283a2.5,2.5,0,0,0,0-.31l0-.29,0-.07a10.5,10.5,0,0,0,.39-2.87,11.67,11.67,0,0,0-.53-3.75,11.83,11.83,0,0,1,.18,3.63l-.15,1.45-.65-1.3a8,8,0,0,0-1.19-1.79l-.08-.12-.15-.36a84.31,84.31,0,0,0-4.31-8.59l-.14-.22.08-.32q1.23-2,2.37-4-1.16,1.62-2.38,3.28l-.38.52-.33-.56c-.32-.54-.65-1.09-1-1.64-.83-1.74-1.62-3.26-2.3-4.46l-.49-.85,3.67.84-6.22-3.45q-1-1.41-2.13-2.84l-.13-.18.07-.21a8.42,8.42,0,0,0,.45-2.43,8.25,8.25,0,0,1-.42,1.69l-.26.74-.48-.62c-2.06-2.65-4.32-5.42-6.89-8.45l0,0-1.9-2.2-.75-.87c1.1,1.53,2.25,3.12,3.48,4.8.93,2,1.79,4,2.61,5.9l1.58,3.72-2.33-3.31c-1.8-2.55-3.74-5.25-5.93-8.24l0-.07c-.68-1.39-1.31-2.76-1.88-4.1l.1.29,1,3-2-3.13c-.11-.22-.23-.45-.35-.66-.88-2.31-1.79-4.56-2.81-6.94l-.09-.22.14-.2a81.36,81.36,0,0,0,5.77-9.11l.1-.18a14.74,14.74,0,0,0,1.73-3.93,15.93,15.93,0,0,1-2.2,3.87c-1.61,2.43-3.47,4.93-5.68,7.64l-.44.54-.28-.64c-.4-.91-.79-1.77-1.17-2.6l1.15,3.3.08.23-.16.19-.3.38-.38.47c-.88,1-1.81,2-2.71,3l-.55.59-.78-1.29c-1.43-2.37-2.88-4.78-4.16-7.27,1.21,3.07,2.74,6,4.22,8.94l.14.28-.89.9h0l-.36.34-.55-1.29c-.38-1-.76-1.94-1.16-2.9-1-2.38-2.09-5.06-2.91-7.8a54.26,54.26,0,0,0,1.63,6l0,.13h0l.05.15q.29.88.58,1.74c.08.24.16.48.24.72l.18.56-.22.1c.37.94.78,1.93,1.24,3l.42.07-1.28,1.25-.3-.23-1.84-1.45-.11-.09,0-.14c-.21-.82-.43-1.57-.67-2.27l-.3-.79a23,23,0,0,0-2.08-4.25,20,20,0,0,0-2.51-3.31,21.51,21.51,0,0,1,2.16,3.51,23.53,23.53,0,0,1,1.51,3.81l.65,2.07-1.38-1.67c-1.27-1.52-2.36-2.76-3.43-3.91-.91-1-1.88-2-2.82-2.91a60.7,60.7,0,0,1-4.19-4.49l.17.33-1.81-1.62-.56-.49-.22-.16.22.22.14.14v0l.29.32a18.88,18.88,0,0,1,1.36,1.59,22.07,22.07,0,0,1,2.37,4.56l.54,1.37-1.19-.87-2-1.48-.25-.2-1.9-2.27,0-.05h0l-.44-.52q-2.24-2.66-4.54-5.32l-.31-.36-1.95-2.24c1.5,2.08,3.14,4.3,5,6.74l1.6,2.14-2.19-1.54c-2.5-1.75-5-3.46-7.43-5.09l-.14-.1,0-.17c-.16-.7-.34-1.39-.53-2.06.06.36.13.73.18,1.1l.14,1-1.61-1.11a155.68,155.68,0,0,0-14.26-17.59l-.22.2a5.68,5.68,0,0,1,.78,1.13,8.74,8.74,0,0,1,.43.87l.59-.39c2.94,3.9,5.76,7.84,8.38,11.72l2.32,3.43-3-2.89q-1.61-1.56-3.31-3.12l.44.49,2.22,2.47-5.73-3.77,0-.17c-.11-.48-.23-1-.36-1.43l0-.26-.16-1.33,0,0c0-.25-.05-.5-.09-.76a13.68,13.68,0,0,0-1.11-3.36c.27,1.15.52,2.29.74,3.46l.22,1.19-.11-.09c0,.43,0,.83,0,1.24v.95l-.71-.63a74,74,0,0,0-10.94-8.11l-.13-.08-.15-.45a23.92,23.92,0,0,0-1.18-2.58c.23.56.44,1.14.63,1.74l.34,1.05-1-.55c-.57-.32-1.14-.64-1.71-.94-1.27-1.13-2.45-2.16-3.58-3.11l-.83-.69c-1.22-1-2.54-2.07-4-3.24l-.11-.14a32.91,32.91,0,0,0-2.83-4.53,40.68,40.68,0,0,0-10.84-9.92,46,46,0,0,0-6.63-3.51A60.26,60.26,0,0,0,730,172.2a100,100,0,0,0-22.43-3.1A122.89,122.89,0,0,1,729.46,174c8.92,3,16.63,8.24,21.68,14.75l1.41,1.81L750,189.07c-.6-.37-1.21-.73-1.83-1.09a133.81,133.81,0,0,0-29.28-12.55,194.58,194.58,0,0,1,28.26,14.08l-.11-.11,3.42,2.17c1.42.9,2.8,1.8,4.1,2.68l.09.06.24.48c.11.22.23.44.32.66.45,1.62.83,3.23,1.18,5l.57,2.85-1.37-2.56c-.6-1.12-1.39-2.59-2.27-4.06a25.42,25.42,0,0,0-1.6-2.36l-.52.37-.27-.34-.05-.07-4.12,3.22-.18,0-.77-.13-.13,0-.1-.1a69.75,69.75,0,0,0-6.49-5.69,105.12,105.12,0,0,0-15.29-10h0l-1.62-.84c-3-1.55-6-2.93-8.9-4.09a101.06,101.06,0,0,0-9.63-3.32l-.13,0-.09-.11-3.94-5.19h0l-.27-.36,1.63,4.93-.76-.19c-3.21-.81-6.4-1.46-9.54-1.94,3.47.92,7,2,10.52,3.31l.19.07,1.31,3.95-.92-.46c-2.32-1.16-4.42-2.13-6.43-3l-.06,0c-1.84-1.12-3.82-2.24-5.9-3.32l-1.92-1q-2.77-1.37-5.54-2.53,1.3.7,2.62,1.45l1.7,1h0c2.94,1.72,5.81,3.54,8.54,5.41l.74.51h0c1.68,1.18,3.36,2.41,5.1,3.77l1.79,1.39h0l.84.66-3.38-1c-.39-.21-.67-.39-1-.56s-.85-.52-1.29-.76A78.59,78.59,0,0,0,682.65,173l-.1,0-3.46-2.09.62.46,1.75,1.29-1.24-.31,1.72.69,5.7,4.19-3.59-.93c-6.8-1.74-13.89-3.35-21.07-4.78q-5.74-2.43-11.28-4.39,2.29,1.1,4.64,2.26l2.72,1.35-3-.54c-4.57-.83-9-1.56-13.29-2.18l12.69,3.25-.07.39c3.18.74,6.48,1.52,9.84,2.34l.1,0,4.28,2.31-3.67-1q-1.89-.52-3.85-1c-2.11-.54-4.36-1.08-6.88-1.63h0l-.65-.14a180.81,180.81,0,0,0-25.14-3.75l12.55,3.79-.21.83-.22,0c1.83.8,3.77,1.62,5.85,2.48l2.71,1.12-2.92-.3-2.86-.28c-3-1-5.63-2-8.07-3q.83.58,1.75,1.16l2.28,1.46-2.62-.68a217.7,217.7,0,0,0-32.07-5.92c4.61,1.58,9.1,3.08,12.68,4.27l-.14.62a46,46,0,0,1,7.36,3.77l2.75,1.63-2.87-.73a392,392,0,0,0-48.18-9.08c-6.22-.76-12.92-1.38-19.94-1.83q-7.16-2.16-13.79-4.06c2.28.93,4.64,1.88,7.06,2.84l2.37.94-2.54-.11a326.42,326.42,0,0,0-36.45.32c17,.78,34.25,2.2,50.23,4.16l9.35,3.51.39.15c3.42,1.27,6.8,2.52,10.13,3.73l-.22.83c-2.47-.46-5-.89-7.61-1.28L575,178.8c-1.47-.21-3-.42-4.5-.61l-8.2-1.37c-7.7-1.28-15.65-2.6-23.84-3.5a109.26,109.26,0,0,0-22.18-.5,140.53,140.53,0,0,1,21.92,2.36l1.83.34,1.13.21-.07.85a196.8,196.8,0,0,0-24.55,1.89,325.35,325.35,0,0,1,43.62,1.32c1.44.15,2.83.31,4.23.48l1.62.31-.11.85q-3.55-.25-7.2-.45a449.42,449.42,0,0,0-65.33,1.09c15.9.3,31.67.88,46,1.71l0,.86c-3.34,0-7,.13-11.05.25-12.83-.34-25.59-.13-37.35.59l3.9.18v.86c-3.15.21-6.21.44-9.17.67,6.72.23,14.19.42,23.31.6l0,.86-1.15.09-1.06.1-.84.08a348.4,348.4,0,0,0-48,.17c6.23.9,13,1.72,20.5,2.49l-.05.86a163.21,163.21,0,0,0-16.66.54,185.92,185.92,0,0,0-23.41,3.52c-4.25.92-8.12,1.86-11.83,2.87-1.74.46-3.48,1-5.17,1.47l-.66.19-.8.24a12.29,12.29,0,0,0-1.57.53,12.36,12.36,0,0,1,1.55-.15l.91-.07,18.09-1.48,4.37-.35,4.5-.34-4.82,1.42-1.41.41c-2.83.54-5.17,1-7.4,1.49-5.76,1.23-11.33,2.59-16.56,4l-.71.2V207l0-.08-2.3.66c-2.44.5-4.71,1-6.86,1.5h.09l2.09,0-1.92.84a25.51,25.51,0,0,0-4.28,2.35l-.11.05-.15.05h0l-.08.07a54.77,54.77,0,0,1,7.37-.2c1.3,0,2.65,0,4,0l2.82-.06-3,1.07c-3.71,1-7,2-10.11,3.12s-5.92,2.3-8.67,3.59a14.33,14.33,0,0,0-4,2.5,5.57,5.57,0,0,0-.73.78,7,7,0,0,1,.88-.6l.25-.12.13-.06.17,0,2.83-.24.34,0c2.67-.23,5.35-.49,8-.75l1.65-.16-1.36.94L398.35,226l-.19.07c-2.53.27-5.17.54-8.08.82l0,1.14q1.78.15,3.6.25l1.26.07-1,.71c-4.55,3.11-9.11,6.19-13.57,9.19l6.08-2.08,1.34-.46,2.69-.9.89-.3.3.8-.15.07,5.7-1.09,1.33-.25-2.14,2.22-.12,0c-4.15,1-8.1,2.17-11.78,3.38l9.24-.91-3,1.14c-4.71,1.8-8.73,3.42-12.64,5.1l-1.25.54c-4.27,1.86-8.51,3.84-12.59,5.89l-5.74,6.91c4.14-2.18,8.39-4.27,12.65-6.24l.18,0,4.2,0h1.78l-1.58.81c-4.28,2.18-8.47,4.45-12.45,6.73-1.6.91-3.21,1.87-4.81,2.84l0,0c-1.29.77-2.58,1.57-3.87,2.38l-.24.15c-1.33,2.05-2.78,4.09-4.41,6.16l3.44-2h0l.36-.21.34-.2,1.06-.61,1.77-1h0l1.2-.68c2.39-1.35,4.7-2.63,6.86-3.79l.28-.11,1.64-.92.46.72-.22.17h0l-2.16,1.66c-1.32,1-2.65,2-4,3.08h0l-.72.57-1.09.9-.85.7h0l-.73.59c-8.42,6.87-16.62,14.23-24.39,21.88l-2.83,4.91c.81-.7,1.62-1.39,2.45-2.08l.11-.1,2.68-.1-1,.81c-1.44,1.14-2.82,2.27-4.11,3.38l.23.15-.42.38c-1.13,1-2.22,2.14-3.17,3.1l-1.1,1.91c1.77-1.58,3.6-3.1,5.47-4.54h0l1-.73c1.28-1,2.6-1.9,4-2.83h0l1.72-1.16.8-.54.1-.06h.11l2.31-.14,2.13-.13-2.42,3-1.12,1.4c-1,1.24-1.89,2.41-2.75,3.55l-.17.22c-1.41,1.86-2.74,3.66-3.94,5.35l-.13.18h-.22c-1.94,0-3.89,0-5.93,0,1.72.22,3.37.41,5,.57l.72.07-.42.6c-1.93,2.78-3.67,5.48-5.16,8l-3.19,5.38,5.35-2.83c.13-.07.24-.14.36-.21l1.56-.93-.71,1.35c-1.28,2.43-2.61,5.07-3.9,7.61-1.35,2.78-2.75,5.79-4.18,9-2.68,5.31-5.1,10.56-7.2,15.65a257.66,257.66,0,0,0-8.9,25.09c-.87,1.57-1.57,2.89-2.1,4-1.77,3.64-1.29,3.94-1.11,4.06a.38.38,0,0,0,.3,0L304,385l-.17.68c-1.25,4.83-2.28,9.33-3.15,13.77l-.12.67c-2,7.59-3.9,15.55-5.71,23.72l2.9-5.38-.22,2.15a223.65,223.65,0,0,0-1.21,22.65c-.32,2.41-.64,4.88-1,7.51-1.14,9.47-2.4,20.9-3.13,33.81-.29,5.44-.46,10.38-.54,15.12l0,1.34-2.52-3.65.89,8.57-.25.14c-.46.26-.5,1.82-.1,4.64.32,2.3,1,5.72,2.16,11.41.29,2.39.57,4.67.85,6.88l.57,6,.79,6c.45,3.64,1.08,7.26,1.7,10.63l.22,1.51c2.12,14.72,4,25.19,5.62,31.1,1.34,4.87,2,4.74,2.38,4.7l.16,0,.5-.2.41,2.51c1.89,11.82,3.83,25.11,5.93,40.64-.19,6.88-.44,13.7-.75,20.38.47-2.93.92-6,1.37-9.34l.43-3.16,1,7.57c0,.41,0,.82,0,1.23l.09-.78.83,6.43.78,7.72V662q-.22,1.08-.45,2.14.43-1.28.85-2.59l.31-1a201.39,201.39,0,0,0,6.41-26.92c.43-2.52.78-5.15,1.07-7.27l.85,0c.1,1.58.19,2.69.29,3.49.23,1.93.49,2.17.54,2.2s.36-.28.53-2.21a129.07,129.07,0,0,0-.09-15.1c-.09-1.84-.2-4-.34-6.33.3-4.66.49-8.67.58-12.31a443.79,443.79,0,0,0-2.1-50.21l-.17-1.83,1,1.57a3.56,3.56,0,0,0,1.07,1.2c.37.21.46.14.54.05s.17-.17.1-.59c0-.15-.06-.3-.1-.49a12.09,12.09,0,0,1-.34-2.36,27,27,0,0,1,.06-3.09q.13-2,.23-4.74c.13-3.62.24-8.36.34-14.93.07-5.6.23-13,.39-19.43,1.17-7.14,2.46-15,3.84-23.24l.55-3.28.08.94.3-1.67.42-2.37.55,3.1,0,.31c0-1,0-2.13.05-3.27l.05-.2a10.43,10.43,0,0,0,.62-1.37l.75-2,.11,2.08a32.39,32.39,0,0,0,4.64,15.73A34,34,0,0,1,337,469.84a43.55,43.55,0,0,1,1.59-6.56l.72-2.24v.16a50.27,50.27,0,0,1,4.63-9.28,80.13,80.13,0,0,1,13.79-15.77L359,435l-.8,2.28c-.23.64-.46,1.29-.66,1.94A71.64,71.64,0,0,0,354.15,458a52.79,52.79,0,0,0,1.57,15.13c-.13-10.12,2.38-20.79,7.5-31.78.51-1.11,1.05-2.2,1.6-3.29l.68-1.36.13,1.51c.63,7.54.88,13.26.82,18.54v1.86l-.32,5.81a51.71,51.71,0,0,1-1,7.31,25.67,25.67,0,0,1-4.62,10.56,25.62,25.62,0,0,0,7.21-9.66,49.53,49.53,0,0,0,2.75-7.55l1-3.73c.34-1.22.62-2.5.85-3.82a135.33,135.33,0,0,0,2-13.86l.28-3,.56,3A49.79,49.79,0,0,0,379.39,457a43.87,43.87,0,0,0,6.41,9.1,47.42,47.42,0,0,1-4-10,51.94,51.94,0,0,1-1.51-13.82,66.58,66.58,0,0,1,6.6-26.4,64.9,64.9,0,0,1,3.41-6.33l.89-1.47-.09,1.71c-.13,2.36-.18,4.52-.15,6.59a167.39,167.39,0,0,0,2.87,27.52,260.25,260.25,0,0,1,3-27,80,80,0,0,1,8.11-24.88l.67-.81q2-1.9,4.08-3.7l.62.59a58.3,58.3,0,0,0-5.57,8.44,42.08,42.08,0,0,0-4,10.63,33.44,33.44,0,0,0-.73,7.53,36.56,36.56,0,0,1,2.36-7,44.86,44.86,0,0,1,5.63-9,75.4,75.4,0,0,1,15.65-14.24c.48-.34,1-.67,1.45-1l3.77-2.56-2.48,2.71c-.2.22-.41.44-.62.65s-.54.55-.8.85c-1.63,1.88-3,3.59-4.24,5.36l-1,1.45-1.29,2c-.15.23-.23.37-.32.52l-.16.28-.86,1.5a49.68,49.68,0,0,0-4.86,12.75,40.36,40.36,0,0,0-.81,13.34,31.37,31.37,0,0,0,2.51,9.15,33.42,33.42,0,0,1-.36-9.18,41.47,41.47,0,0,1,3.16-11.88,49.55,49.55,0,0,1,6.16-10.44l1.09-1.36a2.79,2.79,0,0,1,.33-.38l1.53-1.78,1-1.07c1.28-1.34,2.74-2.75,4.35-4.18,6.08-5.39,12.87-9.85,19.89-14.33l2.14-1.37,3.14-2-1.13,1.69a106.25,106.25,0,0,0-8.06,14.44,97.65,97.65,0,0,0-7.78,54.13,114.58,114.58,0,0,1,16.48-49.54,103.73,103.73,0,0,1,16.78-20.73l2.54-2.39,2.43-2.08c1.09-1,2.34-1.95,3.53-2.89l1.47-1.16c3.51-2.68,7.07-5.17,10.56-7.43,7.5-4.86,15.24-9.25,21.82-12.91l.1-.05h.79c.67,0,1.35,0,2,0a146.46,146.46,0,0,0,20.61-1.77,151.9,151.9,0,0,0,18.2-3.13c2.49,0,4.91,0,7.34,0l2.81,0-3.73,1.21-2.85.91q-1.86.35-3.69.65l2.09-.14L555,343.29l-4.31,1.28c5.15-.94,10.45-2.11,15.83-3.5,2.83-.47,5.21-.92,7.32-1.4l.94-.22.5-.12c6.12-.25,11.93-.61,17.35-1.09q2,0,4.16-.13l2.29-.13-2.09.94-.73.34c-.32.15-.63.3-1,.45-2.74.89-5.19,1.64-7.55,2.3a220,220,0,0,1-31.54,6.3,146.1,146.1,0,0,0,20.24-2A73,73,0,0,0,588.22,344c.69-.19,1.36-.41,2-.64l.91-.3a161.24,161.24,0,0,0,19.08-6.63c1.91-.37,3.64-.73,5.39-1.11l4.18-.31,2-.22,3-.34-2.09,1.07c-3.28,1.68-6.63,3.38-10,5.09q-5,1.41-9.93,2.65c1.38-.2,2.75-.41,4.1-.64l2.82-.48-4.18,2.11c2.39-.92,4.49-1.76,6.42-2.56q4.07-.83,8-1.79l.11,0c1.26-.31,2.5-.63,3.75-1l.29.8-1.49.7h0l-1.27.54c-1.94.83-3.7,1.5-5.37,2.05a42.2,42.2,0,0,1-10.44,2.11l-2.25.15a37.37,37.37,0,0,0,13-1.18,61.75,61.75,0,0,0,9.45-3.32l.09,0h0l1.7-.8c2.5-1.17,5.05-2.51,7.8-4.07l1-.62,1-.53c1.78-.29,3.34-.57,4.83-.9,1.87-.4,3.86-.91,6.26-1.61l3.11-.9-3.11,1.88c-2.31,1.36-4.77,2.7-7.32,4l.59,0-2.55.92-.65.24c-.4.15-.8.3-1.21.44a46.46,46.46,0,0,1-9.61,2l-.31,0c1.42,0,2.88-.07,4.35-.22l3-.32-2.8,1.15q-3.87,1.58-7.6,2.8a88.28,88.28,0,0,0,17.21-5.85q2.23-.77,4.33-1.69l.11,0a70.7,70.7,0,0,0,20.56-6.38l.4-.2.53-.23,1,0a153.51,153.51,0,0,0,18.4-2l2.17-.4.69-.13c3.8-.74,7.85-1.74,12-3l.14,0,1.54.57a71.41,71.41,0,0,0,10.49,3,54.91,54.91,0,0,0,14.44,1h.07l.07,0,2.81.85,3.09.95-3.23-.11c-5.16-.18-11-.43-16.8-.73l-23.24-1.34c7.47,1.14,15.39,2,23.17,2.63,9.55.73,17.94,1,24.18,1.08l.73,0c2.25.74,4.42,1.49,6.47,2.21,6.39,3.72,12,6.89,17.27,9.72,1.82,1.15,3.51,2.24,5,3.26,5.37,5.63,12.82,13.4,20.49,21.11-2.72-3.31-5.66-6.79-8.8-10.4h0l.65-.56h0c3.59,4.1,6.88,7.82,10.07,11.36l6.61,7.24c1.48,1.89,2.89,3.63,4.25,5.28l.26-.21-5.54-7.19q-3.33-5.11-6.51-10.1l-1.11-1.74,1.71,1.16c1.63,1.1,3.34,2.23,5.4,3.56l.12.12c3,4.49,6.26,9.31,9.56,14.31l5.57,8.46c.33.53.68,1.05,1,1.57A31.17,31.17,0,0,1,813.6,394l0-.62,1,2.37c2.31,5.5,4.53,10.63,6.65,15.33l.7-.26.16.41a192.8,192.8,0,0,0-8.13-22.11c-1.14-2.6-2.38-5.27-3.8-8.17l-1.26-3.26,2.1,2.08c.83.82,1.67,1.65,2.48,2.48l.08.12c.91,2,1.83,4,2.73,6,.46,1.36.9,2.7,1.34,4.06,3.14,9.69,6.35,21.07,9.29,32.91.64,3.17,1.23,6,1.8,8.66-.78-7-1.68-14.12-2.64-20.79l-.49-3.4,1.31,3.17q2.29,5.52,4.54,11.1c1.11,6,2.05,12.36,2.78,18.71-.08-3.66-.32-7.43-.7-11.29l-.3-3,2.74,6.91c.48,4.43.8,9,1,13.51q.14-2.45.16-5l0-3.5,1.07,4.5.46,2h0l.6,2.63c1.73,7.6,3.43,15.59,4.6,23.56a169.47,169.47,0,0,0-3-23.09l.66-.19c-.79-2.93-1.65-6.05-2.61-9.41l-.05-.24c0-1.58,0-3,0-4.43l0-2.79.88,2.64c1.4,4.24,2.78,8.44,4.11,12.55,1.79,11,3.15,21.81,4.06,32.33,0-.51,0-1,0-1.47l.85,0c.07.58.13,1.15.19,1.73,0-2.59,0-5.37-.1-8.43l.85-.07v.07c0-.2,0-.4,0-.6l.85-.1,1.25,5.81c.08,4.54.19,8.67.34,12.47l0-.76.86,0c-.15,8.2-.14,15.39.34,22.26.32-6.74,1-13.65,1.77-21.1ZM407,390.88l-.91.85-.59.7a62.2,62.2,0,0,0-2.68,5.62q.49-1,1-2A55.16,55.16,0,0,1,407,390.88Zm404.17-9.69c1.29,2.64,2.44,5.13,3.5,7.55,1.3,3,2.55,6,3.71,9.07-.55-1.77-1.09-3.5-1.63-5.17q-.66-2-1.32-4c-.88-1.94-1.78-3.91-2.68-5.86C812.27,382.23,811.74,381.71,811.22,381.19Zm-19.76-16.07q2.64,4.14,5.38,8.33l5.77,7.48a10.65,10.65,0,0,0,3.55,3.15l-1.55-2.36c-3.29-5-6.48-9.76-9.51-14.23C793.77,366.63,792.58,365.85,791.46,365.11ZM602.71,345.18l.28,0,.09,0Zm-1.12-.89c.61,0,1.25.05,1.86,0l.84-.43ZM619,341c-2.28.55-4.58,1.05-6.85,1.51q-1.59.67-3.44,1.4a43.44,43.44,0,0,0,7-1.71h0C616.81,341.84,617.89,341.45,619,341Zm26.55-7.09c-1.09.28-2.09.52-3.07.73-1.51.33-3.08.62-4.81.89l-.22.08-.57.35-1.06.63c-1.92,1.09-3.74,2.07-5.51,3a46.37,46.37,0,0,0,6.85-1.63l.47-.16,0-.47c.54-.07,1.08-.16,1.62-.25l.54-.09C641.77,336,643.71,334.94,645.58,333.9Zm69-5,1.12.06c-.61-.1-1.21-.22-1.79-.34a72.21,72.21,0,0,1-10.55-3l-.94,0-1.57,0v-.1c-3,.84-5.84,1.56-8.61,2.16Zm172.22-22.64c-.18.36-.38.72-.61,1.1l.75-.35-.05-.58c0-.1,0-.2,0-.3l-.06.13Zm-562.38.62c2.86.06,5.53.11,8.16.09,1.06-1.49,2.22-3.07,3.45-4.7l-.27-.08c-.4-.11-.79-.22-1.18-.35l.22-.83c.42.08.84.15,1.27.22l.66.11c.82-1.08,1.68-2.18,2.61-3.35l1.13-1.41v0l-2.92-.16c-1.08.73-2.14,1.47-3.17,2.22l.41.7a4.44,4.44,0,0,1-2.35.74,93.83,93.83,0,0,0-8,6.79Zm563.7-5.11c.41,1.39.8,2.78,1.16,4.14l.08,0q-.6-2.21-1.21-4.36Zm-19.76-11,2.34,3.07a2.95,2.95,0,0,0-1.83-3.64l-.13.14Zm-4.74-13.54a7,7,0,0,1,.52.65c-.06-2.59-1-5.61-3.68-7.23,1.25,2.34,2.29,4.48,3,6.28ZM356.2,268.47l1.74.11.66-.54.4-.33-1.09-.22Zm3.5-2,.74.06c.7-.56,1.39-1.1,2.09-1.64Zm495.83-4.81c.58,1.06,1.2,2.29,1.84,3.63l.65,1.06q1.31-1.79,2.55-3.54Zm-16.62-16.91c1.26,1.71,2.43,3.33,3.54,4.88l-.92-2c-1.29-1.75-2.5-3.42-3.66-5Q838.37,243.64,838.91,244.75Zm-16.75-6.4,1.08.85v-.07h.26c-.61-1.43-1.12-2.73-1.56-3.93-.13.31-.27.62-.44.94C821.73,236.81,822,237.55,822.15,238.35Zm-14.22-10.69.13.1.79.57a19.69,19.69,0,0,0-1.67-3c-.2-.28-.43-.55-.66-.82,0,.16-.06.31-.1.47s-.12.41-.2.6Zm-423.49-.24c1.68.22,3.41.41,5.17.56l-.27-1Zm435.88-3.26c.08.76.2,1.52.35,2.28l.54-.17C820.91,225.57,820.61,224.87,820.33,224.16Zm-427.8-.88-.12.05-.15.07a4,4,0,0,0-2.12,2.61c2.81-.27,5.37-.54,7.82-.8l4.06-2.79q-3.13.3-6.27.58l-.24.16c-.15.1-.3.19-.45.3l-2.7,2,1.87-2.29Zm409.71-2.35q1.46,1.69,2.89,3.39a5.82,5.82,0,0,0,.22-1.09,16,16,0,0,0-1.82-1.55A10.93,10.93,0,0,0,802.24,220.93Zm-6.55-1.8c1.69,1.13,3.41,2.31,5.14,3.5-2.86-3.86-5.25-7.17-7.37-10.25A37.43,37.43,0,0,1,795.69,219.13Zm-13.61-11q1.88,1.64,3.69,3.31-2-2.84-4.09-5.7c.1.36.18.74.26,1.12s.08.72.12,1.07ZM438.2,201l-17.33,1.42-.93.07a8.67,8.67,0,0,0-1.88.24c-1.05.29-1.55.75-1.49,1.37l.2,2,.57-.16c5.24-1.45,10.83-2.81,16.6-4C435.29,201.59,436.69,201.3,438.2,201Zm314.35-7.05a26.81,26.81,0,0,1,1.53,2.28c.29.49.58,1,.85,1.47-.16-.66-.33-1.31-.5-1.94l-.28-.55-.15-.29Zm-6.43,2.57.44.07,1.87-1.46.45-.6.16.12,1.44-1.12a16.3,16.3,0,0,0-1.45-1.83l-.47-.3c-.58-.36-1.15-.73-1.75-1.09a196.33,196.33,0,0,0-35.24-16.75l.23-.82a131.87,131.87,0,0,1,36.81,14.51l.24.14a46.25,46.25,0,0,0-19.67-12.53c-8.5-3-17.75-4.33-26.69-5.64l-1-.15,2.58,3.4c3.34,1,6.56,2.09,9.58,3.3,2.16.87,4.38,1.85,6.61,2.95l-.09-.09.54-.66c1.17.83,2.36,1.76,3.64,2.84a104.87,104.87,0,0,1,15.34,10.06A71,71,0,0,1,746.11,196.52ZM576.29,178.13l2.84.45-3.89-1.44C575.57,177.46,575.92,177.79,576.29,178.13Zm119.3-4.67c1.75.74,3.56,1.57,5.52,2.53l-.53-1.6c-2.55-.92-5.12-1.75-7.65-2.49Q694.3,172.67,695.59,173.45Zm-63.79-3.13,1.39.65a109.21,109.21,0,0,0,11.2,4.47c-2.38-1-4.57-2-6.63-2.9l-2.81-1.28ZM332.9,468.79l-.85-.09v-.39l.25-1.25c.15-.75.29-1.49.46-2.21l.85.13,0,.4Zm504.83-33.91c-.48-2.26-.93-4.43-1.34-6.47l.82-.22,1.25,3.81c0,.89.08,1.82.11,2.78Zm-486.66-9-.66-.55.24-.32,1.74-.54Zm460-36.39c-1.59-3-3.22-5.93-4.83-8.74-1.81-3.17-3.76-6.44-5.95-10l-1-1.59,1.75,1.12.61.55.75.68.08.08,2.94,3.36c1,1.81,1.94,3.68,3,5.67q1.65,4.11,3.44,8.5Zm-8.24-16.24c1.48,2.46,2.86,4.79,4.16,7.07l1.27,2.24-.63-1.58c-1-2-2-3.81-2.87-5.54ZM789.1,361.08l-2-1.3-1.77-2.85,1.94,1.54,1.48,1.2.87.71Zm-10.6-4.61h0L777,354.81l.59-.62-.27.34.29-.31,1.49,1.7Zm3.26-.62-3.51-4.3,3.51,2.71.69,1.09ZM775,351.1l-3.29-2.26-1.39-1.54-.21-.24-1.77-2.14,3.08,2Zm-8.9-6-2.76-1.69c-.88-.54-1.78-1.08-2.71-1.63h0c-1.68-1-3.57-2-5.8-3.24l.36-.78c1.41.54,2.67,1,3.83,1.52,1.19.67,2.32,1.33,3.44,2l.09.07Zm-247.94-2.33,6.17-3.4h.11c3.07,0,7.77.06,13,0l.08.85c-5.51,1-11.36,1.82-17.36,2.37Zm6.39-2.54-2.37,1.3c3.41-.34,6.76-.77,10-1.27C529.17,340.29,526.51,340.26,524.52,340.24ZM625,336.89l-.27-.69-.4.05,2.5-1.17,1.55-.75,1.16-.54,3.27-.49.21.83-1,.35c-1,.37-2.05.73-3.1,1.09H629Zm25.64-1.57-.32-.79c1.21-.63,2.36-1.27,3.42-1.9,1.34-.79,2.76-1.68,4.46-2.79l.12-.08h.15c1.17.09,2.57.13,4.18.13h2l-1.77.82A89.5,89.5,0,0,1,650.68,335.33Zm7.91-4.68c-1.53,1-2.83,1.82-4.07,2.55,2.17-.75,4.27-1.57,6.29-2.45C660,330.73,659.26,330.69,658.59,330.64Zm1-1.7,2.14-1.48c1.75-.76,3.48-1.56,5.38-2.47l.09,0h.1c1.14,0,2.69,0,4.65-.09l1.61-.07-1.36.86c-1.33.84-2.78,1.69-4.43,2.59l-.13,0-2.67.44Zm7.8-3.13c-1.66.8-3.2,1.5-4.68,2.15l2.17-.08,2.54-.42c1.06-.58,2-1.13,2.94-1.68C669.22,325.82,668.23,325.83,667.43,325.81Zm60.43,2.68-4.22-.33a62.27,62.27,0,0,1-9.36-1.43c-1.09-.25-2.24-.54-3.61-.92l-3.68-1,.34,0c-.77-.25-1.53-.5-2.27-.77l-1.2-.43,1.21-.39.64-.21.25-.09h.1c1.22.16,2.45.34,3.68.53l4.16,1.1-2.77.14-2.8.15,2.47.12q2.88.14,5.75.33h.09c2.39.65,4.78,1.32,7.15,2Zm-12.62-2.42q1.48.32,3,.58l-1.82-.5Zm-36.8,1.67-.13-.85a96.28,96.28,0,0,0,12.08-3.24l.25-.09,6.4-.6,2,0,2.13.89-1.33.29c-3.88.86-7.2,1.52-10.16,2C686,326.79,682.25,327.32,678.44,327.75Zm18.79-3.92h-.15c-2.17.21-4.28.4-6.27.57l0,0-.13,0c-1.42.49-2.89.95-4.38,1.37l3.25-.53C691.86,324.93,694.39,324.44,697.24,323.83Zm198.15,3.8-3-4v-.12c-.18-1.54-.37-3-.56-4.42l-.43,0c-.69-3.78-1.54-7.67-2.53-11.55l-.08-.31.66-.38.49-.28.49-.28.15.54c1.76,6.51,3.21,12.56,4.31,18Zm-2.2-4.31.64.84q-.57-2.74-1.25-5.67C892.79,320,893,321.63,893.19,323.32Zm-3.44-15.6c.65,2.57,1.24,5.14,1.76,7.68l.33,0q-.91-3.73-2-7.72h0Zm-218,19.83,2.09-1.33c.8-.5,1.57-1,2.31-1.52l.1-.07h.12l2.9-.19,6.16-.44-4,1.14c-2.41.69-4.86,1.32-7.3,1.87Zm4.79-2.07-.19.13.65-.16Zm-6.91-1.64,2.77-1.46.59-.23.58-.22.12,0c.61-.05,1.23-.08,1.85-.11l1.08-.06,1.47-.09-1.56,1.14-.64.46-.1.07h-.12c-1.48.11-2.77.22-3.89.32Zm8.78-.72,1.12-.86.62-.49.31-.25h.14c2.28-.07,4.4-.08,6.46-.06l.73,0,.57,0,0,.86c-3.27.27-6.18.5-8.57.66Zm210.24-4.39-1-1.34h0l-1.37-1.8h0L883,311.24l-.1-.6.26-.15,1.2-.68,1.46-.83,1.5-.85.58-.33.06.67c.27,3.19.47,6.09.6,8.88Zm-1.43-6.23.32,1.54c-.1-1.55-.22-3.14-.36-4.82l-1.23.7c.16.84.33,1.73.49,2.7Zm-3.32-1.42,1.28,1.68h.05q-.07-1.17-.15-2.34l-.27.16Zm-550.4-16.92,1.16-1c4.52-3.76,8.5-7,12.15-9.86l.25-.19c2.05-1.62,4.24-3.32,6.67-5.17h0l1.08-.82c2.51-1.91,5-3.74,7.08-5.28l.57.63q-2.41,2.64-4.68,5.17l-1.38,1.54-1.46,1.64-1.3,1.46-1.74,1.09-2.07,1.29c-4.59,2.87-9,5.88-13,8.95l-.09.07Zm13.66-10c-3.28,2.59-6.82,5.46-10.79,8.75h0c3.78-2.87,7.84-5.69,12.1-8.38Zm1.21-.95c.58.08,1.2.14,1.89.2l1.18-.73,1.69-1.06,1.17-1.34,1.47-1.64.35-.38-1.21-.09C352.47,280,350.33,281.62,348.32,283.19Zm10.53-8.06L356.37,277l.84,0ZM341,293.06l2.67-1.67,2.07-1.28,2.23-1.36-3.12,3.74Zm521.91-8.16-1.43-5.11.81-.28.61,1.55.23.59c.22.53.41,1,.58,1.52l.06.17-.08.16c-.06.12-.13.24-.19.36Zm-13.79-28.24-2.67-1.46-.06-.13c-.27-.59-.57-1.17-.85-1.76l-.32-.64.73-.44,1.35,1.89Zm-9-4.93-1.53-.83-.05-.16c-.5-1.55-1-3.1-1.54-4.69l.8-.3q1,2.44,1.9,4.89Zm-467.65-.28,2.34-1c3.75-1.67,7.61-3.31,11.49-4.87l1.82-.73-3.56,3.73q-2.3,1.08-4.68,2.25l-.15,0-4.69.39Zm12.33-4.38q-3.68,1.5-7.29,3.08l2.06-.17c1.54-.76,3.06-1.49,4.55-2.19Zm452.47,4.11-1.92-3.42q-.67-1.2-1.36-2.35l.84,1.8,1.76,3.78-1.58-2.12.05.09-2.36-1.29-.06-.13c-.73-1.64-1.44-3.13-2.18-4.57l.05,0-.15-.2c-.69-1.33-1.41-2.63-2.17-3.95l-.15-.26.19-.23c1.2-1.42,2.16-2.62,3-3.79l.49-.65,1.64,4.85,0-.06q1.43,4.36,2.76,8.78Zm-6.75-12.7c1.26,1.77,2.51,3.66,3.72,5.66-.82-2.63-1.66-5.24-2.51-7.8l-.12-.21,0,0-.15-.43c-.71.92-1.48,1.87-2.39,3,.71,1.24,1.38,2.46,2,3.66l1.17,1.5c-.86-1.77-1.67-3.36-2.48-4.85Zm.1,7.77-3.72-3,0-.12c-.24-.69-.49-1.38-.74-2.07l-.09-.24.62-.68h0l.51-.54.58.73,1.09,1.6-.19-.12.05.09c.39.83.75,1.65,1.11,2.48Zm-3-3.53.77.62-.47-1a6.81,6.81,0,0,0-.56-.58l-.14-.12Zm-10.09-6.84-3.69-2.79L812,231.71l-.11-.08,0-.13c-.22-.68-.47-1.41-.77-2.11l-1.56-3.13,2.7,3.14c.84,1,1.69,2,2.5,3l.36.45ZM419.66,209.73l-.11-.85,2.36-.3,1.53-.1-1.56,1Zm309-19.92-.22-.08-3.85-1.35-.1,0-.07-.08c-1.2-1.33-2.3-2.45-3.36-3.43s-2-1.78-3.06-2.64l.48-.71a120.12,120.12,0,0,1,11.1,6.94l.48.34ZM725,187.61l3.54,1.24.08-.06c-2.22-1.54-4.45-3-6.68-4.34C722.9,185.37,723.91,186.4,725,187.61Zm-2.18.16-2.18-.73-5-1.63-.11-.05c-1.67-1.14-3.43-2.27-5.38-3.45l-.12-.11-5.1-6.71,1.46.6c2.38,1,4.31,1.84,6.08,2.69l.63.33.56.29a65.68,65.68,0,0,1,8.06,7.57ZM716,184.6l4,1.3a65.17,65.17,0,0,0-6.75-6.2c-.12,0-.31-.15-.5-.25l-.6-.31c-1.37-.66-2.85-1.32-4.56-2.05l3.12,4.11C712.59,182.37,714.33,183.48,716,184.6Zm-85-5.71-.92-.38-1.59-.67.3-.8L634,178.8Z"/></g><g class="cls-2"><path class="cls-3" d="M474.45,829.61,405.28,995.43h-2.37L333.74,829.61h2.13a1.42,1.42,0,0,1,1.42,1.18L402.2,986.67c.4.87.73,1.7,1,2.49s.57,1.62.89,2.49q.47-1.3.89-2.49c.28-.79.61-1.62,1-2.49L470.9,830.79a1.56,1.56,0,0,1,1.66-1.18Z"/><path class="cls-3" d="M405.56,995.86h-2.94l-.11-.26L333.1,829.18h2.77a1.83,1.83,0,0,1,1.83,1.49L402.6,986.5c.39.85.73,1.7,1,2.51l.49,1.37.48-1.37c.28-.8.62-1.65,1-2.52l64.9-155.86a2,2,0,0,1,2.05-1.45h2.54ZM403.2,995H405l68.81-165h-1.25a1.14,1.14,0,0,0-1.25.88L406.38,986.83c-.39.86-.72,1.68-1,2.46s-.58,1.62-.89,2.49l-.4,1.11-.41-1.1q-.48-1.3-.89-2.49c-.27-.78-.61-1.61-1-2.45L336.9,831c-.25-.82-.68-.92-1-.92h-1.49Z"/><path class="cls-3" d="M509.86,995.43H507V829.61h2.84Z"/><path class="cls-3" d="M510.29,995.86h-3.7V829.18h3.7Zm-2.84-.86h2V830h-2Z"/><path class="cls-3" d="M687.29,973a1.13,1.13,0,0,1,.83.36l1.07.95a90.48,90.48,0,0,1-11.2,9.3,70.79,70.79,0,0,1-13.09,7.23,80.46,80.46,0,0,1-15.64,4.74,95.78,95.78,0,0,1-18.83,1.72,79.44,79.44,0,0,1-30.8-5.86,69.65,69.65,0,0,1-24.4-16.88,77.56,77.56,0,0,1-16-26.71q-5.75-15.69-5.74-35.36a99.62,99.62,0,0,1,5.74-34.59,78.13,78.13,0,0,1,16.23-26.82,71.8,71.8,0,0,1,25.11-17.29,83.05,83.05,0,0,1,32.28-6.1,91,91,0,0,1,15.4,1.24,72,72,0,0,1,13.68,3.73,76.63,76.63,0,0,1,12.38,6.1,98,98,0,0,1,11.61,8.35l-.48.71c-.16.32-.55.48-1.18.48s-2-.95-4.2-2.84a60.47,60.47,0,0,0-9.66-6.28,84,84,0,0,0-15.57-6.28,75.63,75.63,0,0,0-22-2.84A80.71,80.71,0,0,0,602,835.83a68.49,68.49,0,0,0-24.16,16.46,75.84,75.84,0,0,0-15.81,26,97.55,97.55,0,0,0-5.69,34.23q0,19.31,5.62,34.59A75.9,75.9,0,0,0,577.49,973,66.78,66.78,0,0,0,601,989.33,76,76,0,0,0,630.44,995a102.68,102.68,0,0,0,18-1.42,70.17,70.17,0,0,0,14.51-4.14,62.78,62.78,0,0,0,12.2-6.69,114,114,0,0,0,11.19-9.06C686.74,973.24,687.05,973,687.29,973Z"/><path class="cls-3" d="M630.44,997.76a80.23,80.23,0,0,1-31-5.9,70.37,70.37,0,0,1-24.55-17A78.27,78.27,0,0,1,558.79,948c-3.83-10.46-5.77-22.4-5.77-35.5a100.51,100.51,0,0,1,5.77-34.73,78.86,78.86,0,0,1,16.32-27,72.51,72.51,0,0,1,25.26-17.4,83.85,83.85,0,0,1,32.44-6.13,91.79,91.79,0,0,1,15.47,1.25A72.8,72.8,0,0,1,662,832.29a77.77,77.77,0,0,1,12.45,6.13,99.06,99.06,0,0,1,11.66,8.39l.3.25-.69,1c-.2.43-.73.67-1.54.67-.46,0-1.39-.34-4.48-2.94a60.39,60.39,0,0,0-9.58-6.23,84,84,0,0,0-15.49-6.24,75.58,75.58,0,0,0-21.85-2.82,80.68,80.68,0,0,0-30.69,5.71,68.38,68.38,0,0,0-24,16.36,75.8,75.8,0,0,0-15.72,25.85,97.59,97.59,0,0,0-5.66,34.08c0,12.76,1.88,24.34,5.6,34.44a75.87,75.87,0,0,0,15.49,25.79,66.65,66.65,0,0,0,23.36,16.18,76,76,0,0,0,29.27,5.59,102.78,102.78,0,0,0,17.92-1.42A70.15,70.15,0,0,0,662.79,989a62.66,62.66,0,0,0,12.12-6.65,114,114,0,0,0,11.15-9,1.9,1.9,0,0,1,1.24-.71,1.57,1.57,0,0,1,1.13.48l1.39,1.23-.33.32A91.1,91.1,0,0,1,678.24,984a71.57,71.57,0,0,1-13.17,7.27A81.31,81.31,0,0,1,649.36,996,96.65,96.65,0,0,1,630.44,997.76Zm2.37-169.61a83,83,0,0,0-32.11,6.07,71.7,71.7,0,0,0-25,17.19,78.06,78.06,0,0,0-16.14,26.68,99.71,99.71,0,0,0-5.72,34.44c0,13,1.92,24.85,5.72,35.21a77.55,77.55,0,0,0,16,26.56,69.58,69.58,0,0,0,24.25,16.78,79.4,79.4,0,0,0,30.63,5.83,95.87,95.87,0,0,0,18.75-1.71,80.43,80.43,0,0,0,15.55-4.71,70.73,70.73,0,0,0,13-7.18,90.54,90.54,0,0,0,10.81-8.93l-.72-.64a.72.72,0,0,0-.54-.25s-.18,0-.64.47A115.16,115.16,0,0,1,675.4,983a63.46,63.46,0,0,1-12.28,6.74,70.9,70.9,0,0,1-14.6,4.17,103.56,103.56,0,0,1-18.08,1.43,76.78,76.78,0,0,1-29.6-5.66,67.53,67.53,0,0,1-23.66-16.39,76.76,76.76,0,0,1-15.67-26.09c-3.75-10.19-5.65-21.88-5.65-34.73a98.49,98.49,0,0,1,5.71-34.38A76.63,76.63,0,0,1,577.48,852a69.24,69.24,0,0,1,24.32-16.56,81.49,81.49,0,0,1,31-5.78,76.37,76.37,0,0,1,22.09,2.86,84.86,84.86,0,0,1,15.66,6.31,61.15,61.15,0,0,1,9.73,6.33c3,2.55,3.77,2.74,3.93,2.74.43,0,.72-.09.8-.24l.29-.44A97.78,97.78,0,0,0,674,839.16a76.45,76.45,0,0,0-12.31-6.07,72,72,0,0,0-13.6-3.71A90.92,90.92,0,0,0,632.81,828.14Z"/><path class="cls-3" d="M866.26,912.52q0,19.66-5.63,35.3a77.05,77.05,0,0,1-15.75,26.59,68.25,68.25,0,0,1-24.22,16.82,85.22,85.22,0,0,1-62.12,0,68.39,68.39,0,0,1-24.16-16.82,77,77,0,0,1-15.75-26.59Q713,932.18,713,912.52t5.62-35.24a77.59,77.59,0,0,1,15.75-26.71,68.68,68.68,0,0,1,24.16-16.93,78.85,78.85,0,0,1,31-5.92,80.35,80.35,0,0,1,31.15,5.86,67.93,67.93,0,0,1,24.22,16.88,77.64,77.64,0,0,1,15.75,26.71Q866.26,892.86,866.26,912.52Zm-3.08,0q0-19.3-5.39-34.59A75.08,75.08,0,0,0,842.69,852a64.52,64.52,0,0,0-23.28-16.29,77.34,77.34,0,0,0-29.91-5.62,76.28,76.28,0,0,0-29.61,5.62A65.2,65.2,0,0,0,736.62,852a76,76,0,0,0-15.28,25.94q-5.51,15.28-5.51,34.59T721.34,947a75.44,75.44,0,0,0,15.28,25.82,65.5,65.5,0,0,0,23.27,16.22,76.22,76.22,0,0,0,29.61,5.63,77.28,77.28,0,0,0,29.91-5.63,64.81,64.81,0,0,0,23.28-16.22A74.53,74.53,0,0,0,857.79,947Q863.18,931.83,863.18,912.52Z"/><path class="cls-3" d="M789.51,997.52a80.35,80.35,0,0,1-31.14-5.9,69.12,69.12,0,0,1-24.32-16.92A77.75,77.75,0,0,1,718.22,948c-3.75-10.41-5.65-22.34-5.65-35.44a104.7,104.7,0,0,1,5.65-35.38,78.35,78.35,0,0,1,15.84-26.86,69.43,69.43,0,0,1,24.31-17,79.64,79.64,0,0,1,31.14-6,81.15,81.15,0,0,1,31.32,5.9,68.65,68.65,0,0,1,24.37,17A78.33,78.33,0,0,1,861,877c3.75,10.47,5.66,22.41,5.66,35.5s-1.9,25-5.66,35.44A77.79,77.79,0,0,1,845.2,974.7a69,69,0,0,1-24.37,16.92A81.15,81.15,0,0,1,789.51,997.52Zm0-169.38A78.79,78.79,0,0,0,758.7,834a68.57,68.57,0,0,0-24,16.83A77.46,77.46,0,0,0,719,877.43a103.87,103.87,0,0,0-5.6,35.09c0,13,1.88,24.83,5.6,35.15a77,77,0,0,0,15.67,26.44,68.27,68.27,0,0,0,24,16.72,84.8,84.8,0,0,0,61.8,0,68.13,68.13,0,0,0,24.07-16.72,77,77,0,0,0,15.67-26.44c3.72-10.34,5.6-22.16,5.6-35.15s-1.89-24.83-5.6-35.21a77.64,77.64,0,0,0-15.67-26.56A67.83,67.83,0,0,0,820.5,834,80.33,80.33,0,0,0,789.51,828.14Zm0,167a77,77,0,0,1-29.78-5.66,66.23,66.23,0,0,1-23.42-16.33,76.17,76.17,0,0,1-15.37-26c-3.67-10.14-5.53-21.81-5.53-34.67s1.86-24.54,5.53-34.73a76.71,76.71,0,0,1,15.37-26.08,65.94,65.94,0,0,1,23.42-16.39,77,77,0,0,1,29.78-5.66,78.11,78.11,0,0,1,30.07,5.66A65.24,65.24,0,0,1,843,851.71a75.85,75.85,0,0,1,15.19,26.08c3.59,10.19,5.41,21.87,5.41,34.73s-1.82,24.53-5.41,34.67a75.27,75.27,0,0,1-15.19,26,65.52,65.52,0,0,1-23.43,16.33A78.06,78.06,0,0,1,789.51,995.15Zm0-164.64a76.21,76.21,0,0,0-29.45,5.59,65.11,65.11,0,0,0-23.12,16.18,76,76,0,0,0-15.19,25.79c-3.63,10.09-5.48,21.68-5.48,34.44s1.85,24.33,5.48,34.38a75.37,75.37,0,0,0,15.19,25.68,65.42,65.42,0,0,0,23.12,16.12,76.16,76.16,0,0,0,29.45,5.59,77.25,77.25,0,0,0,29.74-5.59,64.71,64.71,0,0,0,23.13-16.12,74.43,74.43,0,0,0,15-25.68c3.56-10.05,5.36-21.62,5.36-34.38s-1.81-24.35-5.36-34.44a75,75,0,0,0-15-25.79,64.38,64.38,0,0,0-23.12-16.18A77.3,77.3,0,0,0,789.51,830.51Z"/></g></svg>