<svg xmlns="http://www.w3.org/2000/svg" viewBox="0 0 77.6 77.6" enable-background="new 0 0 77.6 77.6"><g><circle fill="#f03" cx="38.8" cy="38.8" r="37.9"/><path fill="#f03" d="M38.8 77.6C17.4 77.6 0 60.2 0 38.8S17.4 0 38.8 0s38.8 17.4 38.8 38.8-17.4 38.8-38.8 38.8zm0-76.6C18 1 1 18 1 38.8c0 20.8 17 37.8 37.8 37.8 20.8 0 37.8-17 37.8-37.8C76.6 18 59.7 1 38.8 1z"/><path fill="#fff" d="M19 51V26.8h10.7c1.4 0 2.7-.1 4.1 0 2.7.2 4.8 2.3 4.9 5 .1.8 0 1.6-.1 2.4-.3 1.6-1.3 2.8-2.8 3.5-.1 0-.2.1-.3.2 2.1.1 3.2 1.3 3.8 3 .6 1.6.8 3.3.4 5-.6 2.6-2.3 4-4.8 4.7-.7.2-1.4.3-2.1.3H19.6c-.3.1-.4.1-.6.1zm5.5-4.2h.3c2.1 0 4.3 0 6.4.1 1.8 0 2.9-.9 3.2-2.7.3-2.2-1-3.7-3.2-3.7H24.6c-.1 2.1-.1 4.2-.1 6.3zm-.1-10h.3c1.2 0 2.5 0 3.7.1h1.9c1.3.1 2.7-.7 2.9-2.5.2-2.2-1-3.5-3-3.5h-5.8v5.9zM45.9 43.5c-.1 2.7 2.3 4.7 5 4.4 1.1-.1 2.2-.5 2.8-1.5.3-.5.7-.6 1.2-.6h3.8c0 1.1-.2 2.1-.8 3-.6.9-1.4 1.6-2.4 2-2 .9-4.1 1.1-6.2 1-1.2-.1-2.4-.3-3.6-.9-2.3-1-3.7-2.8-4.4-5.2-.7-2.6-.7-5.2.3-7.7 1.1-2.8 3.3-4.4 6.2-5 1.6-.3 3.1-.3 4.7.1 2.3.6 4 1.9 5 4.1.9 2 1.2 4.1 1 6.3H45.9zm.2-3.3H54c-.3-1.6-1.6-3.5-3.8-3.6-2.1 0-3.9 1.5-4.1 3.6zM55 28.5v2.4H45v-2.4h10z"/></g></svg>