<svg xmlns="http://www.w3.org/2000/svg" viewBox="0 0 77.6 77.6" enable-background="new 0 0 77.6 77.6"><g><circle fill="#f03" cx="38.8" cy="38.8" r="37.9"/><path fill="#f03" d="M38.8 77.6C17.4 77.6 0 60.2 0 38.8S17.4 0 38.8 0s38.8 17.4 38.8 38.8-17.4 38.8-38.8 38.8zm0-76.6C18 1 1 18 1 38.8c0 20.8 17 37.8 37.8 37.8 20.8 0 37.8-17 37.8-37.8C76.6 18 59.7 1 38.8 1z"/><path fill="#fff" d="M54.6 29v26.4c-.1.2-.1.5-.2.7-.3.7-.8 1.2-1.5 1.6H24.8c-.5-.3-1.1-.7-1.3-1.3-.2-.3-.3-.7-.4-1V28.9c.5-1.7 1.5-2.5 3.3-2.5H51.5c1.3 0 2.4.7 2.9 1.9.1.3.1.5.2.7zm-6.4 10.9c.5 1.9.4 3.8-.3 5.7-.7 1.9-1.8 3.4-3.4 4.6-1.6 1.2-3.4 1.8-5.3 1.9-2.6.1-5-.7-6.9-2.5-2.9-2.6-3.8-5.9-3-9.6h-2.7v13.1c0 1 .5 1.5 1.4 1.5h21.4c1 0 1.4-.5 1.4-1.5V40c-.8-.1-1.7-.1-2.6-.1zm-9.4 8.4c3.1.1 5.9-2.6 6.1-5.8.1-3.4-2.5-6.2-5.8-6.3-3.5-.1-6.3 2.5-6.4 5.9 0 3.3 2.6 6.2 6.1 6.2zm6.1-15.1v1.6c0 .9.5 1.4 1.4 1.4h3.4c.8 0 1.3-.5 1.3-1.3v-3c.1-1.2-.5-1.8-1.7-1.7h-3.1c-.9 0-1.3.5-1.3 1.3v1.7z"/></g></svg>