<svg xmlns="http://www.w3.org/2000/svg" viewBox="0 0 130.2 131" enable-background="new 0 0 130.2 131"><g><circle fill="#fff" cx="64.8" cy="65.3" r="63.8"/><path d="M64.8 130.1C29.1 130.1 0 101 0 65.3S29.1.5 64.8.5s64.8 29.1 64.8 64.8-29 64.8-64.8 64.8zm0-127.6C30.2 2.5 2.1 30.7 2.1 65.3c0 34.6 28.2 62.8 62.8 62.8s62.8-28.2 62.8-62.8c-.1-34.6-28.2-62.8-62.9-62.8z"/><circle fill="#F2F2F2" cx="65" cy="64.9" r="60.1"/><path d="M65 126C31.3 126 3.9 98.6 3.9 64.9S31.3 3.8 65 3.8s61.1 27.4 61.1 61.1S98.7 126 65 126zM65 5.8C32.4 5.8 5.9 32.3 5.9 64.9S32.4 124 65 124s59.1-26.5 59.1-59.1S97.6 5.8 65 5.8zM123.7 52.4c-.4-.2-.7-.4-1-.5-11.8-7.6-24.6-11-38.6-10.4-7.5.4-14.6 2.2-20.9 6.5-1.3.9-2.4 1.9-3.9 3 .3-.7.4-1.1.6-1.5 3.5-8 9.3-14.2 16.4-19.1 8.2-5.8 17.3-9.3 27.4-10.2 1-.1 1.7.2 2.4.9 8.9 8.5 14.8 18.7 17.5 30.7.1.1.1.3.1.6zM59 78.9c-3.6 1.9-7.5 2.9-11.5 3.3-15.5 1.3-29.2-3-41.3-12.7-1-.8-1.4-1.7-1.4-3-.2-11.8 2.7-22.8 8.8-32.9.3-.5.6-.9 1-1.5.8 2.9 1.3 5.6 2.2 8.2 4.6 13.8 12.5 25.2 25 33.1 5.2 3.3 11 5.2 17.2 5.5zM32 115.1c14.2-2.7 26.1-8.9 35.8-19.3 5.3-5.8 9.1-12.4 10.5-20.3.3-1.5.4-3.1.6-5 .3.5.5.9.7 1.3 2.5 5.8 3.3 11.9 3 18.1-.7 12.4-4.8 23.4-12.6 33.1-1.1 1.4-2.3 1.8-4 1.8-11.6.1-22.4-2.8-32.3-8.8-.6-.1-1-.4-1.7-.9zM97.2 14.3c-.8.2-1.5.3-2.2.5C80.2 18.4 67.9 26 58.7 38.3c-4.4 5.8-7.2 12.3-7.5 19.7 0 .1 0 .3-.1.4 0 .1-.1.1-.2.2-1.6-3.3-2.6-6.9-3-10.5-1.6-15.7 2.6-29.7 12.5-42 .8-.9 1.6-1.3 2.8-1.3C75 4.5 86 7.3 96.1 13.4l.9.6s.1.1.2.3zM79.4 59.2c1.7.9 3.6 1.6 5.2 2.6 8.5 5 14.5 12.3 19.1 20.9 3.3 6.2 5.4 12.7 6.2 19.7.2 1.5-.1 2.6-1.2 3.8-8.1 8.4-17.8 14.2-29.1 17-.5.1-.9.2-1.6.4.3-.5.4-.7.6-1 7-10.7 10.6-22.5 10.6-35.3 0-8.6-1.8-16.7-6.8-23.9-.9-1.4-2-2.6-3.1-3.9 0-.2.1-.2.1-.3zM50.6 70.5c-1.7-.8-3.4-1.6-5-2.5-8.3-5-14.3-12.2-18.8-20.7-3.5-6.7-5.7-13.9-6.2-21.5-.1-1.2.3-1.9 1.1-2.8 8-8.2 17.5-13.7 28.6-16.5.5-.1.9-.2 1.6-.3-.3.5-.5.9-.8 1.2-6.5 10.1-9.9 21.1-10.2 33.1-.2 7.7.9 15.2 4.5 22 1.2 2.3 2.9 4.4 4.4 6.7.2.3.5.6.8 1 .1.1 0 .2 0 .3zM6.4 78.2c3.3 1.8 6.5 3.7 9.8 5.2 10 4.6 20.6 6.6 31.6 5.4 8.2-.8 15.7-3.4 21.9-8.9.1-.1.3-.2.6-.1-.7 1.4-1.3 2.8-2.1 4.2-4.5 7.8-11 13.6-18.7 18-7.5 4.3-15.6 6.8-24.2 7.2-.5 0-1.2-.2-1.6-.6-8.5-8.1-14.2-17.9-17.1-29.3-.1-.4-.2-.8-.2-1.1zM115.9 96.6c-1.1-3.5-2-7-3.3-10.4-4.6-11.6-11.7-21.4-22.2-28.6-6-4.1-11.7-6-18.8-6.7 1-.4 1.9-.8 2.9-1.1 10.2-3.1 20.4-2.2 30.4.8 7.1 2.2 13.5 5.6 19.1 10.4.7.6.9 1.2 1 2.1.2 11.4-2.5 22.1-8.2 31.9-.2.4-.5.8-.8 1.2.1.3 0 .4-.1.4z"/><circle fill="#fff" cx="65.1" cy="65.1" r="65.1" opacity=".6"/><path fill="#EA2D2E" d="M92.5 72.6l-.1-38.9-10.5.1.1 38.8h10.5zm-2.9-37.9H92v1.4h-2.4v-1.4zm0 3H92v1.4h-2.4v-1.4zm0 3.1H92v1.4h-2.4v-1.4zm.1 3h2.4v1.4h-2.4v-1.4zm0 4.2v-1.3h2.4V48.1h-2.4V48zm0 1.7h2.4v1.4h-2.4v-1.4zm0 3h2.4v1.4h-2.4v-1.4zm0 3h2.4v1.4h-2.4v-1.4zm0 4.2v-1.3h2.4V60h-2.4v-.1zm-7.4-25.1h2.4v1.4h-2.4v-1.4zm0 3h2.4v1.4h-2.4v-1.4zm0 3h2.4v1.4h-2.4v-1.4zm0 3h2.4v1.4h-2.4v-1.4zm0 4.3v-1.3h2.4V48.2h-2.4v-.1zM92 76.4h-2.4V75H92zM91.93 76.418l-2.4.013-.008-1.4 2.4-.012zM91.965 79.41l-2.4.015-.008-1.4 2.4-.014zM91.99 90.336l-2.4.014-.007-1.4 2.4-.014zM92.026 93.332l-2.4.014-.008-1.4 2.4-.014zM88.79 88.042l-2.4.013-.007-1.4 2.4-.013zM88.825 91.036l-2.4.014-.008-1.4 2.4-.014zM88.788 96.498l-2.4.013-.008-1.4 2.4-.012zM88.758 76.515l-2.4.014-.008-1.4 2.4-.015zM88.726 82.505l-2.4.014-.007-1.4 2.4-.015zM88.756 84.974l-2.4.013-.008-1.4 2.4-.013zM88.816 98.966l-2.4.014-.008-1.4 2.4-.014zM84.703 90.965l-2.4.013-.007-1.4 2.4-.013zM84.738 93.96l-2.4.012-.007-1.4 2.4-.013zM84.767 96.527l-2.4.013-.008-1.4 2.4-.013z"/><path fill="#0B040C" d="M19.8 64.4l-2.6 1.4c-.5-.5-1-.9-1.5-1-.5-.2-1-.3-1.7-.3-1.2 0-2.1.4-2.8 1-.7.7-1.1 1.6-1.1 2.6s.4 1.9 1.1 2.6c.7.7 1.6 1 2.8 1 1.4 0 2.5-.5 3.3-1.4l2.5 1.6c-1.3 1.7-3.2 2.6-5.7 2.6-2.2 0-3.9-.6-5.2-1.9C7.6 71.4 7 69.9 7 68.2c0-1.2.3-2.3.9-3.3.6-1 1.4-1.8 2.5-2.4 1.1-.6 2.3-.9 3.6-.9 1.2 0 2.4.2 3.3.7 1.1.5 1.9 1.2 2.5 2.1zM28.5 61.6c1.2 0 2.3.3 3.3.8 1 .6 1.9 1.4 2.4 2.3.6 1 .9 2.1.9 3.2 0 1.2-.3 2.2-.9 3.2-.6 1-1.4 1.8-2.4 2.4-1 .6-2.1.9-3.3.9-1.8 0-3.3-.6-4.6-1.8-1.3-1.2-1.9-2.8-1.9-4.5 0-1.9.7-3.5 2.1-4.8 1.3-1.2 2.8-1.7 4.4-1.7zm.1 2.9c-1 0-1.8.3-2.4 1-.6.7-1 1.5-1 2.6s.3 1.9 1 2.6c.6.7 1.5 1 2.4 1 1 0 1.8-.3 2.4-1 .6-.7 1-1.5 1-2.6s-.3-1.9-1-2.6c-.6-.7-1.4-1-2.4-1zM37.7 61.8h3.1v1.3c.7-.6 1.3-1 1.9-1.2.6-.2 1.2-.3 1.8-.4 1.2 0 2.3.4 3.2 1.3.7.7 1.1 1.8 1.1 3.2v8.1h-3.1v-5.4c0-1.5-.1-2.4-.2-2.9s-.4-.8-.7-1.1c-.3-.2-.7-.4-1.2-.4-.6 0-1.2.2-1.6.6-.4.4-.8 1-.9 1.7-.1.4-.1 1.2-.1 2.5V74h-3.1l-.2-12.2zM64.1 64.2l-2.6 1.4c-.5-.5-1-.9-1.5-1-.5-.2-1-.3-1.7-.3-1.2 0-2.1.4-2.8 1-.7.7-1.1 1.6-1.1 2.6s.4 1.9 1.1 2.6c.7.7 1.6 1 2.8 1 1.4 0 2.5-.5 3.3-1.4l2.5 1.6c-1.3 1.7-3.2 2.6-5.7 2.6-2.2 0-3.9-.6-5.2-1.9-1.3-1.3-1.9-2.8-1.9-4.5 0-1.2.3-2.3.9-3.3.6-1 1.4-1.8 2.5-2.4 1.1-.6 2.3-.9 3.6-.9 1.2 0 2.4.2 3.3.7 1 .6 1.8 1.3 2.5 2.2zM79.5 68.6l-10.1.1c.2.9.5 1.6 1.2 2.1.6.5 1.4.8 2.4.8 1.2 0 2.2-.4 3-1.2l2.6 1.2c-.7.9-1.4 1.6-2.3 2.1-.9.4-2 .7-3.3.7-2 0-3.6-.6-4.8-1.8-1.2-1.2-1.9-2.7-1.9-4.5 0-1.9.6-3.4 1.8-4.7 1.2-1.2 2.8-1.9 4.6-1.9 2 0 3.6.6 4.8 1.8 1.2 1.2 1.9 2.8 1.9 4.9l.1.4zm-3.2-2.4c-.2-.7-.6-1.2-1.2-1.6-.6-.4-1.3-.6-2.1-.6-.9 0-1.7.2-2.3.7-.4.3-.8.8-1.1 1.6l6.7-.1zM93.2 63c-1.1-1.2-2.5-1.8-4.2-1.8-.8 0-1.5.1-2.1.4-.7.3-1.3.7-1.8 1.2v-1.3H82l.1 23.2h3.1V72.5c.6.6 1.2 1 1.9 1.2.6.2 1.3.4 2 .4 1.6 0 3-.6 4.2-1.9 1.2-1.2 1.8-2.8 1.8-4.6-.1-1.8-.7-3.4-1.9-4.6zm-8.4 20.6h-2.4v-1.4h2.4v1.4zm0-3h-2.4v-1.4h2.4v1.4zm0-3h-2.4v-1.4h2.4v1.4zm-.1-3h-2.4v-1.4h2.4v1.4zm6.2-4.3c-.7.7-1.5 1-2.4 1-1 0-1.8-.3-2.5-1s-1-1.6-1-2.6c0-1.1.3-1.9 1-2.6.7-.7 1.5-1 2.5-1s1.8.3 2.4 1c.6.7 1 1.5 1 2.6-.1 1-.4 1.9-1 2.6zM98 57h3.1v4.5h1.9v2.6h-1.9l.1 9.6h-3.1l-.1-9.6h-1.6v-2.6H98V57zM89.3 33.7l.1 16.5c-.6-.5-1.2-1-1.8-1.2-.7-.3-1.4-.4-2.1-.4-1.6 0-3 .6-4.2 1.8-1.1 1.2-1.7 2.8-1.7 4.7 0 1.8.6 3.3 1.8 4.6 1.2 1.2 2.6 1.8 4.2 1.8.7 0 1.4-.1 2-.4.6-.3 1.2-.7 1.8-1.2v1.3h3.1l-.1-27.5h-3.1zm-.8 24c-.6.7-1.5 1-2.5 1s-1.8-.3-2.4-1c-.7-.7-1-1.6-1-2.6 0-1.1.3-1.9 1-2.6.6-.7 1.4-1 2.4-1s1.8.3 2.5 1 1 1.5 1 2.6c0 1-.3 1.9-1 2.6zm3.6-9.6h-2.4v-1.4h2.4v1.4zm0-3h-2.4v-1.4h2.4v1.4zm0-3h-2.4v-1.4h2.4v1.4zm-.1-3h-2.4v-1.4H92v1.4zm0-3h-2.4v-1.4H92v1.4zM42.9 49.1H46v1.4c.5-.6 1.1-1 1.8-1.3.7-.3 1.4-.4 2.1-.4.8 0 1.5.2 2.1.6.6.4 1.1.9 1.5 1.6.5-.7 1.1-1.3 1.8-1.7.7-.4 1.5-.6 2.4-.6.9 0 1.7.2 2.4.6.7.4 1.2.9 1.5 1.6.3.7.5 1.7.5 3.2v7.2H59v-6.2c0-1.4-.2-2.3-.6-2.8-.4-.5-.9-.7-1.6-.7-.5 0-1 .2-1.5.5-.4.3-.7.7-1 1.2-.2.5-.3 1.4-.3 2.5v5.5h-3.1v-5.9c0-1.1-.1-1.9-.3-2.4-.2-.5-.4-.9-.8-1.1-.3-.2-.7-.4-1.2-.4s-1 .2-1.4.5c-.4.3-.7.7-1 1.3-.2.6-.3 1.4-.3 2.6v5.4h-3.1l.1-12.2zM77.6 55.9l-10.1.1c.1.9.5 1.6 1.2 2.1.6.5 1.4.8 2.4.8 1.2 0 2.2-.4 3-1.2l2.6 1.2c-.7.9-1.4 1.6-2.3 2.1-.9.4-2 .7-3.3.7-2 0-3.6-.6-4.8-1.8-1.2-1.2-1.9-2.7-1.9-4.5 0-1.9.6-3.4 1.8-4.7 1.2-1.2 2.8-1.9 4.6-1.9 2 0 3.6.6 4.8 1.8 1.2 1.2 1.9 2.8 1.9 4.8l.1.5zm-3.1-2.4c-.2-.7-.6-1.2-1.2-1.6-.6-.4-1.3-.6-2.1-.6-.9 0-1.6.2-2.3.7-.4.3-.8.8-1.1 1.6l6.7-.1zM97 43.8c.5 0 1 .2 1.4.6.4.4.6.9.6 1.4 0 .5-.2 1-.6 1.4-.4.4-.8.6-1.4.6-.6 0-1-.2-1.4-.6-.4-.4-.6-.9-.6-1.4 0-.5.2-1 .6-1.4.4-.4.8-.6 1.4-.6zm-1.6 5h3.1l.1 12.2h-3.1l-.1-12.2zM110.7 48.7h3.1l.1 12.2h-3.1v-1.3c-.6.6-1.2 1-1.8 1.2-.6.3-1.3.4-2 .4-1.6 0-3-.6-4.2-1.8-1.2-1.2-1.8-2.7-1.8-4.6 0-1.9.6-3.4 1.7-4.7 1.1-1.2 2.5-1.8 4.2-1.8.8 0 1.5.1 2.1.4.7.3 1.3.7 1.8 1.2l-.1-1.2zm-3.3 2.5c-1 0-1.8.3-2.4 1-.6.7-1 1.5-1 2.6s.3 1.9 1 2.6c.7.7 1.5 1 2.4 1 1 0 1.8-.3 2.5-1 .6-.7 1-1.6 1-2.7s-.3-1.9-1-2.6c-.7-.5-1.5-.9-2.5-.9zM109.5 74c-1 0-1.8-.1-2.5-.2-.7-.2-1.3-.4-1.8-.7-.5-.3-.8-.7-1.1-1.2-.2-.5-.4-1.1-.4-1.7h3.3c0 .6.2 1.1.6 1.4.4.3 1 .5 1.8.5.7 0 1.2-.1 1.6-.4.4-.3.6-.6.6-1.1 0-.2-.1-.4-.2-.6-.1-.2-.3-.3-.5-.4-.2-.1-.5-.2-.9-.3-.4-.1-.8-.2-1.3-.3-.6-.1-1.2-.3-1.8-.5-.6-.2-1.1-.4-1.5-.7-.4-.3-.8-.6-1-1.1-.3-.4-.4-1-.4-1.7 0-.5.1-1 .3-1.5.2-.5.6-.9 1-1.2.4-.3 1-.6 1.7-.8.7-.2 1.4-.3 2.3-.3 1.8 0 3.1.3 4 .9.9.6 1.3 1.5 1.3 2.7h-3.2c0-.5-.2-.9-.6-1.2-.4-.3-.9-.4-1.5-.4s-1 .1-1.4.3c-.4.2-.5.5-.5 1 0 .2 0 .4.1.5.1.1.2.3.4.4.2.1.5.2.8.3.4.1.8.2 1.4.4.8.2 1.5.4 2.1.6.6.2 1.1.4 1.5.7.4.3.7.6.9 1.1.2.4.3.9.3 1.6 0 .6-.1 1.1-.3 1.6-.2.5-.6.9-1 1.2-.5.4-1 .6-1.7.8-.6.2-1.4.3-2.4.3z"/></g></svg>