<svg version="1.1" id="el_FiITsExoN" xmlns="http://www.w3.org/2000/svg" xmlns:xlink="http://www.w3.org/1999/xlink" x="0px" y="0px" viewBox="0 0 261 373" style="enable-background:new 0 0 261 373.9;" xml:space="preserve"><style>@-webkit-keyframes kf_el_EOhXbb6bFj_an_Erj9-LHAB{0%{-webkit-transform: translate(130.5px, 186.9000015258789px) rotate(0deg) translate(-130.5px, -186.9000015258789px);transform: translate(130.5px, 186.9000015258789px) rotate(0deg) translate(-130.5px, -186.9000015258789px);}66.67%{-webkit-transform: translate(130.5px, 186.9000015258789px) rotate(360deg) translate(-130.5px, -186.9000015258789px);transform: translate(130.5px, 186.9000015258789px) rotate(360deg) translate(-130.5px, -186.9000015258789px);}100%{-webkit-transform: translate(130.5px, 186.9000015258789px) rotate(360deg) translate(-130.5px, -186.9000015258789px);transform: translate(130.5px, 186.9000015258789px) rotate(360deg) translate(-130.5px, -186.9000015258789px);}}@keyframes kf_el_EOhXbb6bFj_an_Erj9-LHAB{0%{-webkit-transform: translate(130.5px, 186.9000015258789px) rotate(0deg) translate(-130.5px, -186.9000015258789px);transform: translate(130.5px, 186.9000015258789px) rotate(0deg) translate(-130.5px, -186.9000015258789px);}66.67%{-webkit-transform: translate(130.5px, 186.9000015258789px) rotate(360deg) translate(-130.5px, -186.9000015258789px);transform: translate(130.5px, 186.9000015258789px) rotate(360deg) translate(-130.5px, -186.9000015258789px);}100%{-webkit-transform: translate(130.5px, 186.9000015258789px) rotate(360deg) translate(-130.5px, -186.9000015258789px);transform: translate(130.5px, 186.9000015258789px) rotate(360deg) translate(-130.5px, -186.9000015258789px);}}#el_FiITsExoN *{-webkit-animation-duration: 1s;animation-duration: 1s;-webkit-animation-iteration-count: infinite;animation-iteration-count: infinite;-webkit-animation-timing-function: cubic-bezier(0, 0, 1, 1);animation-timing-function: cubic-bezier(0, 0, 1, 1);}#el_G8PhWBjLJt{fill: #FFFFFF;}#el_DZdTH8UsMM{fill: #FFFFFF;}#el_EOhXbb6bFj_an_Erj9-LHAB{-webkit-animation-fill-mode: backwards;animation-fill-mode: backwards;-webkit-transform: translate(130.5px, 186.9000015258789px) rotate(0deg) translate(-130.5px, -186.9000015258789px);transform: translate(130.5px, 186.9000015258789px) rotate(0deg) translate(-130.5px, -186.9000015258789px);-webkit-animation-name: kf_el_EOhXbb6bFj_an_Erj9-LHAB;animation-name: kf_el_EOhXbb6bFj_an_Erj9-LHAB;-webkit-animation-timing-function: cubic-bezier(0.42, 0, 0.58, 1);animation-timing-function: cubic-bezier(0.42, 0, 0.58, 1);}</style>

<g id="el_EOhXbb6bFj_an_Erj9-LHAB" data-animator-group="true" data-animator-type="1"><path d="M181.4,226.5L75,266.4l3.3-118.6L186,107.4L181.4,226.5z" id="el_EOhXbb6bFj"/></g>
<path d="M91.3,191.8l0-0.2c-2.7-20.9,12-39.9,34.4-42.8c22.4-2.9,41.2,11.7,43.9,32.6l0,0.2c2.7,20.9-12,39.9-34.4,42.8&#10;&#9;C112.8,227.2,94,212.6,91.3,191.8z M149,184.4l0-0.2c-1.3-10.5-10.1-18.6-21.2-17.2c-11,1.4-17.2,11.3-15.9,21.8l0,0.2&#10;&#9;c1.3,10.5,10.1,18.6,21.1,17.2C144.2,204.7,150.4,194.9,149,184.4z" id="el_G8PhWBjLJt"/>
<path d="M131.2,210.4c13.1,0,23.7-10.6,23.7-23.7s-10.6-23.7-23.7-23.7s-23.7,10.6-23.7,23.7S118.2,210.4,131.2,210.4z" id="el_DZdTH8UsMM"/>
</svg>